P2
100 100
255
163 104 143 135 95 100 137 113 110 107 149 112 129 122 101 135 137 158 109 135 147 142 132 132 151 112 121 114 124 139 120 140 128 151 131 123 139 126 119 123 133 128 120 139 136 131 120 123 119 124 139 123 112 122 118 131 130 135 137 131 122 144 133 122 127 139 125 115 105 130 140 123 117 128 124 123 120 137 134 105 118 143 131 129 113 125 118 137 124 108 111 133 116 112 131 131 114 134 142 126 
159 91 137 128 83 89 130 103 97 95 145 102 121 110 86 123 128 159 98 131 136 140 126 127 142 101 104 102 112 136 110 135 112 142 117 114 127 120 114 111 125 121 111 134 127 121 108 124 115 115 127 119 103 109 114 128 133 122 127 122 119 137 127 107 126 120 127 106 101 118 139 109 111 120 110 109 102 125 130 94 96 129 129 120 112 101 116 111 103 98 113 124 103 102 125 125 113 125 149 108 
146 91 124 125 74 82 136 94 112 98 133 101 129 109 104 131 110 147 83 113 105 102 107 124 118 106 112 116 114 109 113 125 121 137 119 115 121 110 111 111 116 114 103 126 119 114 109 118 117 107 117 109 98 108 115 116 125 110 119 112 118 115 107 103 115 112 124 111 109 112 132 104 110 113 105 106 99 118 128 99 98 114 113 113 105 99 110 106 108 104 109 112 100 106 113 116 108 119 124 109 
122 102 110 118 83 90 138 89 137 106 117 106 137 113 130 130 99 113 84 97 82 66 92 114 96 116 127 131 119 90 120 118 132 128 122 119 116 104 109 112 113 111 104 118 110 113 116 113 119 99 116 107 103 105 120 103 119 103 111 107 119 103 94 103 115 107 128 107 106 111 134 101 105 105 104 103 99 108 124 101 100 105 105 113 93 101 99 109 120 99 105 100 96 102 110 109 96 115 111 115 
117 95 106 108 83 88 120 85 120 96 108 100 123 105 110 110 102 103 87 100 91 71 98 99 101 100 120 117 116 95 114 116 129 125 117 108 112 96 100 105 110 102 98 112 111 109 105 100 107 92 113 92 97 99 111 97 114 98 110 98 117 99 95 90 108 100 121 98 98 108 131 92 101 99 99 98 97 105 124 87 100 105 99 105 81 99 96 111 120 96 90 97 93 95 97 104 90 110 94 114 
119 91 106 104 81 87 111 80 108 89 104 102 118 102 95 96 106 91 94 107 99 73 108 87 106 89 119 114 111 107 113 121 126 132 118 103 108 97 97 105 111 97 93 111 116 109 96 93 101 90 116 80 90 97 112 97 112 94 110 96 117 97 97 88 101 96 116 94 92 108 129 88 100 96 98 95 98 103 124 82 104 106 98 101 72 100 92 120 123 96 84 96 91 91 90 105 87 105 83 116 
117 97 106 106 86 94 113 81 115 94 101 113 123 109 100 95 107 83 103 112 98 64 114 82 102 91 130 126 114 115 120 129 133 142 128 107 111 99 103 110 118 98 92 116 127 113 99 97 106 92 122 76 88 98 119 101 119 93 114 97 125 95 96 90 101 92 123 103 102 111 136 88 108 97 99 95 98 106 135 85 104 107 103 102 72 99 97 122 127 105 91 98 93 96 90 109 94 108 85 120 
114 100 103 106 87 95 113 81 117 97 97 118 125 113 103 94 105 78 102 110 89 54 113 79 94 92 138 134 111 110 120 127 134 142 131 109 110 96 109 115 122 96 91 112 129 110 101 98 113 95 118 75 92 100 130 97 114 83 110 96 127 84 92 96 103 88 125 104 108 107 129 92 112 94 104 96 101 94 126 101 106 97 106 100 78 96 96 119 129 108 103 92 97 100 95 109 98 101 86 122 
112 105 105 107 96 101 113 88 117 102 100 120 122 116 105 95 108 81 108 111 93 65 113 82 96 96 139 132 108 114 117 124 129 136 131 109 111 95 116 116 127 98 97 112 131 110 106 105 115 101 118 84 98 104 131 96 113 85 111 97 129 89 94 101 108 93 127 105 109 108 129 97 113 97 110 101 104 94 124 107 108 100 109 103 81 102 98 121 133 108 107 95 99 102 100 110 96 103 90 126 
109 116 108 112 111 114 116 103 121 114 105 126 120 123 113 105 112 92 115 115 101 79 115 93 101 106 140 134 112 120 120 126 131 132 134 111 116 99 124 117 129 105 103 118 136 114 116 114 116 109 121 92 100 112 125 101 121 100 119 99 132 102 99 105 110 105 131 117 117 115 135 102 117 107 114 111 109 111 137 104 114 111 110 109 85 114 106 128 141 118 105 106 103 110 98 111 99 116 88 133 
118 111 110 115 100 104 125 96 125 110 111 120 125 121 116 113 111 98 108 112 98 76 110 97 101 106 140 135 111 117 118 126 130 134 136 112 117 99 125 118 128 104 100 119 136 112 116 114 116 111 119 90 97 114 123 101 118 101 120 98 130 100 96 108 106 108 127 122 119 114 131 103 118 107 114 112 110 114 137 107 115 111 107 108 86 116 106 129 141 121 104 107 104 114 96 110 100 117 85 132 
116 106 107 112 94 98 125 91 125 106 110 113 124 115 116 113 106 99 100 105 92 72 103 98 97 105 135 131 110 107 115 120 127 128 131 109 113 95 120 115 122 101 98 115 128 108 113 111 113 106 114 89 96 111 119 97 114 98 115 95 125 96 92 104 103 106 123 118 116 110 127 100 114 104 110 109 107 111 131 104 112 106 102 105 85 113 103 123 136 117 100 103 102 111 94 106 97 114 82 128 
113 105 106 111 95 99 119 95 119 106 107 113 120 115 112 110 106 102 98 104 92 74 104 97 97 103 133 127 109 104 113 117 127 126 128 109 114 92 118 113 122 101 99 112 126 107 113 110 114 105 112 92 100 109 121 95 113 94 113 95 125 94 93 102 107 104 124 112 113 108 126 101 112 102 111 108 106 104 126 106 110 103 104 105 86 109 101 119 134 112 102 100 101 108 97 106 95 110 87 126 
120 101 112 109 99 101 108 98 103 99 110 111 110 110 94 97 117 105 107 116 113 99 119 93 114 93 123 113 109 118 110 119 121 126 123 104 115 97 114 111 122 100 102 112 129 109 105 105 108 107 113 89 102 110 116 101 112 97 116 98 122 100 106 101 108 104 117 108 110 108 120 102 114 104 113 108 110 105 123 105 114 108 109 104 93 111 107 120 128 114 102 107 108 109 99 110 103 108 91 123 
134 106 128 117 114 114 104 117 91 103 123 116 110 110 84 95 131 131 121 137 137 143 141 109 137 97 106 101 118 135 117 127 117 129 113 113 116 116 117 116 126 115 122 121 123 120 104 118 114 117 116 112 123 118 129 119 130 105 122 111 135 121 130 99 127 108 131 104 110 121 137 110 120 119 119 117 119 115 128 107 125 120 117 116 107 116 120 124 128 117 107 120 116 114 108 127 113 114 103 127 
135 115 133 122 127 125 108 133 92 114 132 120 110 114 89 103 134 152 125 141 141 167 142 126 140 108 98 98 116 138 116 124 107 119 105 118 115 122 128 117 131 125 135 126 117 122 112 137 122 127 113 136 137 123 136 124 140 111 121 116 142 135 138 102 143 113 143 104 113 124 147 117 122 130 125 124 120 118 128 114 124 124 124 125 120 118 127 118 128 116 117 126 116 119 118 133 115 120 119 128 
127 124 131 122 140 132 118 139 103 121 137 119 111 117 103 113 131 156 125 135 136 175 128 137 133 121 96 95 105 138 108 118 93 103 99 119 111 121 140 112 135 130 142 127 111 121 124 155 127 134 113 159 140 122 133 120 144 118 118 116 141 151 135 105 156 118 155 99 106 123 159 119 114 134 126 126 112 119 127 111 109 128 129 132 121 116 122 109 125 102 122 128 104 113 129 130 103 127 141 127 
134 128 132 134 127 127 135 136 117 133 138 133 125 138 116 134 126 157 117 132 121 137 124 137 122 130 125 128 109 136 120 133 114 136 123 130 129 123 142 122 146 135 131 139 128 130 135 156 140 132 132 156 127 120 143 125 146 120 124 129 140 149 126 120 156 124 162 106 109 126 165 122 115 132 128 121 105 118 133 116 97 131 143 138 119 107 115 113 124 94 137 124 99 106 147 134 105 131 171 126 
128 138 127 140 124 131 151 132 144 147 132 147 144 152 142 151 114 141 116 126 100 94 116 138 104 145 147 160 118 130 137 145 133 155 140 142 135 130 143 130 147 141 123 148 135 138 144 156 150 127 145 151 116 117 150 131 152 125 127 137 143 144 115 128 150 123 169 119 119 131 174 120 119 131 123 117 101 124 146 117 90 131 146 141 115 101 113 114 125 98 145 120 95 107 151 136 109 137 179 126 
120 144 123 144 124 133 158 139 154 159 131 150 147 161 156 166 105 151 104 116 82 76 104 145 90 155 156 172 120 114 139 140 141 155 146 147 140 123 148 131 148 143 122 149 133 137 155 162 158 127 143 158 118 120 153 126 153 123 127 135 144 139 106 131 154 126 176 123 124 129 177 122 119 131 125 118 98 122 147 123 87 126 145 144 117 100 111 109 130 97 149 117 92 108 154 133 106 140 183 128 
122 143 123 144 124 130 162 136 160 157 134 144 149 159 161 168 108 152 100 111 83 77 99 146 95 155 157 167 123 108 137 137 146 150 144 147 145 119 146 128 148 144 126 147 131 137 159 160 158 125 145 162 122 119 149 122 151 126 128 135 142 143 107 130 160 130 177 118 118 128 178 123 115 129 126 119 97 120 144 120 85 128 147 146 117 101 110 107 130 89 147 117 93 104 160 131 101 142 191 128 
118 151 122 143 132 138 166 134 173 159 131 151 158 161 172 166 110 132 114 115 85 73 101 144 93 163 163 175 125 118 144 143 145 151 147 151 141 130 148 133 149 147 128 150 132 143 160 162 159 127 153 163 122 118 153 127 154 132 128 141 144 148 109 135 160 129 179 121 120 133 182 123 116 131 125 119 99 124 148 119 85 133 150 149 116 102 110 113 130 91 151 118 92 104 162 134 103 145 195 129 
110 161 121 143 144 152 163 138 177 168 123 166 162 168 176 162 108 114 132 124 86 67 111 140 88 169 166 188 129 130 157 153 148 161 150 157 135 144 147 140 149 152 128 156 133 151 158 163 159 126 160 161 119 118 161 136 163 136 129 147 151 151 112 134 155 125 185 126 123 143 194 120 120 135 123 118 101 133 160 114 90 139 147 151 109 105 112 124 135 98 148 121 89 106 155 140 106 147 184 133 
114 163 126 143 151 159 154 143 168 167 122 172 160 168 166 151 116 111 146 139 101 82 128 137 101 165 160 184 135 145 164 162 149 169 149 159 135 155 142 143 149 156 132 161 135 157 151 159 157 126 166 159 121 118 164 147 170 139 133 154 154 156 125 132 156 122 185 126 123 149 197 121 124 139 122 118 105 138 165 111 96 146 151 153 112 105 118 129 133 103 149 126 94 107 155 149 115 147 185 133 
145 151 149 150 151 160 137 153 129 154 139 171 146 159 125 134 141 141 163 171 148 145 168 140 141 146 139 160 137 180 160 173 137 180 143 155 140 170 142 147 153 159 139 167 148 161 135 158 153 139 166 156 129 128 165 169 176 144 144 164 157 166 155 135 156 125 173 132 132 154 185 131 141 150 131 126 120 147 164 122 113 156 163 153 137 111 141 134 122 124 158 145 118 122 158 164 145 145 190 130 
160 146 158 159 142 154 139 160 120 156 149 168 144 163 120 146 147 167 154 174 158 155 173 150 153 144 141 159 143 178 159 174 144 189 149 157 154 170 142 150 155 163 139 170 155 163 139 156 157 144 168 157 133 135 163 176 171 149 151 172 151 165 161 146 156 136 164 139 140 153 170 142 148 154 138 131 128 148 158 137 119 157 172 155 155 115 149 133 117 130 169 151 132 131 170 168 161 147 205 127 
163 156 161 165 147 160 154 160 145 164 152 176 164 169 142 156 148 163 157 174 149 140 172 156 150 157 153 175 157 174 174 182 160 197 157 170 159 178 145 158 159 171 147 177 156 172 148 162 169 144 177 164 141 137 175 182 183 153 155 179 162 168 163 148 167 136 180 144 147 161 187 144 153 157 139 133 129 152 169 140 120 159 177 164 158 114 154 134 123 133 177 152 134 134 177 175 165 154 214 132 
164 158 161 166 147 159 161 157 153 164 153 177 169 173 149 159 150 159 156 171 148 132 169 155 150 159 162 179 159 173 175 184 167 200 162 171 164 176 147 159 164 171 147 179 160 174 153 163 171 144 183 166 142 137 177 179 183 155 157 180 163 171 161 151 171 140 184 141 143 162 193 145 151 156 142 134 129 151 171 139 119 162 180 166 153 116 150 139 130 127 176 151 132 130 182 174 159 157 219 137 
166 148 159 163 135 147 159 149 146 156 155 166 162 168 141 161 148 161 147 165 151 133 161 153 153 153 157 171 151 170 166 180 160 198 160 164 164 170 139 153 159 167 140 175 158 170 149 155 161 140 182 161 131 132 162 174 172 159 156 178 149 173 157 152 162 146 170 136 131 158 182 142 141 152 138 130 124 151 162 129 113 165 177 162 146 116 140 140 123 116 166 149 126 121 180 167 150 156 221 131 
156 145 151 156 132 144 154 143 144 152 147 161 156 164 138 155 142 149 143 157 144 121 153 144 145 148 157 168 146 165 161 175 158 192 158 158 160 161 136 147 155 160 133 170 156 164 146 149 154 133 178 152 123 127 155 164 167 154 152 168 146 167 148 144 155 141 167 131 125 154 181 134 135 145 132 126 119 149 163 118 109 161 168 156 132 114 133 139 125 111 154 144 118 115 169 159 138 153 207 130 
151 152 149 157 138 150 157 146 152 159 143 169 161 170 146 156 140 144 146 158 136 110 153 143 138 153 165 178 149 165 167 179 164 196 163 161 160 161 141 149 159 161 133 173 160 167 150 153 159 134 181 152 123 128 161 164 173 152 154 167 154 166 145 143 158 139 176 135 130 156 191 133 138 146 133 126 118 150 172 118 109 161 168 158 129 114 134 141 132 115 156 143 116 117 167 161 138 156 203 136 
142 158 145 158 144 157 157 153 160 168 138 171 161 175 156 159 137 149 137 151 124 94 148 142 132 155 172 182 161 150 175 177 185 196 167 164 168 151 140 144 158 164 136 174 161 169 160 152 165 126 181 151 128 127 162 158 183 149 158 161 164 163 142 130 167 135 189 135 135 156 205 128 139 144 130 125 114 150 186 110 106 158 166 160 125 111 138 134 141 115 151 141 116 117 163 158 135 162 200 139 
136 157 141 153 146 157 148 151 158 164 131 169 159 168 154 148 136 140 139 150 122 93 151 136 131 151 167 177 165 144 175 172 185 189 161 161 161 149 135 144 153 159 138 167 154 165 153 146 162 123 174 144 134 127 164 155 179 142 153 156 165 152 142 125 164 127 185 133 138 154 198 126 141 141 129 124 118 143 181 115 114 150 160 155 126 112 140 132 142 121 149 137 121 121 155 157 138 154 183 140 
133 158 140 150 152 160 147 152 158 162 133 165 155 163 156 145 138 140 142 149 125 104 149 137 132 149 163 170 162 147 170 167 180 176 158 156 158 145 141 140 151 156 139 164 158 160 155 149 160 127 167 143 135 129 157 154 181 143 155 149 167 152 142 122 163 126 183 142 148 150 193 126 146 142 129 127 119 147 186 115 114 148 159 153 132 114 149 125 140 132 150 142 127 129 149 152 144 157 177 138 
134 159 140 149 153 158 154 149 169 160 136 159 158 160 165 150 141 135 143 144 128 105 142 140 136 153 165 167 164 146 169 165 181 169 159 155 160 145 141 138 149 156 140 164 159 160 159 148 156 128 169 142 133 131 146 152 178 153 158 148 161 157 141 125 160 133 177 147 148 151 190 127 144 142 129 130 121 155 187 111 115 154 157 154 131 121 150 129 142 134 145 146 129 130 147 148 143 163 176 139 
141 156 144 149 153 156 154 147 166 155 141 156 160 156 161 147 145 136 147 148 136 120 146 142 142 153 159 161 163 147 166 163 173 164 154 156 155 149 142 143 150 155 147 160 152 160 154 149 154 133 165 147 143 136 152 151 172 151 155 149 163 158 146 129 161 138 175 141 142 155 188 133 143 145 136 136 131 153 178 118 129 155 152 155 130 133 146 142 151 134 140 146 132 133 146 151 138 160 162 147 
144 153 146 145 156 155 145 147 152 148 142 155 154 149 147 136 149 133 156 154 146 142 154 141 146 148 149 151 153 152 157 155 154 154 145 153 142 152 146 150 153 151 155 151 142 156 145 150 150 142 154 152 155 144 163 146 159 141 146 148 163 153 151 135 160 139 168 132 135 156 176 140 142 148 146 144 145 144 156 135 149 151 146 152 131 146 140 157 161 136 139 143 136 137 144 154 133 148 140 158 
147 150 150 142 160 157 137 148 139 142 144 154 147 145 134 125 156 134 165 161 159 165 163 139 154 143 141 140 145 160 149 151 139 146 138 150 136 155 148 152 156 148 160 146 138 153 139 152 147 149 148 157 163 147 168 145 152 137 141 149 161 154 158 140 163 139 163 124 130 154 167 146 143 150 153 148 152 136 141 146 158 150 148 152 136 151 139 161 162 135 143 143 140 139 149 158 133 140 139 160 
147 153 151 141 168 163 137 150 138 142 146 158 145 144 130 120 159 131 174 169 166 176 167 138 157 141 138 137 139 178 148 157 132 145 138 146 133 157 156 148 160 149 159 152 147 153 139 161 145 152 151 157 155 145 164 149 165 142 145 145 167 164 160 134 164 135 171 130 134 155 179 140 145 152 149 147 145 146 158 134 148 156 151 152 133 147 145 157 159 139 142 150 135 139 143 158 134 147 143 159 
143 154 150 140 171 165 134 153 134 145 145 158 139 144 130 122 158 130 178 169 169 182 166 140 156 143 134 136 135 182 146 155 124 141 137 143 130 160 156 148 155 149 156 151 147 151 138 160 140 155 149 154 149 147 156 151 160 148 146 145 161 165 159 138 153 140 161 140 139 156 169 142 146 155 148 150 149 155 158 133 151 159 146 150 134 153 148 161 157 148 138 154 137 144 136 155 137 149 133 157 
144 150 149 140 165 160 133 153 130 143 146 154 138 141 127 123 154 140 170 165 163 182 163 143 153 142 129 132 133 173 142 149 121 137 132 143 128 156 156 146 153 147 156 148 141 147 136 161 142 155 142 157 153 147 158 149 158 142 142 143 160 160 157 137 155 137 160 136 138 151 165 142 145 154 148 149 147 148 151 139 149 152 145 148 138 149 147 153 153 145 141 150 137 144 138 154 137 144 135 154 
153 148 156 144 164 156 141 157 131 141 160 144 136 138 128 134 159 162 163 164 171 201 158 155 163 143 122 122 133 175 136 148 118 129 129 140 134 154 160 140 152 151 159 152 145 146 143 169 142 159 142 166 152 148 145 152 164 153 148 142 157 173 161 136 161 145 161 142 142 150 167 144 146 158 148 152 143 158 158 133 141 159 150 151 147 149 155 143 145 146 142 160 139 147 142 152 141 154 150 149 
160 148 160 149 162 153 149 159 134 142 169 141 138 141 133 144 162 175 158 161 173 208 153 164 166 148 125 121 130 172 131 144 115 127 131 142 140 152 166 142 158 153 164 152 145 145 149 175 147 166 141 177 159 153 147 150 159 156 148 146 155 177 162 146 168 155 161 140 140 149 163 153 144 160 156 157 147 155 148 144 142 159 156 156 155 153 153 144 147 140 150 161 142 148 155 153 140 155 165 151 
163 143 158 150 149 145 155 149 138 139 166 145 149 141 133 144 153 169 152 160 156 188 151 162 153 148 128 133 127 167 135 148 114 137 131 147 132 155 166 146 159 152 159 153 140 145 143 178 153 162 140 176 156 147 163 151 162 142 140 148 160 166 156 144 169 141 170 135 139 146 169 148 144 157 151 150 140 143 144 150 135 148 156 154 153 139 148 136 141 135 159 150 134 143 158 156 139 147 169 147 
159 137 153 146 141 138 152 142 132 134 162 141 145 136 128 140 146 165 146 155 147 180 145 157 144 143 124 131 117 164 128 144 105 132 127 142 126 150 165 142 155 145 151 148 138 137 137 176 151 159 132 169 148 142 160 148 157 133 134 142 155 157 148 142 162 132 164 136 141 137 159 143 144 151 146 143 132 135 138 152 125 138 154 147 154 128 146 124 130 135 163 145 130 141 155 151 141 139 169 137 
150 135 145 141 137 133 151 138 135 133 156 135 140 134 133 144 139 157 138 142 138 167 133 153 135 142 127 131 113 153 121 134 104 124 128 136 126 141 161 137 148 139 142 141 138 130 139 168 146 156 128 162 140 139 147 141 144 134 131 138 141 148 138 147 151 135 149 140 142 130 140 143 140 144 143 141 130 132 129 153 121 133 150 141 154 127 142 119 124 134 162 141 131 141 153 140 140 136 168 131 
132 139 134 136 140 136 148 137 143 139 143 136 139 135 145 144 129 142 135 131 123 144 122 148 121 146 130 137 115 139 124 129 109 118 127 136 123 137 155 134 140 137 138 136 131 128 141 161 144 148 126 156 135 135 141 135 139 132 126 134 136 141 129 143 144 131 146 140 142 127 136 138 135 139 136 136 125 129 128 148 117 128 143 137 148 124 137 115 122 132 156 134 127 137 147 134 135 134 160 127 
127 139 129 135 135 133 148 135 146 141 139 134 140 136 149 149 121 139 128 123 114 132 114 148 114 150 131 140 116 126 124 124 111 117 126 137 122 135 149 134 136 136 136 132 122 127 141 156 142 143 124 157 135 133 141 129 132 131 121 134 132 137 123 143 141 133 142 134 134 128 135 137 128 137 135 135 126 127 121 146 119 126 135 137 141 127 127 120 126 124 149 128 122 132 145 131 126 132 152 129 
119 140 124 131 138 132 149 134 151 141 136 128 137 134 157 152 118 135 123 113 108 128 103 149 108 153 131 136 112 115 118 113 108 104 123 134 120 127 149 131 133 133 138 124 115 122 145 154 139 143 119 160 138 134 135 119 123 131 117 129 126 135 117 145 140 138 137 130 129 124 127 139 122 134 137 137 127 123 112 148 122 123 130 136 138 133 121 121 130 120 143 125 120 131 144 124 116 130 145 131 
98 149 113 123 152 142 141 140 156 148 124 129 128 135 166 147 113 119 127 103 101 121 94 143 98 155 133 135 110 107 115 103 107 88 120 130 117 120 149 126 129 130 137 117 112 117 150 151 137 141 114 159 139 132 127 112 116 130 113 124 120 131 112 145 138 136 133 131 131 119 118 138 120 129 136 136 125 118 107 148 117 118 128 133 139 132 120 114 127 119 144 122 121 130 142 115 115 129 144 127 
93 153 110 121 158 146 140 139 161 149 121 132 130 135 171 143 113 108 134 102 98 118 93 140 94 158 137 138 107 108 114 101 103 82 120 130 114 120 153 128 131 128 139 113 113 116 151 153 139 144 113 161 143 133 131 111 112 127 109 124 120 127 111 151 139 133 132 132 135 117 112 141 122 128 139 137 127 112 100 158 118 114 131 132 144 132 121 112 127 121 152 120 124 133 147 115 118 125 147 128 
100 152 114 121 157 144 146 134 165 144 127 131 135 132 172 143 118 105 138 105 103 125 95 141 98 158 138 137 104 116 112 104 98 81 121 130 113 124 158 130 134 128 141 115 117 116 150 157 140 148 114 162 143 134 133 113 114 129 111 125 122 130 113 154 141 133 133 135 137 116 112 143 125 129 141 138 128 113 101 161 118 116 135 133 147 132 124 112 125 123 158 122 126 135 150 116 121 126 152 128 
99 149 113 119 155 143 142 132 158 142 125 134 133 132 163 136 116 102 140 108 102 126 97 136 94 154 137 137 96 120 109 104 91 83 119 129 107 123 159 132 138 125 139 113 115 115 145 159 139 149 112 162 142 132 140 110 113 121 106 123 125 128 111 152 142 129 137 127 130 116 117 141 122 128 142 136 126 107 96 161 117 113 134 132 139 130 116 116 129 117 156 117 119 130 149 118 112 121 148 131 
98 143 110 116 150 138 138 127 149 136 122 132 128 129 151 128 113 100 136 110 100 124 97 130 91 146 130 132 90 123 107 106 86 85 115 124 100 119 157 126 137 121 134 114 113 112 138 159 133 143 110 156 132 127 138 105 117 116 104 115 128 129 106 139 138 122 142 120 121 116 128 130 116 126 135 131 119 109 105 144 112 114 125 128 122 127 110 118 133 112 141 114 106 122 135 116 100 120 133 133 
97 128 105 107 134 123 129 113 136 120 116 117 120 116 135 118 108 95 123 103 99 118 91 120 92 132 117 117 86 117 99 102 82 82 105 113 95 111 140 114 126 113 124 108 104 106 126 145 120 129 106 144 120 114 124 97 112 110 99 107 119 127 101 123 130 115 133 104 103 109 128 116 102 116 122 119 107 104 101 121 100 111 116 120 106 116 98 111 123 95 122 107 93 106 124 108 85 114 126 122 
96 119 103 105 124 119 114 113 116 116 108 117 111 112 117 107 100 100 117 107 94 115 98 115 88 122 104 112 85 114 100 102 79 91 96 112 90 113 127 109 118 111 117 107 96 105 113 137 118 119 102 138 116 104 127 104 114 99 92 109 115 118 103 113 127 99 130 96 100 104 123 109 101 111 111 107 97 93 96 118 90 101 116 114 110 96 98 95 103 90 127 100 89 99 124 110 93 103 134 106 
114 116 113 111 120 114 128 105 129 108 121 115 130 105 123 109 109 104 121 116 101 125 105 123 100 125 102 112 95 121 108 111 83 95 94 119 89 126 130 115 120 117 126 114 96 111 110 144 125 122 105 145 126 107 138 114 127 101 96 116 125 123 113 112 138 95 141 99 107 109 134 111 109 116 112 109 100 96 102 122 93 103 122 120 121 94 109 91 100 96 136 105 96 106 130 120 106 106 143 106 
106 124 111 114 127 125 123 118 123 121 116 126 124 116 123 114 103 109 125 118 97 123 108 126 92 131 102 121 92 123 111 112 81 101 95 123 89 130 132 117 121 122 125 117 94 114 114 148 129 124 107 151 124 108 142 119 129 103 95 121 126 125 112 116 137 96 144 101 109 112 137 113 109 120 112 109 99 99 103 125 91 105 123 122 122 92 108 92 99 96 140 106 92 105 133 123 107 107 148 106 
112 121 112 115 120 118 135 107 135 116 120 124 138 111 131 117 100 103 123 117 88 116 103 130 87 135 101 126 92 120 113 113 78 98 94 126 80 134 136 121 120 120 126 117 90 112 111 154 131 125 102 150 125 109 149 118 132 98 91 118 131 119 108 115 135 91 148 106 114 112 141 111 112 121 111 110 100 100 106 129 95 100 117 121 121 93 109 93 103 103 141 103 91 111 127 124 107 106 135 109 
96 128 106 110 132 129 125 115 133 122 110 129 130 112 132 110 95 96 129 117 84 116 103 127 80 137 96 124 92 121 116 111 76 92 88 125 75 135 134 116 114 121 125 117 85 112 111 154 128 121 100 151 123 105 145 119 137 100 89 115 133 122 107 106 134 85 151 105 114 113 147 105 110 121 105 107 95 103 113 118 90 101 113 120 117 89 110 87 100 103 136 104 86 108 119 122 105 107 130 106 
104 120 108 106 128 121 127 105 134 109 116 118 131 102 128 103 103 93 128 117 93 125 102 123 91 129 93 112 92 125 110 110 74 86 85 119 74 131 133 112 115 117 127 115 88 109 107 151 123 120 99 146 123 104 138 115 137 101 92 109 133 125 110 100 136 85 150 102 110 111 148 102 108 119 104 107 95 104 115 110 89 103 112 118 113 91 111 88 101 102 129 105 87 106 115 119 101 109 127 106 
100 120 108 107 129 124 118 115 122 115 113 118 120 106 120 105 102 105 123 115 97 127 104 123 94 126 91 108 94 120 109 107 80 88 87 116 82 124 128 109 113 117 125 114 89 109 109 145 120 118 99 143 122 105 131 113 133 103 95 108 129 125 110 99 132 91 143 101 108 111 143 103 106 119 105 108 97 107 115 107 93 105 110 117 111 96 110 92 104 101 121 107 89 106 112 117 99 110 121 108 
109 111 109 105 118 111 123 102 122 102 119 107 122 97 117 104 105 104 118 112 101 132 100 122 98 120 89 101 90 119 101 104 73 83 86 111 79 121 127 107 112 112 123 110 89 104 105 142 114 119 96 138 119 106 126 108 125 102 94 104 124 123 108 101 128 94 135 99 103 108 135 103 104 116 106 109 99 106 108 107 96 105 106 114 108 100 107 95 105 100 116 106 90 106 109 113 95 108 114 108 
96 110 102 97 123 113 108 108 107 102 111 103 103 93 107 95 101 103 117 107 99 139 96 116 93 113 81 89 79 115 89 92 62 67 79 101 74 109 127 100 107 104 119 100 86 94 102 138 107 119 83 133 117 105 115 100 115 96 89 94 117 115 103 98 120 91 124 99 105 99 119 102 102 112 105 109 98 100 99 109 95 97 100 106 109 101 107 88 102 103 113 104 91 107 101 104 94 101 102 105 
90 105 96 90 121 109 102 101 104 94 105 97 98 85 103 85 99 92 116 102 96 135 93 107 89 105 79 83 74 112 83 85 57 57 76 93 68 100 127 95 104 95 114 92 87 86 97 132 102 117 75 122 113 103 110 92 109 88 85 84 114 105 98 93 113 84 117 100 108 92 108 98 103 105 103 106 96 93 96 110 94 88 95 98 107 98 107 82 99 108 111 100 93 109 92 97 95 96 90 102 
89 100 95 86 118 106 94 97 95 88 102 94 92 80 93 76 99 89 115 103 98 138 95 100 90 97 73 76 72 114 79 83 53 55 72 87 64 97 123 92 100 90 110 88 86 82 90 127 96 114 71 114 110 100 106 90 107 84 83 78 113 101 97 87 109 78 113 98 106 89 105 93 102 102 99 103 95 91 95 105 94 86 91 93 103 96 106 81 98 109 105 98 92 108 84 95 93 92 79 100 
84 96 91 82 115 104 84 99 82 86 96 92 82 78 82 71 95 88 113 101 99 138 96 96 88 92 67 71 67 111 75 79 48 54 67 83 61 95 116 90 96 87 106 83 80 79 85 119 91 111 67 111 106 98 102 88 97 81 78 78 105 96 96 87 101 78 103 92 99 86 94 93 97 100 98 100 95 87 85 105 95 83 87 89 101 95 100 82 93 104 100 95 90 104 82 92 91 85 75 96 
92 89 92 82 103 92 93 86 91 78 100 84 91 72 89 76 94 84 106 95 95 132 88 98 88 92 69 71 67 103 72 76 47 51 68 84 60 95 113 91 92 84 104 80 78 76 82 115 90 110 65 108 106 98 101 86 89 79 75 79 98 90 93 93 98 79 94 93 100 83 82 96 97 96 98 100 97 82 74 112 96 78 86 87 106 95 99 80 88 104 104 91 94 105 86 90 94 81 76 92 
90 93 91 85 103 91 104 87 107 82 104 79 97 73 107 91 92 88 100 85 89 125 76 107 86 102 73 74 74 91 74 71 54 44 69 87 65 94 113 90 88 87 107 79 74 77 92 116 92 110 66 113 109 100 93 84 88 89 78 81 94 93 90 97 98 89 92 98 102 84 80 99 95 97 98 104 98 89 76 112 97 81 84 90 109 101 100 80 90 104 102 94 97 108 88 85 93 88 79 93 
93 95 93 85 106 95 101 86 107 81 102 83 100 74 104 84 98 80 107 92 98 125 86 101 94 99 77 75 82 99 81 80 64 55 74 89 70 99 107 93 91 89 109 83 80 84 90 110 91 106 75 108 110 99 95 89 92 92 83 85 97 97 97 94 100 88 94 95 99 89 88 98 96 97 98 102 100 91 82 105 100 87 88 93 105 102 101 87 93 103 99 96 99 105 89 90 94 90 81 95 
89 99 94 86 112 103 94 92 106 86 96 90 100 78 104 79 100 77 112 98 99 119 96 97 97 97 78 79 95 101 93 87 79 65 76 92 75 103 101 92 88 93 109 88 83 90 89 104 93 100 82 102 110 96 97 97 103 94 88 88 103 96 102 86 102 81 100 98 105 94 97 93 101 98 93 98 98 96 96 97 99 90 90 94 106 96 109 84 91 109 98 98 102 105 86 95 104 94 82 92 
90 97 94 86 110 101 93 92 104 85 97 86 97 76 102 80 101 82 109 97 101 121 96 97 100 95 77 76 97 99 92 86 81 64 77 90 77 100 99 90 85 92 107 87 85 89 89 101 91 99 80 98 108 97 91 96 102 95 91 86 102 95 102 84 98 83 95 102 108 93 92 93 103 97 92 99 100 99 98 96 101 90 88 92 107 99 112 83 91 114 95 101 106 109 82 92 107 95 77 92 
87 100 94 86 115 106 90 96 102 89 95 90 94 80 102 79 102 80 113 98 104 121 98 95 100 95 81 78 96 102 92 86 82 65 80 90 79 99 101 91 88 92 107 87 89 89 91 100 90 101 82 97 108 99 90 96 100 97 92 86 101 95 102 88 97 86 94 104 109 93 89 95 104 98 95 101 102 99 98 98 103 92 90 92 107 102 112 87 93 115 96 102 108 110 83 92 107 96 77 94 
90 99 95 86 114 105 91 94 101 87 96 92 94 80 98 77 104 78 116 102 106 123 101 93 101 93 82 79 94 109 92 90 80 68 82 89 79 100 104 92 91 91 105 90 94 90 90 102 91 103 84 95 105 98 92 98 102 96 94 86 103 96 103 88 97 84 96 105 111 93 92 94 106 98 95 100 101 100 101 98 101 92 92 92 107 100 113 87 93 116 99 103 107 110 83 94 108 96 79 94 
98 94 98 87 107 99 94 87 99 81 100 90 97 78 93 75 106 78 116 105 109 124 103 92 104 89 83 79 90 115 90 94 77 74 84 88 78 101 105 93 94 89 103 92 97 89 86 103 90 103 85 92 101 97 94 98 103 94 94 86 104 97 103 88 95 83 96 105 109 93 93 93 106 97 95 99 100 100 102 97 100 93 93 91 103 98 112 89 93 116 99 103 105 108 82 95 107 95 79 95 
98 94 98 86 108 100 93 87 97 80 100 90 96 78 90 73 108 77 118 106 112 128 104 90 106 88 82 77 88 119 88 95 75 73 83 87 78 102 106 92 95 89 103 92 99 90 85 104 89 104 87 93 99 96 93 98 103 95 94 86 104 100 104 88 96 84 96 103 106 93 95 92 104 97 95 99 98 100 102 94 98 95 95 91 102 98 110 90 92 113 98 103 103 106 84 95 105 95 82 95 
99 95 99 86 110 101 91 89 93 80 101 92 93 81 86 72 109 77 120 108 116 131 105 89 107 87 84 77 84 124 86 96 71 75 85 86 79 101 108 92 99 90 102 93 101 90 86 106 88 106 89 95 98 96 94 97 102 96 95 87 104 104 104 90 98 86 98 99 101 93 98 93 102 98 97 99 98 99 101 92 97 98 97 92 98 99 107 94 94 107 97 103 99 102 86 96 100 96 86 97 
101 95 100 87 110 101 91 89 91 80 102 93 92 83 83 72 112 78 121 110 120 133 107 88 110 86 86 76 83 127 85 98 72 78 88 85 81 99 109 93 103 89 103 94 104 92 88 106 87 107 92 95 97 98 94 95 102 97 97 86 105 107 105 90 99 90 99 96 96 96 102 93 100 98 100 101 100 101 103 90 100 102 97 94 91 104 103 102 102 104 92 104 97 100 85 96 93 98 82 103 
102 94 101 88 108 99 92 88 90 80 103 93 92 84 82 74 112 79 121 110 121 132 107 88 110 86 88 79 82 127 85 98 72 80 91 85 81 98 110 96 104 88 101 94 106 91 88 105 86 109 92 92 96 101 94 93 98 97 98 85 104 105 103 94 94 94 96 99 96 97 99 95 100 99 102 104 104 103 102 92 106 103 94 93 88 110 101 110 108 108 88 105 98 103 82 96 91 98 73 108 
104 92 102 88 107 98 91 89 86 79 104 91 91 82 79 73 112 83 119 111 122 137 108 89 112 85 84 75 81 124 83 96 69 78 87 85 80 99 109 97 104 88 104 92 101 91 86 105 85 110 89 95 101 102 97 92 95 95 95 86 104 104 105 94 96 95 95 94 93 98 98 97 99 100 104 105 106 100 96 95 110 102 92 93 89 112 99 112 110 105 87 103 98 102 83 97 89 95 70 109 
106 93 103 89 108 98 92 90 88 80 105 91 93 83 81 75 113 84 119 110 123 140 108 92 113 88 84 75 82 122 83 94 68 77 86 88 79 101 109 100 105 90 109 90 95 92 86 106 86 111 88 101 107 104 102 90 92 94 93 89 104 106 107 97 100 99 96 89 88 100 98 100 96 102 108 108 110 98 89 100 115 103 91 96 88 117 95 118 114 101 87 102 98 101 87 99 85 93 70 113 
104 97 103 90 111 101 94 93 92 83 106 93 94 85 86 78 113 86 118 108 120 138 106 94 111 91 88 78 83 118 84 92 72 75 87 90 82 99 112 101 108 91 112 90 96 93 91 108 90 113 88 105 112 107 105 89 92 93 93 89 106 105 106 100 104 100 99 89 90 99 98 103 98 102 111 110 112 95 87 106 117 101 94 97 92 118 96 116 117 101 91 101 100 103 91 99 85 94 73 116 
102 98 102 89 115 102 93 95 93 84 105 92 92 86 87 77 115 86 117 106 120 138 104 92 111 91 92 76 83 115 81 89 73 71 89 89 84 93 115 100 112 89 114 87 98 91 95 109 91 115 87 107 116 108 106 83 89 91 93 86 107 104 105 100 108 102 101 87 89 98 98 105 97 101 115 113 114 91 85 109 119 100 95 98 91 121 94 118 123 99 91 100 101 103 93 97 82 93 73 120 
101 98 101 88 115 101 94 95 93 84 106 89 91 85 88 77 115 88 114 103 119 139 101 93 110 91 92 74 81 110 78 85 72 67 88 87 83 89 117 100 112 88 116 85 96 89 96 110 90 115 84 108 119 110 105 79 87 90 92 83 108 103 103 100 109 104 101 84 87 97 98 106 95 101 117 114 115 89 82 109 121 99 92 98 89 124 92 120 128 98 88 99 101 103 91 95 76 93 67 123 
102 97 101 90 111 99 95 95 92 85 107 90 92 87 87 81 112 93 112 103 115 138 100 95 107 92 90 77 80 109 78 85 70 69 88 88 82 89 118 101 112 88 114 86 95 88 95 112 91 116 82 108 116 112 107 79 87 89 92 81 109 101 101 100 106 105 102 88 89 98 99 105 96 103 117 116 116 92 85 110 123 98 88 97 87 126 91 122 130 101 86 99 99 105 87 96 76 93 59 125 
104 96 102 91 109 98 96 94 90 85 107 93 93 88 85 81 110 95 111 105 113 136 102 95 105 91 91 80 78 111 79 87 69 72 89 88 80 89 121 102 113 88 112 87 96 88 94 115 93 117 81 107 115 112 111 80 90 85 91 81 112 99 99 99 106 102 104 89 92 98 101 104 98 103 116 115 115 91 87 112 122 96 88 96 87 123 92 120 130 104 89 98 98 107 86 97 77 92 58 126 
103 95 102 91 108 99 93 94 87 85 105 94 93 87 81 78 109 94 111 107 111 134 105 94 104 89 87 80 80 113 82 90 71 76 87 89 78 92 118 101 111 88 110 89 95 89 91 114 92 113 81 104 112 108 111 83 96 84 91 80 115 99 100 93 105 96 107 89 92 98 106 99 99 103 111 111 111 93 93 106 118 96 87 95 85 118 94 116 127 105 87 98 95 105 82 98 79 92 57 122 
102 94 101 89 109 100 91 95 86 84 105 91 90 84 80 76 110 94 112 108 116 138 105 94 108 88 83 75 82 114 83 90 71 74 84 88 79 94 112 97 106 90 110 90 93 90 90 110 89 110 83 104 110 106 104 85 97 89 93 82 111 104 103 90 104 97 105 87 89 99 107 97 96 103 108 109 108 97 95 97 115 100 87 96 85 116 95 114 121 102 83 100 95 102 81 98 80 95 61 118 
97 95 99 88 111 101 89 98 87 85 102 88 85 84 84 79 109 95 108 102 115 135 101 94 109 88 83 71 86 109 82 88 77 71 85 85 84 89 108 91 102 90 108 89 95 90 93 105 86 106 85 102 107 103 93 84 96 95 95 81 105 106 102 88 103 99 100 89 89 97 103 96 94 100 104 107 105 100 97 91 110 101 88 95 86 115 96 109 117 100 80 102 96 100 81 93 80 98 67 113 
97 94 98 89 106 97 92 96 90 86 103 85 86 85 86 84 107 98 102 98 111 128 96 95 107 88 85 73 87 105 82 88 81 73 87 85 88 86 106 89 101 90 105 91 97 89 95 104 86 104 86 99 102 101 88 84 97 97 97 80 103 106 99 86 101 101 99 91 90 96 104 94 92 99 101 105 101 102 101 85 105 102 87 94 84 113 96 106 114 98 77 102 94 98 80 90 79 101 69 110 
101 92 99 91 102 94 95 94 89 85 105 86 89 86 85 86 106 101 100 99 110 125 96 96 107 88 85 75 86 107 83 91 81 78 88 86 88 88 106 89 101 91 103 93 97 90 94 106 87 103 88 99 99 100 90 85 100 96 98 81 104 107 98 85 101 99 102 91 89 96 108 92 92 99 100 103 98 103 104 83 101 102 88 95 83 109 95 105 112 97 78 102 91 97 81 92 79 101 73 109 
99 92 98 91 100 94 96 93 91 86 104 88 91 87 86 86 103 101 98 99 104 118 96 95 102 89 87 80 86 106 85 93 83 81 89 87 87 87 107 89 101 91 101 95 98 90 94 107 90 101 88 98 97 98 93 86 103 94 97 80 107 104 96 83 101 95 106 93 92 95 111 90 94 98 97 101 95 102 108 83 98 100 88 94 82 104 96 101 111 98 81 100 89 97 80 92 81 101 74 107 
99 95 99 94 102 98 98 96 94 91 103 93 94 92 90 90 102 100 100 101 104 113 98 97 102 92 90 86 90 108 91 98 88 88 93 91 90 92 106 91 101 94 100 99 101 94 96 107 92 100 93 98 94 98 94 92 107 98 100 85 108 106 97 84 100 95 108 97 95 98 115 90 95 100 96 100 94 106 113 81 96 103 91 97 84 102 98 101 109 99 83 102 89 97 82 95 85 104 80 106 
88 105 96 94 115 111 93 108 93 103 98 100 89 98 94 92 99 98 108 102 104 117 98 100 98 101 88 89 89 110 93 96 84 85 90 94 90 98 106 92 100 100 103 100 95 98 101 110 94 102 96 109 97 97 93 95 107 104 98 92 104 114 100 89 104 99 108 94 91 101 115 93 92 103 96 100 93 108 109 81 93 107 95 101 87 102 97 100 104 93 87 104 86 94 89 97 84 105 92 103 
89 101 96 91 112 106 91 106 88 97 99 93 85 93 90 90 100 101 104 99 107 125 95 101 101 98 82 80 84 107 86 91 76 78 83 91 89 96 102 88 98 99 104 96 90 94 98 108 91 102 93 112 99 95 89 94 101 103 94 93 97 115 101 91 105 99 103 88 85 97 107 94 88 101 96 99 91 101 97 84 89 104 97 100 92 99 94 94 96 86 89 102 86 90 95 95 83 101 102 97 
90 94 94 86 109 99 87 100 84 87 99 85 81 85 83 81 102 99 99 95 107 128 91 96 102 89 78 68 79 104 77 85 70 69 76 85 87 89 100 82 99 94 105 89 87 89 94 107 90 99 89 114 103 89 89 87 97 94 89 89 94 113 101 86 113 92 103 74 77 88 103 92 83 94 95 93 85 86 85 84 79 97 102 97 94 89 91 82 87 73 94 96 84 82 103 92 79 94 116 89 
80 93 87 80 110 98 85 97 86 85 95 79 74 82 85 79 98 93 95 86 101 121 80 91 97 86 77 62 73 102 71 81 69 60 74 77 87 79 99 70 94 90 97 88 91 83 97 105 85 94 88 109 91 81 73 83 98 97 89 81 88 115 94 79 110 89 101 77 77 80 103 84 78 88 87 86 72 88 92 69 61 96 102 93 90 79 91 67 76 68 90 96 77 76 98 82 75 98 124 79 
77 95 85 79 111 97 90 97 89 87 98 76 72 82 90 85 96 96 92 81 98 123 72 95 93 89 78 62 67 100 65 75 62 51 76 73 84 73 107 69 95 86 96 86 93 78 101 110 82 99 83 108 87 86 66 75 94 100 90 73 87 115 87 82 104 96 97 84 81 79 99 85 78 90 90 93 75 95 95 70 66 97 95 91 85 90 90 73 86 75 83 98 76 81 89 76 69 102 107 86 
76 92 83 80 105 92 90 95 85 87 96 77 69 83 88 88 91 97 88 78 91 117 69 94 84 88 80 67 60 96 61 71 57 50 79 71 80 67 112 73 95 81 90 82 94 72 100 110 81 103 75 102 82 90 67 70 86 94 87 67 86 104 79 86 93 97 91 92 87 77 89 87 81 90 92 96 80 94 92 79 73 92 87 86 82 96 87 79 93 85 81 95 77 88 80 72 68 98 87 92 
73 88 78 78 96 87 88 90 82 86 91 78 68 84 84 88 83 93 82 74 81 103 65 89 74 86 81 72 55 91 59 70 55 54 81 69 76 63 111 73 93 76 82 80 92 68 96 107 80 99 71 94 75 88 70 66 82 86 82 63 85 95 70 84 85 92 89 91 85 74 87 82 78 86 89 92 76 90 90 78 71 85 80 81 74 92 81 79 94 83 78 89 71 86 74 69 63 92 76 91 
