P2
100 10
255
4 -24 23 -27 -2 -59 -14 -38 -96 -15 
-0 -6 -4 -6 2 -66 -39 -26 -126 -9 
3 25 -29 -44 -34 -65 -17 -17 -65 -2 
-12 37 -39 -90 -32 -54 20 24 0 12 
-30 27 -21 -66 -15 -54 44 4 -15 -9 
-39 14 -18 -59 1 -46 66 -11 -31 -41 
-45 29 -38 -63 -2 -32 91 -1 -32 -50 
-51 49 -49 -78 -7 -1 78 6 -11 -59 
-49 44 -42 -74 10 10 66 -0 -4 -46 
-32 41 -33 -54 17 3 83 -14 4 -20 
-26 36 -42 -67 -5 -5 76 -30 6 -19 
-24 36 -40 -70 -13 -14 65 -29 13 -14 
-28 44 -31 -67 -5 -9 52 -21 11 -14 
-38 20 -9 -24 6 -2 39 -38 -20 -36 
-38 8 10 33 47 -33 0 -39 -42 -50 
-25 16 11 56 76 -42 -42 -33 -39 -20 
-11 12 1 44 111 -47 -67 -13 -41 40 
8 44 -16 -32 76 -31 -46 30 -71 39 
25 69 -53 -85 39 -26 -0 80 -58 47 
38 103 -57 -116 26 -25 -1 95 -33 75 
27 95 -45 -127 24 -34 -12 101 -36 92 
27 76 -62 -129 31 -26 8 125 -30 90 
36 74 -78 -119 50 -28 54 145 -20 70 
31 60 -70 -84 62 -29 64 149 -41 40 
23 27 -39 17 66 -18 17 86 -105 -26 
33 30 -15 22 27 -5 -18 67 -122 -32 
23 43 -37 -2 16 -20 -6 104 -108 -24 
16 42 -36 -30 20 -23 2 111 -109 -16 
29 20 -17 -41 12 -28 -3 97 -131 -8 
25 22 -18 -52 17 -31 22 92 -123 -3 
22 41 -33 -62 23 -30 44 102 -110 1 
3 81 -29 -71 16 -49 70 119 -94 23 
-13 81 -27 -54 13 -43 71 115 -67 4 
-19 80 -36 -25 8 -34 70 95 -58 21 
-19 56 -31 -29 -4 -38 79 86 -51 41 
-22 33 -21 -28 15 -47 61 64 -32 21 
-25 8 -6 -14 52 -32 27 27 2 -16 
-29 -14 8 7 80 -14 -7 8 3 -37 
-31 -15 -13 33 100 -18 13 2 -25 -22 
-9 -30 -11 51 93 -9 24 -16 -16 -19 
-9 -17 -11 51 88 -11 -3 -17 -11 -18 
-2 -24 -6 70 75 -28 -26 -34 -38 21 
4 -28 5 51 74 -21 -64 -39 -38 36 
1 -4 -32 24 71 -24 -76 -10 -40 16 
5 6 -50 26 59 -8 -86 -9 -43 16 
15 1 -44 14 30 16 -83 -11 -28 33 
21 11 -46 1 19 20 -56 14 0 46 
30 11 -36 -25 18 10 -51 22 22 48 
32 4 -23 -39 20 14 -57 16 51 68 
30 6 -18 -31 22 42 -46 34 78 94 
25 3 -26 -32 25 68 -53 42 95 94 
19 -9 -40 -30 25 72 -63 37 86 95 
17 -5 -44 -38 53 73 -65 34 82 78 
15 0 -52 -39 77 47 -41 21 68 71 
8 -11 -40 -40 79 17 -33 18 38 67 
12 12 -42 -14 72 17 -51 43 9 38 
-9 2 -67 -3 61 -7 -75 52 -2 28 
18 19 -65 1 74 3 -69 68 -0 29 
13 18 -99 -10 65 -11 -71 62 23 23 
18 26 -100 13 83 -15 -48 78 30 36 
-5 5 -98 20 85 -28 -49 57 15 38 
5 14 -65 25 81 -29 -40 43 14 37 
-2 -10 -65 16 72 -33 -51 16 13 34 
2 -5 -51 43 79 -7 -57 -7 28 41 
-12 -5 -59 53 70 11 -52 -22 40 38 
-20 -7 -56 68 74 9 -46 -35 36 25 
-8 -12 -38 74 77 18 -51 -38 35 12 
-11 -28 -47 55 47 22 -72 -41 44 10 
-3 -34 -41 39 23 11 -71 -34 66 42 
-17 -42 -32 41 28 5 -48 -24 48 23 
-27 -25 -31 62 20 -3 -18 -1 37 11 
-27 -25 -25 70 6 -4 -14 -16 38 13 
-25 -26 -18 70 10 9 -7 -19 40 12 
-28 -25 -27 72 13 13 -4 -21 28 6 
-30 -31 -37 65 15 9 -5 -32 12 -5 
-31 -37 -34 67 24 10 -4 -32 1 -4 
-29 -40 -29 60 41 12 -4 -34 -9 -3 
-31 -44 -20 50 54 7 6 -46 -13 -6 
-25 -48 -16 43 51 9 12 -62 -4 -13 
-25 -51 -8 43 59 4 -2 -67 2 -21 
-24 -58 1 33 70 -0 -14 -65 13 -24 
-28 -49 3 26 69 7 -22 -60 24 -16 
-38 -45 11 18 76 13 -25 -65 33 -10 
-40 -45 17 11 82 10 -29 -75 44 -5 
-30 -39 11 9 80 3 -25 -85 50 -8 
-30 -29 -0 9 80 5 -26 -87 48 -14 
-31 -21 -8 19 81 -6 -16 -79 38 -20 
-28 -31 2 32 79 -15 -12 -72 25 -14 
-27 -32 14 35 65 -14 -3 -66 19 6 
-23 -26 12 27 51 -21 4 -64 12 16 
-20 -21 5 21 49 -28 3 -60 1 15 
-20 -8 -8 18 46 -29 8 -52 -1 14 
-13 -4 -12 17 38 -30 20 -38 -8 14 
7 -7 0 25 57 -19 17 -10 -4 29 
7 -19 11 30 58 -14 -14 -9 -14 35 
-15 -20 15 30 68 -5 -48 1 -32 40 
-16 -16 7 35 59 -3 -31 10 -51 77 
-5 -20 4 29 60 -2 -21 -24 -26 96 
7 -10 -5 19 50 11 -15 -56 1 85 
14 4 -16 2 47 13 -4 -58 8 72 
