P2
50 50
255
187 139 127 107 134 122 52 115 122 136 135 123 114 111 117 78 143 165 166 147 155 141 106 99 104 104 93 85 150 195 170 136 128 154 128 120 123 88 81 72 81 115 119 104 106 90 86 102 101 107 
184 127 85 138 108 115 92 97 69 77 55 67 82 38 77 102 153 166 177 162 152 128 106 66 98 82 90 78 150 174 156 116 112 149 120 130 89 83 94 71 60 94 146 100 107 87 69 107 91 104 
171 106 71 126 73 59 49 59 12 38 48 39 82 28 89 149 159 160 183 164 164 129 111 62 107 102 88 78 147 169 159 111 109 143 110 122 71 101 98 69 80 68 120 131 116 85 58 105 77 94 
153 70 85 106 45 39 37 61 17 34 62 41 91 82 141 176 165 158 176 165 163 134 112 75 120 124 94 82 141 168 166 121 115 152 105 139 118 109 72 59 91 68 75 124 147 107 54 97 62 89 
142 118 132 111 44 44 42 72 28 36 66 43 107 106 143 169 170 159 167 171 149 137 113 78 113 121 113 86 140 162 161 129 131 146 95 165 167 161 103 68 74 56 57 119 152 153 78 96 62 84 
92 101 88 106 51 55 56 75 33 38 59 51 118 110 132 144 171 161 166 166 150 139 112 81 114 126 118 87 138 161 133 134 149 135 101 185 180 187 155 99 48 27 59 109 125 168 108 92 66 80 
41 53 68 100 44 56 59 62 44 73 92 68 106 108 116 110 165 158 163 151 146 127 111 74 105 118 111 94 136 165 113 131 161 137 127 192 175 185 145 88 47 20 59 99 114 158 110 110 86 93 
41 51 85 108 53 62 53 61 71 156 164 122 122 114 138 82 129 130 156 129 133 133 148 102 140 130 175 159 182 161 132 143 153 157 138 170 165 169 149 94 69 39 51 105 98 146 109 117 120 89 
46 49 86 124 64 91 64 109 120 172 136 111 134 129 140 82 107 128 181 161 142 148 204 139 185 129 204 160 191 156 139 147 137 182 142 146 128 111 118 83 84 67 47 103 84 122 91 123 153 98 
50 60 84 127 81 140 119 139 122 150 44 87 142 135 105 95 151 189 224 193 165 154 214 144 188 132 199 159 193 156 140 148 126 199 166 164 99 74 105 69 75 80 57 88 74 72 81 117 167 118 
51 79 77 118 98 181 145 127 90 73 20 112 159 142 100 136 157 180 223 196 179 167 222 151 187 141 202 164 195 163 147 159 128 180 174 171 85 98 114 60 67 91 72 80 76 58 91 100 171 116 
52 93 74 119 117 186 130 84 71 90 60 125 144 161 160 198 170 191 213 204 203 182 223 171 192 165 198 177 197 173 176 165 130 159 163 153 78 110 130 98 61 103 73 79 98 84 104 81 145 92 
81 111 133 123 114 139 125 86 151 195 154 171 155 198 197 165 168 206 213 204 203 191 220 212 180 166 186 176 182 181 177 179 130 163 175 90 73 105 129 96 52 89 66 64 96 139 145 122 143 65 
168 172 178 152 137 154 150 143 184 197 147 180 169 218 213 169 180 200 194 200 197 191 200 221 162 153 164 170 170 193 183 193 148 172 179 94 98 101 107 79 55 86 43 48 111 160 164 150 133 77 
132 119 145 134 143 145 154 155 189 197 144 176 168 228 218 156 167 187 177 177 185 176 179 204 155 143 143 161 173 200 184 181 163 175 172 119 88 86 99 70 66 77 22 62 136 166 146 133 135 99 
178 177 162 167 154 154 144 146 167 168 140 132 142 206 209 187 183 191 176 169 171 159 156 172 143 130 131 169 179 190 196 157 171 183 187 163 91 88 90 57 65 80 15 69 159 159 114 113 163 129 
209 237 175 175 156 128 103 121 126 138 135 99 141 176 201 215 198 187 174 162 171 153 148 149 145 139 142 189 179 178 200 147 153 194 177 170 88 85 89 66 67 108 72 79 174 153 104 100 153 137 
213 236 193 172 131 101 106 134 114 124 135 123 192 195 197 208 177 146 147 144 177 161 155 146 166 150 161 201 176 181 194 169 125 197 161 139 50 80 115 56 73 125 118 126 176 158 107 91 140 132 
210 213 207 145 103 97 117 135 103 123 162 187 201 202 217 182 143 131 115 140 171 165 165 147 178 160 177 190 159 176 190 188 135 194 155 143 106 136 98 55 102 146 139 158 188 135 95 82 101 110 
182 198 205 132 118 116 119 114 113 177 200 206 213 210 197 145 134 120 97 143 168 158 165 141 181 169 176 180 157 170 187 182 141 201 147 141 118 126 107 85 115 133 138 161 179 144 104 77 112 114 
183 197 200 141 146 135 133 135 152 204 204 206 208 190 165 121 122 100 97 139 158 152 167 143 165 154 169 166 162 173 171 174 129 180 148 120 104 112 120 104 113 96 93 139 164 173 151 90 121 124 
216 198 189 154 156 140 157 178 176 207 191 215 176 154 166 114 116 92 91 145 144 139 165 144 150 141 178 139 139 156 157 181 154 178 176 143 136 112 114 88 91 75 59 99 153 192 169 130 126 138 
212 163 151 160 167 201 192 178 196 213 170 181 134 141 150 112 115 75 76 149 137 139 157 148 150 137 168 136 109 78 95 147 140 170 171 116 113 91 104 90 90 90 67 86 132 179 173 142 148 156 
168 149 133 160 197 223 200 182 213 214 127 137 109 143 125 125 101 49 79 140 144 159 160 142 150 112 155 132 89 70 60 101 81 135 144 86 117 98 120 116 116 120 97 107 114 148 179 137 151 169 
144 163 153 181 180 231 210 196 208 172 92 123 99 142 114 133 85 30 73 150 139 168 163 141 139 101 155 110 69 70 67 87 57 88 99 43 97 86 124 135 160 150 107 117 123 134 171 141 146 148 
187 227 184 196 172 234 204 190 179 139 93 133 109 127 93 145 85 31 58 160 134 175 166 132 147 115 152 82 43 55 63 84 69 96 85 41 88 59 101 140 174 174 127 129 156 160 149 147 151 149 
217 235 178 190 173 232 193 148 151 133 108 129 107 121 86 149 85 33 58 163 127 180 160 120 155 123 155 67 42 57 62 80 85 104 82 97 111 57 111 166 183 182 131 140 152 119 101 130 162 147 
158 170 138 146 143 192 148 111 129 120 106 118 96 124 94 136 76 33 64 146 120 163 146 114 162 119 150 92 67 55 53 74 81 91 80 121 95 52 124 183 172 164 115 107 82 38 99 114 169 145 
143 144 130 140 131 181 153 96 116 115 97 124 105 115 103 137 72 40 81 141 128 161 141 109 167 120 200 170 134 88 56 87 68 87 80 113 76 54 128 177 158 122 52 47 78 82 170 139 169 154 
145 143 126 133 148 194 136 96 106 120 89 119 107 112 105 156 73 42 93 148 136 162 137 106 170 114 205 169 140 117 89 94 61 90 105 106 51 60 129 139 122 63 23 39 115 136 172 135 153 137 
145 153 118 126 158 169 65 94 86 114 103 98 96 110 108 171 74 38 107 152 145 151 129 96 168 113 197 161 153 139 111 114 62 90 124 87 33 69 127 95 83 47 26 48 128 168 166 134 127 122 
146 155 106 126 139 101 41 93 84 108 113 87 104 100 102 131 65 38 111 154 141 124 130 80 161 114 191 148 156 144 103 134 77 90 128 66 26 84 120 68 82 44 35 78 137 181 148 134 106 96 
143 141 117 126 89 66 48 78 86 105 112 83 103 82 86 80 52 41 115 151 128 108 127 53 153 110 181 139 146 130 84 120 74 89 126 48 28 96 115 58 82 40 59 95 136 173 131 123 93 77 
127 118 125 109 63 66 48 74 73 96 95 85 103 70 79 64 48 43 110 155 115 99 114 42 142 104 170 133 135 124 92 118 61 86 103 34 28 99 111 50 78 48 94 94 124 167 128 118 83 70 
105 105 134 105 65 61 50 123 97 79 66 82 89 72 107 77 43 38 97 155 112 93 96 42 116 91 145 126 133 118 93 118 76 90 89 32 33 101 109 42 71 65 111 93 130 167 123 108 72 64 
96 121 164 115 68 53 50 117 103 82 67 69 82 71 151 132 53 30 86 145 119 92 82 45 89 94 119 127 133 119 103 117 83 108 83 36 44 100 98 35 58 89 123 97 142 170 111 92 60 64 
117 138 165 123 83 50 49 116 107 104 81 70 87 69 146 120 54 35 85 138 120 83 97 48 75 95 116 124 130 122 106 121 89 119 82 35 52 97 87 29 52 110 136 109 144 169 94 79 55 60 
128 113 146 121 90 47 49 114 109 116 104 72 79 83 151 122 57 37 83 132 113 66 102 65 80 87 109 119 127 124 119 131 91 118 85 42 56 96 78 25 56 129 150 118 149 157 73 73 51 56 
109 98 140 118 89 45 50 112 108 115 129 85 77 103 153 124 60 37 75 125 100 53 98 82 96 76 89 108 128 133 120 140 108 115 83 65 67 93 67 27 82 146 158 126 165 134 58 72 46 61 
100 88 130 104 86 44 53 108 100 110 136 110 86 109 154 123 61 34 70 123 97 49 92 88 115 86 71 86 120 138 130 140 114 123 86 86 85 86 48 45 121 141 159 135 169 105 57 67 46 77 
93 84 123 97 81 44 55 103 97 107 133 114 111 113 150 123 64 33 65 119 113 52 88 82 128 113 67 58 105 136 126 139 117 133 90 100 94 70 32 86 144 147 160 147 160 83 59 56 50 96 
87 81 113 90 78 47 53 95 91 101 128 111 117 125 147 122 63 31 62 118 130 84 79 78 131 131 90 37 81 115 114 123 112 123 80 105 106 90 51 133 148 151 162 159 140 69 62 51 53 99 
84 79 103 83 72 46 52 88 82 91 119 101 110 120 142 121 64 31 59 119 123 112 90 66 127 145 125 54 49 85 85 103 111 111 75 129 138 108 104 153 139 151 163 158 122 51 56 52 59 95 
77 76 99 82 74 46 53 85 79 92 125 99 105 110 129 113 64 31 55 106 110 114 131 58 122 149 137 92 70 58 65 88 111 116 84 150 143 98 134 155 135 153 163 146 112 31 56 54 67 101 
55 56 90 80 79 45 54 86 90 97 132 107 106 110 118 105 54 33 66 84 111 119 153 78 112 130 131 113 103 67 41 76 115 113 80 158 121 103 146 153 139 150 158 135 102 19 65 51 88 106 
60 48 75 76 83 46 48 74 79 84 122 103 106 97 108 110 58 55 97 76 110 125 147 96 132 99 127 121 118 103 64 61 112 99 80 167 104 123 140 156 142 139 153 127 85 12 65 52 128 116 
117 114 114 113 71 52 53 74 66 70 103 81 100 76 97 115 74 67 114 89 98 128 136 80 140 88 121 117 128 115 106 69 90 85 98 160 107 134 133 158 144 128 149 127 62 11 62 87 152 116 
104 109 110 112 62 52 48 69 62 81 113 93 112 81 91 91 64 61 98 90 92 107 121 78 126 95 103 87 131 123 112 104 112 99 111 147 116 115 79 122 134 124 132 102 45 13 66 111 138 112 
100 104 94 98 54 52 43 55 54 84 114 101 121 86 86 77 50 60 90 101 101 99 114 77 116 93 81 40 115 115 104 108 150 127 113 142 114 102 76 62 68 94 121 83 26 33 68 88 109 109 
101 108 86 94 47 54 41 56 49 74 101 95 113 77 66 73 51 66 92 114 99 95 111 71 109 89 66 14 78 107 96 90 153 114 115 156 134 128 128 96 42 23 91 88 5 37 71 79 87 84 
