P2
50 40
255
-3 47 -30 13 -0 -56 8 8 -33 -3 -14 7 53 -70 -10 -64 -5 -33 -48 34 -50 -31 -33 33 17 45 -4 -14 -34 74 -37 -27 -38 -7 -5 13 1 10 17 17 
-25 63 -35 -14 -50 -41 -8 15 -63 -18 -38 -7 15 -123 -36 -16 22 12 -3 59 -41 -4 -2 53 -2 7 -45 -44 -8 76 -13 -41 -64 -25 -10 32 33 13 -4 17 
-51 49 -43 -35 -99 -72 -41 10 -19 2 -27 -6 -7 -120 -27 1 6 15 -2 56 -46 -4 -31 43 0 -15 -94 -47 11 78 5 -61 -69 13 7 77 56 -3 19 12 
-50 21 -54 -43 -61 -123 -48 21 34 38 -29 -10 -2 -76 -11 8 -13 24 -13 56 -55 14 -53 38 21 -20 -82 -14 38 85 -16 -45 -81 35 26 95 52 -19 34 -15 
-32 -6 -30 -57 -37 -142 2 11 67 49 -25 3 3 -66 -26 26 -13 18 -3 25 -67 12 -59 28 16 -51 -88 -22 39 58 -40 -39 -107 48 -7 58 55 -9 18 -26 
-21 -16 12 -57 -26 -135 39 -5 87 62 -41 13 13 -79 -29 44 10 16 46 22 -32 7 -35 12 25 -48 -83 -14 46 54 -10 -10 -98 76 -11 38 85 17 20 5 
-20 -5 23 -66 -4 -121 45 -14 83 49 -35 42 75 -64 -3 47 17 9 53 47 -13 16 -23 19 39 -27 -72 -12 57 44 17 19 -61 83 3 37 76 30 38 14 
-14 6 13 -46 -15 -79 25 -31 67 25 -18 80 74 -3 80 2 -16 -34 63 43 -26 11 -37 9 63 -26 -51 -7 53 45 -9 69 0 80 -11 9 44 53 70 30 
-9 43 10 -4 -29 -48 36 12 54 18 -12 54 32 -6 142 -13 -15 -18 60 68 -49 15 -3 29 90 -21 -24 27 29 51 -20 73 18 16 -12 47 10 46 82 40 
-5 100 16 13 -25 -39 29 71 44 8 -47 43 6 -90 136 -0 54 11 55 97 -39 19 26 37 81 -20 -41 61 26 77 2 66 3 -54 -27 70 5 33 55 23 
-22 113 17 32 -39 -62 12 64 50 16 -29 16 -28 -132 109 17 83 49 94 102 -23 -3 4 1 66 -16 -61 67 19 74 2 71 10 -49 -21 59 -8 26 19 -4 
-20 100 -1 46 -46 -67 -8 42 54 19 -28 13 -29 -81 99 10 71 51 110 71 -17 -46 -29 -59 62 -25 -63 59 31 118 -14 63 -8 -17 10 92 30 13 9 -12 
1 55 -39 66 -39 -45 50 22 89 -35 -11 23 48 -9 130 -58 32 -26 48 63 -12 -69 -16 -78 86 -28 -2 39 21 116 -35 79 -23 -21 13 75 32 -18 10 12 
16 43 -54 62 9 -69 71 -6 81 -54 -23 -25 33 -27 102 -92 31 -36 -3 52 -34 -53 8 -79 72 -29 18 24 5 87 -79 55 -49 -55 -3 38 21 -60 1 -10 
16 55 -55 50 53 -66 62 -5 89 -27 -38 -28 37 -3 95 -69 24 -20 -12 71 -39 -23 15 -67 81 8 23 27 10 93 -54 69 -13 -23 -11 49 23 -70 10 -1 
-5 78 -65 -0 85 -62 25 -20 53 -28 -57 -31 25 -34 60 -61 22 -6 -26 56 -73 -18 -3 -65 62 -1 -27 8 -2 55 -82 36 -34 -41 -45 80 21 -60 -11 -22 
-26 76 -77 -12 50 -47 -26 -7 33 -12 -54 -22 2 -58 21 -48 -2 -3 -45 23 -96 -39 -32 -63 29 -29 -72 -23 -3 39 -110 14 -51 -59 -24 83 28 -36 -23 -9 
-26 53 -101 25 -24 -22 -49 -4 61 5 -38 -47 -16 -40 24 -21 -16 -7 -66 27 -99 -36 -31 -70 19 -29 -83 -15 -18 34 -121 20 -17 -40 -24 31 1 -40 -31 23 
-3 14 -97 30 -35 -45 -51 5 56 11 4 -52 0 -14 18 -5 -55 -14 -45 18 -71 -14 -73 -49 -15 -14 -69 25 -4 42 -138 32 -8 7 -12 -22 -44 -43 5 -0 
6 1 -74 36 -25 -35 -30 -5 29 13 -2 -13 30 21 34 -8 -49 -21 -49 3 -66 -32 -77 -46 -20 -12 -39 39 -5 39 -117 53 25 28 -24 -29 -51 -46 15 33 
5 14 -61 47 -4 -25 30 -52 19 -12 -16 10 16 35 41 -33 -36 -32 -51 -4 -56 -31 -28 -43 4 -21 -5 29 -32 20 -92 52 40 20 -39 -43 -33 -62 5 43 
15 12 -41 19 46 -45 69 -83 -14 -37 -4 -16 20 0 34 -59 -50 -42 -44 13 -45 9 24 -35 24 -45 17 32 -20 -4 -102 56 32 1 -40 -53 -16 -68 -1 25 
16 1 -1 18 57 11 56 -102 -44 -74 -9 -26 -2 16 37 -41 -25 -15 -28 30 -25 -5 70 -19 7 -36 63 77 -1 -38 -81 58 40 -57 -32 -21 -6 -55 -26 15 
17 3 30 59 50 73 56 -90 -45 -80 -25 -21 -41 34 56 -7 -9 22 -22 -7 -17 -16 95 8 -20 -20 74 87 -17 -49 -25 21 29 -57 4 -18 -12 -12 -52 -9 
30 -2 23 94 19 81 53 -47 -54 -71 1 -37 -89 70 58 13 9 50 -17 -14 -3 -29 118 11 -41 -31 78 59 -44 -65 -14 -31 16 -54 -0 -22 -26 -21 -58 -40 
39 -17 20 82 -7 69 32 -34 -92 -64 19 -52 -108 61 12 25 -18 65 -48 -2 -23 -54 106 -2 -72 -70 72 44 -68 -99 -33 -48 -2 -73 -12 -12 -58 -53 -65 -33 
34 -44 25 52 -8 58 1 -18 -149 -39 -5 -44 -99 32 5 24 -35 65 -32 -22 -38 -70 73 -8 -80 -54 41 62 -64 -104 -24 -52 -7 -58 -30 4 -77 -41 -44 -43 
16 -35 34 33 -12 56 -18 3 -119 13 -20 -21 -75 18 61 -4 -20 41 21 -37 -12 -82 56 -17 -52 -19 12 79 -30 -83 10 -46 37 -56 -7 6 -60 -0 -21 -39 
-11 6 8 19 -10 23 8 -45 -60 11 -56 26 -115 29 97 -25 -5 37 42 -1 1 -93 55 -32 7 -61 12 38 15 -71 11 -16 68 -69 2 -37 -22 1 -20 -45 
-18 53 -14 41 -5 5 24 -93 -34 -3 -56 24 -109 12 87 -19 -7 51 27 13 -26 -89 45 -42 48 -84 12 27 23 -51 -1 5 39 -37 -19 -23 10 -29 -28 -37 
-33 88 -19 52 -28 -7 27 -125 -9 2 -31 6 -82 5 63 -21 -19 38 -2 16 -63 -91 15 -42 84 -92 -11 2 14 -31 -29 3 17 -14 -1 -5 45 -20 -23 -21 
-48 77 -23 42 -60 -8 47 -106 11 -11 -19 -11 -64 11 37 -9 -37 -2 -26 33 -63 -71 -0 -21 92 -91 -31 -21 7 -30 -49 7 15 15 -0 -5 40 -18 18 1 
-56 54 -33 25 -85 5 50 -80 16 -29 -17 -1 -39 19 30 14 -48 -27 -23 46 -44 -63 -6 17 79 -93 -34 -23 6 -36 -54 3 -2 22 -14 -26 15 -16 28 18 
-45 46 -40 33 -104 3 42 -58 19 -21 2 3 -28 23 19 23 -36 -21 -18 47 -35 -56 -12 38 68 -89 -25 -28 25 -23 -48 -6 -4 19 -15 -46 5 -8 11 33 
-23 48 -39 39 -77 13 48 -44 34 9 29 -28 -34 33 7 31 -29 -23 -19 49 -27 -30 15 58 54 -58 -24 -43 31 -6 -68 -11 -14 17 -5 -45 15 -15 -13 21 
-23 26 -54 40 -47 20 30 -50 35 27 44 -38 -26 50 5 40 -31 -21 -33 35 -42 -16 7 45 28 -47 -51 -65 34 22 -98 -18 -35 7 18 -21 20 -26 -47 7 
-15 21 -50 39 -46 23 27 -40 13 3 41 -38 -19 49 -7 45 -40 -36 -49 23 -57 -10 -4 44 20 -34 -52 -70 18 32 -118 -11 -36 3 20 -18 4 -20 -43 17 
-17 20 -54 36 -50 24 10 -26 -2 -8 40 -53 1 63 -14 37 -46 -29 -52 12 -60 9 -17 39 30 -2 -41 -60 19 42 -119 -2 -28 10 29 -4 -2 -11 -28 16 
-17 20 -52 29 -39 20 1 -1 -12 10 47 -64 28 88 -21 30 -52 -8 -50 6 -58 26 -31 31 21 32 -45 -53 17 34 -105 6 -16 18 37 -3 -13 -17 -2 6 
-22 17 -49 32 -23 2 -11 15 -26 36 45 -63 37 88 -20 13 -60 7 -49 0 -39 39 -49 36 -2 43 -45 -31 15 28 -77 -1 3 29 44 2 -29 -37 20 12 
-26 -5 -42 36 -17 -9 -22 25 -42 72 35 -54 37 75 -17 22 -63 14 -58 -10 -13 36 -49 36 -21 40 -42 -4 -1 32 -56 -13 28 25 51 18 -45 -48 37 29 
-13 -44 -22 41 -27 -9 -27 27 -40 93 28 -48 29 61 -9 41 -73 15 -44 -31 13 7 -40 37 -39 28 -32 22 -10 34 -36 -29 36 38 44 26 -34 -25 39 22 
4 -82 5 21 -28 0 -45 38 -42 95 29 -30 10 34 1 58 -77 7 -8 -50 19 -16 -15 38 -38 11 -44 55 2 12 -30 -23 24 62 44 12 -17 11 33 9 
0 -72 22 -7 -30 19 -62 49 -49 87 19 -3 -2 28 20 64 -70 -19 29 -54 0 -17 -4 35 -36 10 -54 67 2 -11 -29 4 38 55 56 -3 -13 22 27 8 
-4 -49 31 -13 -34 28 -53 48 -31 80 4 16 -8 35 47 67 -73 -33 54 -46 -1 -17 1 23 -29 52 -56 51 -4 -23 -1 26 53 45 61 -8 -18 30 21 4 
-19 -14 17 -25 -39 20 -53 44 -14 74 -6 20 -14 7 59 44 -76 -11 72 -48 3 -23 -10 14 -16 70 -58 23 2 -16 43 11 49 43 39 5 -32 56 23 4 
-32 -4 -10 -35 -56 15 -55 31 -31 57 -12 5 -18 -33 52 9 -50 -18 66 -60 -15 -19 -19 19 -23 16 -71 -11 -9 -36 38 -51 12 15 1 -0 -51 65 21 -13 
-27 -8 -9 -25 -32 -23 -30 19 -42 56 9 -12 25 -33 55 -6 -28 -27 38 -29 -16 -1 -40 20 -16 7 -54 -20 -10 -28 24 -35 33 -10 15 -6 -64 49 48 -2 
-19 -17 7 -34 -15 -55 9 0 -39 44 22 -44 65 -57 53 -1 -31 -27 26 5 -34 -8 -56 12 -11 13 -57 3 -17 0 3 -2 25 -12 10 -9 -42 29 25 43 
-2 -39 35 -52 -20 -64 44 -21 -31 45 8 -35 72 -94 48 -5 -20 -28 59 -30 -15 -10 -36 8 -5 -0 -62 25 -24 -6 12 -16 -15 35 -21 -10 -7 5 22 56 
