P2
50 50
255
190 159 96 89 94 129 52 130 160 155 144 131 121 105 87 112 160 160 158 159 161 157 100 93 101 101 98 99 155 199 190 141 142 157 134 125 122 95 83 73 91 130 117 104 104 94 89 99 97 101 
186 137 86 117 92 110 109 106 91 76 62 50 42 39 46 107 161 158 158 159 162 158 104 89 99 100 100 100 150 191 181 133 140 154 126 132 96 73 84 77 59 87 157 119 103 89 86 95 96 99 
176 104 83 119 69 50 50 38 29 26 27 30 32 39 66 139 160 155 156 159 164 160 114 95 98 99 102 100 143 181 180 136 141 149 131 118 86 75 85 82 75 55 132 168 117 88 88 87 88 93 
161 70 90 94 33 32 30 29 28 26 29 35 47 99 125 164 156 152 155 159 163 158 118 104 101 100 104 101 137 170 182 150 145 151 128 131 138 76 60 76 80 55 84 166 160 105 88 82 79 91 
149 117 140 101 36 36 36 37 30 27 30 33 61 121 127 146 150 150 152 156 160 154 117 106 101 105 107 103 130 157 176 160 149 151 114 159 180 139 101 80 73 50 59 140 163 157 98 81 74 88 
96 94 99 108 54 47 47 45 30 28 29 45 88 117 123 117 152 155 155 158 161 155 113 107 107 108 106 102 123 152 150 163 157 151 121 181 189 174 161 112 45 33 52 123 142 168 130 81 78 81 
41 44 79 112 53 50 51 45 42 65 77 68 96 107 113 90 155 156 156 158 154 145 108 98 99 100 104 109 124 155 129 154 166 150 147 191 185 174 149 102 39 28 52 114 131 154 131 103 96 95 
41 50 92 114 49 52 56 62 106 152 162 121 98 104 103 81 140 126 127 135 147 159 143 138 148 163 176 185 186 172 158 165 173 152 133 158 180 173 145 104 47 27 58 111 115 136 103 112 126 115 
43 54 102 117 56 73 90 131 167 165 155 91 86 112 81 82 120 117 145 163 178 190 194 198 203 205 206 206 203 177 177 182 173 152 116 131 154 114 101 92 50 28 71 107 98 109 65 114 158 145 
44 59 112 125 89 120 151 167 155 136 72 63 94 117 57 89 164 180 194 198 199 200 203 205 205 205 206 205 204 177 172 180 161 166 147 152 124 69 84 76 49 34 86 95 74 68 53 102 167 164 
43 63 119 139 131 160 167 146 108 50 42 96 123 122 70 116 169 178 197 204 206 207 209 209 207 206 204 201 199 178 169 181 148 160 169 166 100 99 102 62 63 57 94 73 57 71 54 81 157 158 
40 67 126 152 174 168 151 105 59 62 88 113 128 143 162 172 180 197 209 213 215 214 213 211 208 205 203 198 195 180 178 186 137 152 171 140 85 113 129 101 78 72 91 56 63 108 54 57 120 139 
71 104 146 146 136 135 139 125 174 195 196 178 172 175 185 186 195 215 218 216 213 212 210 208 203 200 196 191 185 184 187 190 139 155 158 90 75 121 125 91 59 76 77 45 77 144 117 117 129 82 
160 172 177 167 149 157 164 187 211 206 193 191 195 199 204 208 210 211 209 205 201 198 195 191 187 183 179 175 175 196 187 193 156 159 147 102 96 116 97 67 57 73 55 36 93 157 150 155 124 73 
125 128 134 137 139 151 170 203 218 212 192 188 202 211 209 205 201 196 192 188 184 181 176 174 171 168 163 164 189 207 182 183 174 153 140 109 91 104 90 65 65 56 38 43 124 160 112 138 124 119 
173 171 175 180 175 152 155 169 178 166 165 139 152 201 213 208 205 202 185 167 163 160 160 158 156 155 152 167 193 197 183 168 184 157 158 137 101 95 78 58 55 39 37 57 151 151 76 113 157 167 
207 209 211 215 202 117 96 109 134 118 127 114 133 180 212 212 213 204 167 155 155 155 155 154 154 157 166 189 188 181 183 161 170 165 157 144 107 74 69 70 49 56 98 90 167 146 80 94 152 178 
214 212 214 210 159 92 88 113 132 109 115 147 194 199 203 208 194 160 127 152 158 158 160 162 163 162 185 203 194 184 180 172 140 157 146 112 75 66 93 64 37 78 141 150 186 141 89 92 144 178 
212 211 207 149 98 94 112 131 120 121 157 197 203 206 212 194 155 133 102 155 164 165 164 164 164 169 200 199 184 180 180 176 153 138 144 137 129 110 67 55 75 104 165 192 186 129 85 82 101 136 
184 204 201 122 103 114 122 117 123 177 202 206 211 213 190 155 142 116 85 160 165 164 163 164 163 174 196 192 180 177 182 174 159 154 145 134 139 101 81 89 93 99 160 192 178 140 95 75 112 138 
183 199 193 147 134 133 131 144 185 208 211 217 216 182 145 140 140 100 79 159 162 160 160 161 162 177 184 183 182 178 178 165 144 139 136 122 120 103 98 102 90 73 110 160 165 166 142 92 119 142 
213 210 177 148 137 139 171 209 217 217 219 214 176 137 130 140 138 88 75 157 159 156 156 155 164 185 184 159 151 170 181 179 169 162 154 150 142 122 103 84 72 70 67 102 158 180 166 136 128 140 
207 176 147 146 157 200 220 221 220 220 213 168 129 126 124 136 133 72 73 152 153 152 150 150 168 186 176 150 120 94 110 142 154 151 141 127 115 98 88 81 77 75 81 87 125 171 167 148 148 152 
160 147 141 167 209 220 221 220 220 212 167 128 119 125 118 132 117 50 72 151 154 150 149 151 170 179 162 134 108 86 57 55 74 95 106 116 114 101 94 91 92 102 112 115 97 141 171 153 145 154 
133 144 180 216 221 221 222 222 209 160 124 121 113 120 115 125 92 38 72 154 157 154 152 152 168 172 152 114 81 70 62 52 44 40 46 71 100 88 96 110 122 121 121 124 118 117 160 160 146 142 
177 206 222 222 220 221 221 205 151 120 117 117 110 114 108 116 69 34 71 155 160 159 157 150 166 170 142 86 49 44 51 58 55 41 38 70 96 44 70 116 138 136 144 144 150 148 143 161 155 143 
210 212 215 217 218 218 200 145 115 113 112 115 108 112 104 106 55 33 70 154 158 156 151 144 169 168 131 69 45 37 45 56 60 49 44 123 117 45 90 142 157 150 141 141 147 116 80 141 161 151 
152 156 160 167 169 182 151 113 110 109 111 111 104 111 100 107 57 31 68 147 149 147 134 138 173 161 127 97 72 41 43 50 56 49 56 142 95 54 116 162 164 149 119 92 70 46 64 120 156 157 
139 142 143 140 138 172 167 107 105 106 109 106 96 103 94 113 62 31 68 148 153 153 126 145 174 175 184 178 146 94 52 46 50 50 70 144 68 55 117 152 163 114 59 37 48 104 139 139 148 154 
140 140 144 132 157 181 155 110 96 107 104 94 89 98 92 125 64 30 70 157 163 156 121 159 179 189 190 181 157 131 88 52 45 46 86 131 50 60 112 118 103 46 33 37 100 143 142 141 141 146 
142 144 135 141 168 154 69 94 92 101 103 85 82 94 89 140 66 29 73 164 171 145 114 153 179 185 181 177 169 148 120 79 49 46 98 110 41 67 108 80 38 32 32 61 140 155 156 148 130 130 
145 139 126 150 151 83 34 75 94 91 95 80 84 87 79 91 50 29 72 165 172 122 115 145 168 174 171 171 165 144 120 108 68 48 109 94 40 72 99 57 31 32 37 107 159 165 156 146 117 97 
145 126 137 145 97 48 38 49 92 86 82 72 73 75 64 32 31 29 70 162 156 105 113 127 152 163 162 162 155 131 100 88 66 45 115 81 43 74 90 47 30 30 62 137 158 159 152 134 107 70 
130 114 135 109 55 51 46 53 81 83 72 69 69 68 53 28 29 28 70 163 142 100 103 108 136 150 157 156 148 128 108 92 62 40 92 62 45 73 83 42 29 32 102 139 144 154 149 126 98 64 
106 109 137 95 52 52 59 125 111 74 67 66 64 68 81 66 38 27 70 165 132 102 87 87 112 130 146 149 147 127 110 102 89 49 74 52 51 77 79 38 28 44 125 136 145 151 145 115 87 57 
100 128 158 102 52 51 55 117 124 82 66 63 60 75 132 140 61 25 64 149 119 100 82 63 83 112 135 138 146 133 114 105 103 83 73 47 57 77 71 34 28 72 138 141 150 156 142 97 75 50 
124 153 149 96 50 51 52 109 127 108 70 61 59 79 123 128 58 25 59 141 116 91 98 67 61 101 130 133 141 139 119 110 109 106 86 43 61 76 68 32 31 104 145 150 154 159 127 81 69 44 
135 132 124 88 48 50 51 108 124 123 94 62 57 92 129 128 58 24 59 142 112 76 100 88 60 83 118 130 138 139 132 118 107 109 101 52 63 75 64 29 45 133 154 155 155 155 103 72 60 40 
116 116 116 89 48 49 48 105 123 124 118 80 62 110 133 131 59 24 56 137 103 64 94 100 75 62 94 120 134 140 134 128 120 110 107 82 69 75 59 28 87 159 158 155 161 144 83 66 47 41 
106 104 105 83 47 48 46 99 118 120 122 112 80 113 133 131 60 23 55 137 105 60 85 103 96 69 70 101 124 138 143 130 121 117 114 105 84 73 46 43 139 159 156 151 156 125 69 57 38 62 
98 97 101 83 46 47 45 94 115 117 120 121 113 113 129 131 61 23 55 137 127 66 78 101 107 92 64 79 109 127 139 138 124 116 117 116 99 55 29 86 161 158 160 160 149 104 60 44 39 95 
91 93 94 78 46 48 44 87 109 111 115 118 120 124 127 130 60 22 54 134 144 99 71 97 113 111 86 57 85 106 126 135 120 110 103 105 114 82 54 139 161 157 162 161 137 85 50 38 43 116 
88 88 88 75 45 46 42 78 99 99 104 108 112 117 122 124 58 22 53 133 140 132 82 87 111 122 116 77 48 72 101 126 118 106 102 124 147 105 114 163 157 160 159 151 122 69 39 36 48 119 
81 85 84 74 45 46 41 71 93 100 106 107 108 108 110 113 55 21 49 123 129 133 121 82 102 121 126 116 69 42 79 107 116 106 117 150 150 91 143 162 160 164 159 140 104 57 36 35 51 123 
61 67 71 66 45 46 40 69 94 103 109 112 112 111 108 99 49 21 48 111 115 127 144 113 83 108 124 126 113 65 42 68 110 102 123 154 123 99 157 160 164 164 153 127 89 49 33 35 65 135 
67 61 57 53 46 46 38 54 74 86 95 98 100 101 100 91 50 38 67 101 107 129 140 141 102 87 116 126 129 115 63 43 100 104 130 157 99 127 160 165 166 162 142 112 76 41 32 39 105 146 
123 119 112 96 51 45 45 44 54 63 66 66 72 80 85 74 53 49 80 93 106 127 131 131 126 97 94 120 128 127 110 59 71 104 136 152 97 148 160 164 163 154 131 99 62 34 32 77 137 141 
108 109 115 106 52 44 41 42 57 73 81 82 83 83 76 56 43 48 76 87 109 115 117 119 119 99 78 98 123 123 124 114 103 115 138 143 113 122 99 128 149 142 119 83 48 31 48 99 130 130 
103 103 103 92 50 43 39 31 47 75 87 88 89 88 73 42 30 49 71 95 115 112 112 114 113 94 58 51 102 116 120 128 145 154 138 133 112 109 97 73 77 112 107 67 38 42 62 77 109 123 
102 103 103 93 53 43 40 33 40 61 76 79 77 76 53 31 30 56 73 104 114 112 111 111 113 95 38 25 60 109 116 126 147 158 139 133 132 146 160 115 48 44 72 58 28 40 59 67 90 111 
