P2
100 100
255
140 139 131 118 92 56 41 46 53 56 60 59 58 60 65 73 79 83 88 90 92 94 95 96 97 97 96 98 99 98 97 97 97 97 94 94 96 96 95 97 94 91 94 93 95 96 98 97 97 95 95 94 95 94 93 92 91 90 90 88 81 80 74 65 63 83 111 129 140 141 136 134 133 132 131 130 126 125 126 124 123 122 120 140 204 235 238 188 86 63 70 77 77 78 78 80 83 86 89 91 
138 135 129 118 92 56 41 46 54 56 58 57 56 59 64 71 78 82 87 90 92 93 94 93 94 94 93 95 96 96 96 95 96 94 94 94 94 93 92 92 91 90 89 90 91 92 94 95 96 95 95 92 94 93 92 88 88 88 89 88 82 78 72 65 62 76 102 120 131 133 131 129 129 131 130 126 125 125 127 127 124 122 119 121 169 223 239 225 140 66 67 74 78 80 80 80 81 83 88 83 
134 129 127 117 91 54 39 45 51 54 55 54 54 58 63 68 76 79 82 86 88 88 89 88 90 91 89 92 92 90 91 92 90 91 91 91 89 86 85 85 87 87 86 86 85 87 89 91 92 92 89 89 89 89 89 87 85 84 87 87 81 76 71 67 63 73 95 114 126 128 128 127 128 130 129 126 123 125 126 126 122 120 118 115 129 195 232 240 206 102 60 67 73 78 76 77 79 82 73 39 
128 126 128 119 92 55 38 43 49 53 54 52 52 55 59 67 75 78 80 83 85 87 87 87 88 88 88 90 92 90 89 89 88 89 89 89 87 84 80 79 82 85 84 82 83 84 86 87 88 90 89 88 88 87 86 85 82 82 85 85 80 75 70 66 63 74 94 109 121 126 127 125 125 128 128 126 123 126 125 124 124 121 118 115 111 150 216 241 239 174 75 60 68 72 74 77 82 70 32 9 
123 123 126 116 91 56 38 41 49 52 52 51 51 52 58 65 71 75 79 82 83 85 86 87 86 87 87 89 91 88 87 88 87 86 86 86 85 82 80 80 81 84 81 79 81 81 83 84 85 86 87 86 86 85 84 83 84 84 85 83 79 75 71 67 63 75 92 105 114 121 124 124 123 125 124 124 122 124 126 123 121 117 114 112 108 117 180 234 245 226 132 60 62 65 70 77 68 30 9 7 
124 125 126 115 90 54 37 40 48 53 52 50 50 52 58 64 71 74 77 79 81 83 84 85 85 86 86 88 88 87 88 87 86 85 86 86 84 83 82 81 84 86 83 80 77 75 78 81 82 83 85 86 86 85 84 84 84 83 84 81 79 75 71 67 64 74 89 101 109 114 118 120 120 120 120 119 120 121 123 121 118 113 110 109 108 108 138 209 239 242 194 89 57 60 66 63 31 9 7 9 
126 124 124 114 89 51 34 41 47 51 52 50 51 54 60 65 71 75 78 81 81 84 84 84 85 87 87 87 86 86 88 86 87 86 88 89 89 94 98 103 119 132 132 134 128 110 93 79 75 77 81 84 85 83 83 83 84 83 83 81 79 75 69 66 62 71 88 102 107 107 111 116 118 118 119 120 121 122 120 118 114 109 107 106 106 107 113 164 224 241 234 157 66 62 58 27 9 7 8 10 
128 127 127 117 92 53 34 40 47 51 52 51 55 57 64 68 73 77 79 83 85 83 83 87 88 89 91 89 87 86 88 88 88 90 97 108 108 111 118 136 140 153 156 155 152 157 158 148 123 92 75 78 83 81 82 83 83 82 82 81 78 74 69 65 60 69 89 103 107 106 109 112 115 117 117 117 115 115 114 113 110 106 103 102 104 106 106 120 188 234 244 221 124 60 28 10 8 8 10 10 
130 129 129 118 92 54 32 37 46 52 53 53 55 58 63 71 74 78 79 83 84 83 84 86 88 89 91 89 87 89 93 91 89 100 104 108 106 111 117 127 134 142 153 152 152 156 162 173 179 172 133 86 71 76 78 79 79 79 79 78 76 72 68 64 61 70 89 102 108 105 106 110 111 115 114 112 111 110 110 110 107 106 102 100 101 103 105 101 138 214 240 245 190 50 10 8 9 11 12 11 
132 132 129 118 92 54 31 35 43 46 50 51 52 57 60 66 71 74 77 79 80 81 82 85 87 86 86 91 102 102 94 83 83 93 95 94 103 110 116 121 132 137 143 150 157 161 167 173 178 181 184 165 108 71 69 75 76 75 76 74 71 70 65 61 61 72 89 105 110 107 105 108 109 111 114 111 107 107 108 109 107 106 105 104 103 105 108 105 109 166 229 240 155 25 7 8 10 11 12 10 
133 132 130 118 92 52 28 32 39 44 48 50 50 54 58 63 68 71 74 77 78 79 80 83 83 81 101 83 82 80 76 77 82 91 88 88 96 102 109 117 123 133 145 151 165 169 167 173 175 180 186 188 178 138 82 63 68 70 72 73 71 66 63 62 59 68 90 106 112 110 106 104 103 104 110 113 106 105 108 110 108 106 104 104 104 105 106 107 106 122 192 164 49 8 8 8 10 11 11 9 
133 131 129 115 90 51 27 31 38 44 47 48 48 52 56 61 67 69 73 75 75 78 80 81 82 85 88 66 74 75 76 78 82 90 87 88 93 95 101 108 121 135 147 151 160 165 169 177 181 184 189 189 185 189 171 100 56 58 64 66 65 62 59 60 57 66 90 110 117 116 111 103 94 90 96 110 110 107 110 110 108 106 105 105 106 107 108 109 110 113 107 42 8 8 9 10 9 9 8 9 
136 132 129 114 89 49 27 31 38 43 47 49 46 50 54 59 64 68 71 74 75 76 79 81 83 99 75 70 69 72 75 80 83 84 89 91 94 94 97 104 114 123 134 148 162 169 175 182 184 189 192 187 183 185 194 199 154 98 51 60 63 60 59 57 55 66 91 112 121 122 114 104 84 73 78 98 111 110 111 111 109 107 106 105 105 107 108 109 111 98 37 7 7 8 11 10 8 8 9 9 
136 133 128 115 90 50 27 31 40 44 46 47 47 51 54 59 64 68 70 72 76 78 80 80 85 87 67 65 70 75 74 78 79 82 83 87 92 94 96 104 111 121 136 156 168 171 173 178 183 181 180 188 203 215 225 228 241 222 85 45 56 57 56 53 51 64 89 112 121 121 116 108 83 56 53 78 104 113 110 110 108 105 105 105 105 106 108 109 104 51 10 7 7 10 10 9 7 8 10 8 
136 133 126 112 86 49 26 32 40 44 47 47 48 50 54 60 64 67 69 73 76 78 79 81 79 66 64 68 73 75 75 75 74 78 84 89 93 94 96 99 105 121 135 156 166 173 178 167 168 186 209 219 225 223 220 217 221 237 189 60 45 51 51 50 49 64 89 111 120 118 115 107 85 46 27 52 88 111 113 110 108 103 103 104 104 105 108 109 69 14 7 7 10 10 9 8 7 10 8 10 
134 132 127 112 86 48 27 32 40 44 49 51 50 50 54 60 64 68 72 74 76 77 79 79 66 60 64 69 73 74 72 69 73 82 88 96 97 98 102 105 109 117 131 151 161 160 155 168 202 222 221 214 215 218 213 215 219 227 240 163 47 41 45 47 49 62 89 110 121 120 116 109 88 48 17 30 67 99 113 109 106 103 104 104 103 105 111 87 26 7 7 8 11 11 9 8 12 10 9 11 
135 132 127 113 86 49 27 30 40 44 47 50 49 49 51 58 65 70 73 75 76 77 78 68 62 65 66 70 73 69 67 71 84 86 91 99 102 106 108 103 105 114 132 147 139 147 189 210 210 215 217 209 206 210 214 220 220 220 230 229 133 44 35 41 46 62 90 111 120 119 115 110 89 51 17 17 45 83 107 113 108 104 103 103 104 108 102 43 8 7 9 10 12 11 8 11 10 10 12 14 
132 131 127 113 84 49 27 29 39 44 47 49 49 50 52 57 64 69 71 74 74 79 74 64 64 64 66 70 70 70 72 80 87 88 96 95 99 105 102 98 104 115 128 126 150 188 205 207 209 202 199 196 206 210 211 211 214 219 221 224 225 176 69 33 43 60 88 110 119 118 114 109 89 51 18 12 26 59 93 109 110 102 100 103 107 109 66 13 7 7 10 11 11 9 11 11 9 13 15 18 
133 131 127 113 84 48 26 29 38 43 46 47 48 49 52 59 64 68 72 73 74 82 64 58 66 66 67 70 69 73 79 87 91 99 100 98 97 96 93 94 99 100 119 159 195 191 190 191 192 193 198 201 207 213 217 217 219 217 218 218 222 229 192 56 34 57 85 109 118 119 114 109 88 52 18 12 17 35 73 98 107 101 98 103 110 86 24 7 7 10 11 10 8 8 11 9 11 13 17 36 
130 129 125 112 85 48 26 28 37 41 45 47 48 48 52 59 65 66 70 67 94 87 54 56 62 64 66 69 70 74 79 88 97 101 92 97 99 94 86 83 93 129 168 174 186 186 182 182 183 190 203 210 208 213 214 217 215 214 214 213 224 230 240 153 40 48 82 107 116 117 114 108 88 53 19 11 13 18 39 73 117 128 107 109 96 41 8 8 9 12 11 10 9 12 11 12 12 10 34 87 
130 127 124 113 84 49 26 28 36 42 45 46 46 48 51 57 62 64 65 67 128 78 53 56 59 63 65 72 76 79 83 90 97 94 92 97 94 86 78 91 144 167 177 173 172 170 171 186 197 196 197 207 212 209 211 209 207 208 219 217 219 224 236 237 100 38 80 106 116 118 115 111 89 53 20 12 13 10 35 143 201 198 189 190 97 14 9 9 12 13 11 10 11 12 12 13 11 23 78 107 
129 126 124 113 86 49 25 27 35 40 44 45 43 46 50 56 59 62 62 91 146 63 52 57 62 65 66 70 76 84 90 91 91 92 95 92 74 78 109 147 168 167 156 164 165 167 175 188 194 193 193 195 199 198 204 212 214 210 212 218 217 216 222 242 177 44 74 106 117 120 117 110 88 53 20 13 11 53 164 200 208 228 238 240 169 20 10 11 12 12 11 9 12 14 15 13 15 65 107 101 
131 129 125 114 86 48 25 26 32 40 45 46 44 47 50 56 59 63 59 126 143 62 52 58 62 66 70 73 79 86 83 77 79 91 88 77 81 121 153 155 144 154 155 157 162 176 181 184 185 191 185 184 192 204 206 209 205 205 205 214 213 214 215 225 232 112 64 103 119 123 120 110 87 50 18 16 88 181 185 210 234 229 220 226 217 47 9 11 12 12 11 10 10 15 15 13 46 104 105 103 
133 131 126 114 87 48 24 26 33 41 48 50 50 50 53 59 63 65 64 157 130 56 51 56 61 62 70 77 84 79 73 79 85 85 74 83 127 151 144 141 145 152 158 163 166 176 181 176 173 172 178 195 199 198 195 199 203 206 209 207 206 212 212 214 223 201 97 100 120 124 122 110 80 40 41 128 191 182 215 230 216 204 205 220 220 58 9 12 13 12 10 10 11 14 12 27 93 111 106 116 
135 133 130 117 88 49 26 26 35 43 48 51 52 52 57 61 64 65 76 173 117 56 54 56 56 67 75 78 76 77 80 86 84 75 85 123 138 132 140 139 148 161 163 161 167 168 166 163 155 172 180 186 197 195 197 196 203 183 175 196 203 209 208 207 206 220 204 133 118 124 120 105 85 110 175 189 192 221 220 210 202 202 212 225 210 51 11 15 13 12 11 10 14 13 12 67 114 107 117 125 
136 134 133 120 89 51 27 30 38 46 50 53 53 52 55 61 64 62 93 178 96 55 48 56 62 66 67 71 77 84 80 75 72 87 121 123 117 120 127 147 153 155 156 159 159 163 153 151 168 169 173 174 180 188 197 202 181 164 181 196 202 202 201 197 193 196 207 185 121 120 119 143 178 191 189 205 218 212 206 204 205 211 218 224 188 32 12 14 13 11 11 12 16 13 40 102 111 111 123 124 
135 137 136 125 93 54 29 31 38 45 50 51 51 50 54 59 62 56 110 170 93 63 54 56 53 58 66 70 79 76 74 74 93 114 118 114 111 116 132 143 151 144 141 151 158 140 151 158 161 164 160 162 169 180 170 172 168 174 177 186 191 188 181 184 185 177 180 188 141 140 174 192 189 192 212 211 202 201 204 206 202 206 218 227 162 18 13 12 12 11 12 14 18 30 84 110 110 122 125 123 
136 139 139 127 96 56 31 30 38 45 47 49 49 49 51 56 58 53 139 171 101 68 55 56 56 63 68 73 75 78 75 92 114 113 106 102 107 125 132 131 135 148 148 139 137 148 153 158 157 153 155 164 174 166 160 169 176 174 183 185 177 169 170 173 170 165 164 175 180 187 190 190 204 205 205 198 196 203 208 203 187 202 213 224 126 11 13 11 10 10 14 16 22 64 109 108 117 124 124 122 
140 142 140 129 98 55 29 30 37 44 48 49 48 48 50 56 59 54 161 171 112 82 68 59 57 65 68 74 78 76 86 109 104 106 96 105 116 118 117 128 147 143 134 139 145 146 150 154 155 151 147 153 161 167 168 167 170 183 177 170 161 153 160 163 148 145 165 180 177 190 203 209 201 195 198 196 198 204 206 172 152 187 199 203 71 10 12 12 10 10 15 14 35 99 112 113 123 126 125 124 
142 141 139 127 97 54 29 30 39 44 48 48 47 48 51 55 57 55 168 165 119 97 83 65 57 60 65 72 68 89 102 105 101 88 102 115 117 110 113 122 133 130 136 147 145 140 147 152 145 140 143 142 146 151 157 168 168 170 164 152 159 156 141 145 152 173 180 184 197 203 196 190 190 196 196 197 200 206 185 132 136 139 166 158 28 11 12 11 10 12 14 23 72 112 110 120 125 126 125 123 
139 138 136 126 98 54 28 31 40 44 47 48 49 48 52 54 56 56 164 161 128 110 95 77 53 53 65 68 85 99 97 97 83 94 113 110 108 114 117 114 117 130 138 140 142 141 135 137 140 136 134 134 138 149 150 150 161 153 150 145 145 144 140 159 170 178 192 201 197 188 185 186 194 199 198 199 207 203 145 131 119 111 162 106 9 9 12 9 12 13 17 51 105 110 114 123 125 124 122 122 
140 138 135 127 99 55 28 31 41 44 47 48 48 48 52 53 53 58 167 158 128 111 96 81 59 55 63 86 99 92 90 80 94 107 105 101 99 110 113 114 125 127 127 131 133 128 135 139 131 126 137 138 139 140 143 140 137 139 139 135 133 152 165 169 183 193 188 182 184 189 192 197 201 200 200 205 212 171 127 123 110 118 171 54 8 10 11 11 13 12 26 86 112 109 120 123 122 121 121 121 
139 137 136 127 100 56 28 31 40 44 46 46 47 48 50 52 51 65 181 171 141 120 105 96 70 56 82 91 92 89 78 92 103 104 95 87 104 109 105 123 122 112 114 118 112 100 97 105 132 134 130 128 132 133 132 130 132 128 122 139 158 162 176 189 188 179 177 183 190 194 199 203 204 203 204 213 199 132 106 78 70 140 152 17 9 10 11 14 15 14 50 107 110 116 122 121 121 121 121 121 
142 140 138 129 103 58 29 30 38 44 47 47 46 49 51 54 50 65 192 185 150 128 116 112 80 68 85 86 85 76 92 102 97 89 84 96 98 100 112 101 79 82 71 66 73 105 119 85 95 103 111 111 103 105 99 72 86 118 138 150 159 186 193 187 184 183 186 192 198 200 203 206 204 204 208 199 141 82 49 47 104 185 78 8 10 10 10 15 14 24 85 110 110 123 125 123 122 121 121 120 
142 140 139 130 104 59 29 30 40 45 48 49 49 50 51 55 51 60 189 191 164 131 106 111 89 71 77 78 71 87 98 95 84 82 91 91 95 105 99 85 85 68 55 45 38 92 119 86 62 49 48 51 43 31 27 26 49 136 145 168 188 190 184 186 186 184 188 194 198 198 199 206 205 184 142 90 54 39 48 96 170 129 15 10 11 9 11 15 12 49 105 107 117 126 125 124 123 121 120 118 
143 142 141 133 106 60 28 30 38 43 48 50 49 48 50 53 53 51 171 200 183 137 86 91 78 68 74 66 84 94 90 81 83 89 88 88 100 92 74 86 67 62 60 58 35 46 63 48 32 33 30 22 18 11 12 56 113 134 171 196 190 184 181 183 184 184 188 191 194 197 200 186 121 66 41 39 49 68 117 159 101 29 10 13 11 9 14 13 17 80 107 111 125 128 125 124 124 122 120 119 
141 140 139 131 106 61 29 29 38 43 48 48 49 48 50 52 53 45 141 206 189 142 89 97 94 75 62 75 93 93 79 78 88 85 85 94 89 71 83 74 55 50 36 23 21 38 52 39 43 44 28 25 21 14 67 110 132 174 166 178 184 179 175 178 179 183 186 188 192 180 138 97 50 43 53 76 106 134 165 100 14 8 13 14 12 11 16 13 43 103 106 120 130 127 126 124 123 123 121 120 
139 139 138 131 107 63 28 29 37 43 47 49 49 48 49 51 54 47 96 202 186 154 106 102 101 69 72 90 90 78 79 83 84 79 93 95 82 71 67 38 30 27 19 15 31 55 32 23 38 36 23 23 30 74 113 147 178 170 165 172 171 169 169 174 175 180 186 181 136 78 51 75 98 106 122 132 140 160 95 15 10 12 12 13 11 13 15 18 75 107 108 127 131 130 128 124 125 124 122 120 
141 138 137 131 106 63 28 29 35 42 47 48 47 48 51 51 56 52 62 186 192 174 136 115 85 71 92 95 75 74 83 81 76 82 76 75 76 44 24 24 20 16 13 15 39 32 20 43 48 27 20 44 87 110 152 186 170 162 164 162 157 157 166 174 171 174 153 79 39 53 64 72 115 134 139 148 156 95 16 9 10 12 12 12 10 13 12 35 94 104 119 131 131 131 129 127 126 124 122 120 
143 139 139 133 108 65 29 28 36 41 46 47 46 49 49 53 59 59 51 129 212 175 143 129 71 83 88 77 75 81 77 77 84 86 67 40 33 22 23 19 17 26 10 22 26 16 24 33 34 44 36 74 108 160 190 181 169 163 162 152 151 156 164 171 164 163 99 33 41 48 73 68 94 129 152 140 62 11 10 11 12 13 12 10 13 14 15 55 88 99 127 132 130 130 128 129 128 127 124 121 
142 142 141 133 110 67 28 26 36 41 44 47 47 50 49 53 59 61 58 63 175 191 162 126 81 83 80 73 83 84 78 78 83 70 49 35 24 26 17 8 27 28 11 21 19 19 21 28 30 56 75 80 148 180 181 170 161 159 158 149 156 163 167 170 174 181 142 63 44 50 54 76 88 128 107 37 7 8 10 12 13 14 11 11 14 15 27 73 81 109 135 133 131 132 132 130 128 128 126 122 
142 141 142 135 111 68 28 26 34 40 45 47 48 49 49 54 60 63 62 53 107 207 183 130 86 72 65 78 76 70 79 78 71 49 26 25 29 30 14 10 24 26 17 12 13 17 20 24 34 46 77 119 155 160 162 150 150 153 152 152 152 168 185 187 188 189 171 96 39 38 35 61 91 94 39 7 8 8 12 13 14 13 9 9 14 16 48 81 83 119 134 134 133 131 131 128 129 131 127 125 
143 142 142 135 111 68 29 26 35 41 47 47 47 49 48 54 60 63 65 58 90 218 199 123 76 73 70 68 73 85 85 61 48 35 22 14 20 25 22 16 18 39 29 9 10 9 9 28 49 67 112 148 162 166 149 136 146 156 141 148 169 191 198 195 195 194 179 117 46 18 23 40 87 92 30 7 8 10 13 14 14 10 7 10 12 23 75 86 99 119 128 133 133 132 129 127 127 129 125 123 
140 141 141 136 113 68 30 26 35 42 48 48 49 48 49 55 61 65 67 61 84 212 187 78 65 71 71 69 79 78 71 43 15 20 14 10 11 23 25 20 20 27 56 23 12 8 36 73 97 118 125 159 170 161 138 135 152 146 145 164 184 195 202 201 204 208 197 142 58 19 13 26 87 95 19 8 9 12 14 14 14 9 9 12 12 44 91 90 113 114 114 118 124 127 127 127 126 128 127 125 
141 141 142 138 113 70 33 28 35 42 48 49 49 49 50 54 69 67 67 67 65 184 164 66 65 62 74 80 63 43 38 26 18 22 10 13 10 14 19 20 29 20 46 17 8 32 87 115 145 130 118 149 168 150 142 139 135 139 158 176 189 198 203 205 212 215 210 168 81 27 10 15 68 104 25 9 11 11 15 17 14 8 11 12 15 68 93 103 123 117 112 110 111 115 118 120 123 125 127 125 
141 141 142 138 115 70 32 28 36 43 48 49 49 50 51 58 76 67 70 71 64 123 165 72 68 71 80 81 59 33 16 12 18 22 12 13 11 12 13 17 39 34 47 26 25 81 114 149 159 144 121 156 173 143 136 130 136 151 164 184 194 200 207 208 213 217 216 187 102 35 12 11 50 105 31 8 11 12 16 16 12 9 11 11 31 90 96 118 129 125 120 116 114 113 113 110 109 111 114 116 
142 143 143 139 114 70 31 28 36 42 48 51 52 50 52 59 69 67 73 75 73 80 132 77 74 84 83 67 35 18 22 10 12 24 16 15 12 12 16 14 24 22 29 47 75 103 134 151 170 154 117 163 150 129 131 137 149 156 165 180 194 200 202 205 210 216 220 202 128 47 17 10 33 103 40 10 11 13 16 15 10 10 12 15 58 96 102 127 130 127 126 127 126 124 121 115 107 104 103 103 
141 142 145 139 115 70 32 28 35 43 49 51 53 52 54 59 65 70 71 69 69 78 75 79 84 83 70 41 21 14 26 14 12 18 28 16 12 15 17 19 19 21 14 58 92 132 135 141 169 165 146 142 126 135 143 147 157 162 165 174 187 197 194 200 204 210 217 207 150 59 20 11 21 97 55 12 12 13 16 14 10 11 11 23 79 93 112 128 130 128 126 127 131 131 127 120 114 109 105 103 
142 144 146 141 116 72 33 27 35 44 50 50 49 51 54 59 66 72 75 82 100 80 68 90 82 71 61 29 26 13 35 13 13 22 20 10 11 15 16 27 21 14 49 84 133 152 140 137 174 171 124 75 80 97 114 140 160 167 162 165 176 191 188 191 198 203 206 179 120 46 15 10 16 88 72 13 13 14 17 11 10 13 10 42 90 92 119 126 124 124 123 121 125 126 126 120 119 117 114 112 
143 145 146 141 117 73 31 27 35 43 48 49 50 50 52 58 65 70 73 97 108 25 11 75 105 48 30 26 22 19 43 11 11 12 13 10 9 20 26 27 16 35 84 124 155 170 135 153 173 125 96 98 94 68 49 60 94 140 156 156 167 184 182 181 179 159 121 81 58 39 20 11 10 73 86 15 14 16 15 10 10 14 14 60 92 101 126 126 123 122 121 120 120 122 124 121 118 117 117 118 
143 146 146 143 118 75 31 27 35 43 49 50 50 50 52 56 61 69 97 105 100 47 32 65 55 25 23 32 20 27 34 19 15 9 22 17 8 10 24 22 19 74 124 149 174 166 143 158 98 75 85 78 90 80 61 57 53 85 129 141 158 182 184 176 140 85 54 45 49 44 26 12 10 67 89 21 14 17 13 11 12 12 24 81 94 111 126 123 121 120 119 118 118 120 121 120 119 118 117 116 
144 146 147 141 118 77 34 27 36 43 49 51 51 51 52 55 83 96 111 117 118 101 77 34 27 21 40 31 34 26 17 21 19 9 17 36 15 9 10 12 54 108 147 161 184 164 141 69 35 31 24 20 25 22 26 65 90 89 110 129 153 186 192 153 74 34 25 17 13 16 18 9 10 61 94 27 15 16 12 11 13 10 37 94 99 120 123 121 118 118 119 117 118 120 120 118 118 117 116 114 
147 148 149 142 118 78 34 27 36 43 49 51 51 49 45 90 157 111 106 110 92 45 25 13 30 31 31 31 45 25 11 14 28 15 8 26 34 17 9 29 90 142 149 171 182 146 62 23 16 15 14 15 72 110 35 32 74 85 101 119 149 198 183 67 13 15 54 61 13 11 11 9 10 55 96 29 18 13 10 11 11 12 62 100 108 124 123 120 118 118 116 115 118 117 116 117 116 115 110 110 
147 148 149 143 118 77 34 29 39 46 50 50 51 51 42 85 137 122 116 93 67 26 14 25 21 22 15 39 47 18 7 8 23 25 8 9 11 11 15 56 113 143 162 185 163 83 49 29 20 40 29 28 117 204 125 57 65 74 92 116 160 215 135 43 26 24 75 97 23 9 10 8 13 49 105 34 22 13 11 11 11 19 82 100 115 123 122 119 117 117 115 116 118 117 116 116 114 110 108 106 
148 150 151 146 120 79 38 32 45 52 56 55 52 45 29 58 110 179 152 45 15 15 30 23 20 26 29 48 55 24 8 8 12 18 12 9 9 6 35 88 135 155 184 161 94 77 89 83 50 62 73 96 171 189 141 93 82 80 90 112 172 228 125 73 74 78 117 78 23 14 11 8 15 39 111 38 23 12 11 12 12 34 91 103 121 122 121 118 116 117 117 116 117 117 116 113 110 106 104 100 
148 152 153 148 124 82 41 35 48 58 60 68 33 33 85 104 130 109 38 23 31 36 35 14 25 35 36 59 64 42 14 7 8 9 11 10 9 18 70 131 153 180 164 83 82 98 105 110 99 87 82 94 105 115 134 120 90 87 91 108 167 232 163 109 93 82 68 37 29 24 13 9 16 33 118 49 21 11 10 14 15 61 94 108 125 121 119 118 116 116 116 115 116 116 114 110 107 102 98 97 
147 152 156 153 128 86 43 36 49 59 61 70 73 92 96 54 45 21 9 16 55 58 45 19 25 37 43 47 66 53 16 8 8 9 10 11 9 55 98 146 170 170 78 67 96 113 118 121 122 116 110 110 117 126 131 123 97 98 95 105 160 230 187 134 108 90 74 56 50 32 14 11 16 31 120 60 18 11 12 14 20 79 96 118 125 120 119 117 117 117 116 114 112 112 111 109 103 98 95 114 
148 153 156 152 128 88 42 36 48 57 60 64 88 89 56 30 24 12 17 25 40 44 36 17 23 34 50 58 45 47 15 9 7 8 10 8 28 78 126 168 177 81 54 81 98 115 127 139 143 146 141 144 148 145 142 122 106 102 96 102 151 226 201 152 126 106 90 76 64 38 15 14 18 28 118 70 16 12 12 12 34 88 101 125 124 121 117 117 117 117 115 111 110 110 107 104 99 95 120 160 
144 151 154 151 128 87 42 35 46 56 71 86 88 96 70 52 21 15 30 43 49 40 19 10 20 41 44 57 62 48 35 15 9 9 9 11 63 95 158 182 96 31 66 86 98 114 127 141 151 158 156 158 154 153 143 124 114 105 99 100 140 223 211 152 130 109 93 83 72 41 16 15 18 22 111 84 15 12 13 13 54 95 108 126 124 121 117 116 117 117 113 109 108 108 104 100 96 116 163 184 
146 151 153 150 127 87 43 34 47 64 76 84 73 47 23 18 16 25 31 52 54 29 8 9 10 16 32 34 14 34 70 24 7 9 7 33 82 132 171 126 21 36 71 86 95 111 123 136 151 161 164 163 156 152 138 123 115 109 98 100 133 216 221 150 130 115 100 87 74 38 15 15 20 19 100 95 21 12 14 18 72 100 118 126 122 119 116 115 114 112 110 108 108 106 101 96 104 155 186 188 
144 147 149 146 125 88 43 33 45 53 60 64 46 43 34 31 30 27 24 59 31 14 9 11 10 9 13 17 12 35 72 63 11 7 10 61 99 170 155 35 14 38 73 89 97 107 118 127 139 151 158 160 153 146 133 117 109 105 92 97 124 198 228 149 127 114 100 87 69 33 13 13 22 15 95 103 31 11 14 29 87 102 123 126 120 117 117 115 112 110 108 105 105 104 99 97 135 181 187 185 
143 145 144 143 125 88 40 35 57 53 75 82 56 42 51 37 29 22 21 56 44 14 11 10 7 8 15 18 15 49 70 75 52 5 31 76 140 185 77 9 19 36 67 87 96 105 115 127 134 143 152 152 148 140 128 110 100 96 88 92 116 183 234 156 123 112 98 85 64 24 11 16 23 12 82 104 41 10 12 45 97 109 126 126 120 118 117 115 112 109 107 106 103 100 96 114 168 190 186 184 
142 145 143 143 125 88 41 33 70 77 84 71 26 50 49 26 20 36 38 65 58 25 10 9 6 11 33 36 33 76 115 36 36 8 57 94 174 113 12 12 26 37 65 85 94 101 109 120 128 133 137 141 140 136 123 104 93 93 87 87 110 163 237 170 117 110 96 82 52 16 10 17 23 10 70 111 52 9 13 64 100 117 125 122 118 116 116 115 113 110 108 106 102 98 98 144 187 188 186 190 
142 148 148 146 127 88 40 28 49 68 67 65 29 40 36 26 30 41 37 58 59 24 6 10 9 13 32 46 77 52 51 17 11 33 69 114 130 28 6 14 34 37 63 81 91 98 106 116 122 126 129 134 135 130 115 92 84 98 98 91 105 154 231 174 109 106 91 74 36 9 10 19 20 10 54 116 70 11 21 86 107 121 122 119 116 114 113 113 112 110 108 105 103 95 114 173 194 189 190 203 
143 147 148 148 130 91 44 42 63 57 61 49 26 41 43 24 32 35 32 51 65 32 14 12 12 11 37 43 53 42 14 8 37 118 115 117 76 11 8 15 40 38 65 83 89 96 105 113 118 122 125 128 131 127 114 88 85 93 88 90 92 136 197 148 107 101 86 61 18 8 11 19 18 11 40 118 76 16 36 102 111 123 120 118 115 115 115 112 110 110 108 106 102 96 135 185 191 189 200 212 
142 145 147 147 129 92 49 37 42 49 60 41 29 49 44 17 49 29 27 47 78 47 26 11 17 8 11 22 54 20 9 8 73 147 158 96 17 7 10 16 44 46 65 80 88 95 104 112 119 123 124 127 129 128 117 99 85 71 59 69 76 112 160 130 109 96 81 40 9 10 13 21 18 13 28 111 86 23 59 109 116 124 119 116 117 114 114 110 110 108 107 106 101 103 154 190 193 198 212 218 
139 142 146 149 130 92 44 28 38 51 61 38 29 35 25 33 41 29 32 46 70 66 36 7 41 49 6 25 32 18 40 61 67 110 120 25 9 10 10 16 52 50 69 81 89 94 100 109 115 116 120 125 129 129 126 118 105 97 105 110 127 170 159 126 107 90 69 19 7 10 15 22 19 15 18 100 87 33 80 111 120 122 118 117 116 113 112 113 111 108 106 104 98 109 165 190 196 208 217 217 
138 141 146 149 132 94 45 27 37 48 75 46 17 27 32 36 18 26 39 50 52 71 58 14 36 55 13 14 39 71 116 88 62 124 47 7 10 12 11 15 50 51 69 82 88 93 100 107 110 113 120 126 127 129 128 123 118 115 139 172 164 190 160 119 104 89 48 9 8 10 18 24 19 15 11 84 91 48 96 112 121 120 118 115 113 111 111 110 110 108 107 105 97 119 174 191 203 217 219 217 
138 140 146 149 134 97 46 27 37 62 80 40 20 44 38 20 12 19 28 40 43 56 72 37 37 23 13 26 90 134 128 47 79 62 9 11 12 16 14 13 47 54 68 83 91 95 101 106 109 109 112 118 120 121 122 118 121 126 163 204 176 198 158 112 99 77 23 9 9 12 19 25 20 15 9 68 92 67 103 113 121 120 117 115 112 112 111 108 107 107 106 102 95 125 179 198 213 220 217 217 
140 142 148 151 136 98 47 27 46 70 64 40 31 47 14 16 17 20 22 26 34 38 68 71 42 13 56 73 113 143 69 61 69 12 17 12 13 19 18 12 40 51 61 81 91 94 100 105 108 106 107 109 110 111 112 113 118 125 142 172 170 160 138 95 92 52 10 9 10 13 20 26 22 18 8 57 94 80 108 115 121 118 116 113 111 112 111 109 107 107 106 101 94 130 185 209 224 222 219 221 
142 145 149 150 136 99 47 30 63 51 68 35 23 37 13 15 15 29 36 28 28 31 41 70 45 54 104 171 170 85 54 86 20 10 25 12 13 20 21 13 35 44 52 78 92 93 95 101 106 107 104 80 74 83 87 87 82 76 74 89 93 76 76 79 83 23 8 8 8 13 19 25 22 18 10 45 98 97 113 117 120 117 116 114 114 112 110 110 108 108 107 100 94 139 195 222 228 224 221 220 
146 149 151 152 136 97 49 58 51 58 81 28 19 19 14 17 15 43 60 43 36 37 53 36 44 88 120 201 122 51 96 45 6 8 15 12 13 18 23 14 30 36 46 70 86 88 90 98 103 111 109 86 71 65 67 78 83 92 101 124 122 88 90 93 53 10 9 9 11 14 20 26 21 20 14 34 105 110 116 119 121 118 117 116 115 110 110 108 107 107 106 99 96 148 209 228 227 225 224 225 
145 150 152 151 135 102 76 53 37 75 60 26 24 15 12 21 22 56 64 34 51 42 31 40 70 99 107 150 72 101 73 8 10 9 12 13 12 16 20 14 23 31 38 61 76 81 85 91 97 107 113 109 96 87 86 93 109 132 140 142 132 106 104 75 18 8 9 8 12 13 25 29 22 20 15 29 110 117 118 118 120 118 115 117 116 112 111 107 107 106 105 96 95 159 224 234 228 225 229 233 
143 152 153 153 141 112 56 25 58 70 46 25 46 15 16 28 29 68 67 33 36 49 50 53 96 99 122 108 113 89 13 6 9 8 9 10 12 15 18 14 19 27 30 49 64 71 77 84 90 100 106 109 101 92 87 87 87 92 95 94 103 106 90 37 8 7 10 11 13 14 26 28 25 21 18 27 111 119 118 118 119 117 116 118 119 114 110 108 106 103 100 92 89 164 235 238 231 230 234 236 
142 151 152 151 134 94 42 27 70 50 35 24 45 11 20 21 28 93 60 64 47 33 71 64 64 79 126 134 109 20 6 8 11 9 9 8 11 13 16 15 15 24 23 35 50 60 69 80 89 97 102 104 103 97 94 96 97 96 100 106 112 101 58 16 7 8 10 13 11 12 29 28 25 22 20 25 114 123 115 119 118 116 115 117 118 116 110 107 104 101 99 88 83 167 240 243 235 235 233 231 
140 149 150 150 135 97 44 27 62 44 22 23 23 10 20 18 26 91 66 72 67 46 45 61 47 60 141 139 32 6 9 9 13 10 10 9 10 12 16 16 14 20 20 27 38 53 63 75 89 96 101 103 107 110 118 121 133 140 132 124 113 92 26 12 8 8 13 14 13 12 33 29 26 25 22 25 113 125 113 119 118 115 112 114 114 115 111 106 100 97 95 84 81 180 246 244 232 228 226 228 
140 148 149 149 134 97 46 24 44 41 20 27 16 9 21 15 24 61 44 58 75 61 41 66 75 43 90 61 8 8 8 9 12 10 11 10 10 10 13 16 14 16 17 22 23 31 47 63 82 92 99 105 114 121 137 141 143 142 142 130 111 69 14 11 8 9 16 14 14 15 38 34 28 24 24 24 114 125 113 119 117 113 110 111 112 112 109 105 101 97 93 83 90 197 249 237 225 227 231 231 
138 145 146 146 134 99 46 23 37 30 14 26 17 10 17 12 20 64 32 26 60 73 77 72 87 53 35 19 8 8 8 9 14 10 15 9 10 8 10 16 14 14 17 18 22 14 24 41 62 75 87 96 107 115 127 138 144 137 135 123 99 48 13 11 9 10 17 14 14 18 40 34 28 27 25 26 111 121 98 99 105 106 108 111 112 111 107 103 101 96 89 78 104 213 246 231 223 225 225 221 
140 144 146 147 134 97 42 31 56 28 12 24 18 15 14 10 13 73 58 27 37 62 72 73 93 80 68 32 4 7 7 11 17 9 13 9 9 10 10 12 16 17 17 15 26 22 18 28 39 52 65 76 90 105 120 127 137 132 125 110 97 50 10 8 9 11 17 16 14 21 39 35 28 29 25 29 112 105 70 68 77 84 89 97 101 106 103 101 96 90 83 74 131 225 232 221 218 215 210 204 
139 144 144 145 132 91 66 102 58 46 10 19 15 16 13 9 11 62 80 44 23 50 55 68 85 81 60 86 43 6 6 12 20 9 14 9 8 10 10 10 13 16 16 13 22 36 48 70 85 93 98 96 101 109 121 124 125 127 133 146 166 153 107 49 14 8 13 11 12 19 37 31 26 29 26 34 113 89 64 61 60 64 64 65 71 79 85 87 89 86 80 74 151 225 216 212 214 210 198 183 
138 144 144 144 132 116 111 50 27 29 6 22 18 16 17 18 12 46 73 66 31 46 86 53 52 70 38 67 93 45 5 13 19 9 16 10 8 10 10 10 11 15 14 14 20 41 65 83 88 88 93 98 102 109 113 113 111 116 134 158 182 194 196 179 132 70 23 10 11 20 36 29 24 27 24 39 111 88 84 85 75 67 60 55 50 50 54 57 60 64 63 61 145 213 205 208 209 204 188 152 
137 142 142 144 146 120 49 30 55 18 6 15 23 15 18 34 21 17 54 61 49 70 68 40 47 60 51 90 62 64 28 12 17 9 17 10 8 10 12 10 10 13 16 15 17 38 65 78 84 88 91 99 102 107 107 107 110 120 140 164 183 189 195 198 200 196 155 65 12 16 32 28 23 25 23 42 110 99 100 98 93 84 77 70 59 53 46 39 38 56 59 40 129 207 206 213 204 188 147 90 
133 140 141 143 138 98 56 71 49 6 6 12 38 22 18 44 32 16 21 52 53 55 34 48 55 69 77 67 63 33 59 17 15 9 18 11 8 8 12 11 10 13 19 21 15 34 60 74 82 88 89 99 107 107 106 109 117 128 145 164 179 183 188 192 201 206 212 196 109 22 24 24 20 25 20 49 113 106 108 103 101 94 89 86 79 72 63 52 47 74 73 50 149 214 214 213 198 157 67 19 
135 144 143 144 133 107 123 57 19 7 7 13 42 50 48 34 23 24 34 24 47 29 22 36 54 78 89 74 41 68 49 43 9 7 17 10 7 7 11 12 11 14 22 33 15 31 61 77 85 86 97 103 107 107 107 112 124 135 143 155 167 175 180 187 196 205 212 216 214 130 26 19 18 22 17 56 111 106 110 105 104 101 95 92 88 82 76 69 64 79 80 86 183 218 216 210 180 116 29 18 
134 147 144 145 133 122 140 58 14 9 11 15 16 17 20 17 17 20 17 22 43 18 23 35 43 65 88 81 49 80 59 60 11 6 16 11 8 7 12 13 10 17 28 49 21 26 64 76 81 94 102 103 107 108 111 116 127 137 143 151 161 166 172 180 194 203 212 218 223 223 120 18 15 21 16 67 109 107 109 105 104 102 100 96 92 87 82 76 76 88 88 120 209 221 216 204 154 71 24 33 
139 150 147 147 135 116 96 38 11 8 9 14 13 10 9 29 18 7 17 13 27 25 21 28 44 57 74 80 90 48 76 85 31 6 17 12 9 7 12 14 9 16 37 67 34 23 57 77 94 97 101 105 108 109 111 117 124 131 138 146 154 160 168 177 189 199 208 217 222 231 219 77 13 18 14 75 103 106 108 106 106 102 99 98 93 92 84 78 78 92 104 147 219 222 214 195 125 40 30 36 
136 149 148 148 138 112 95 48 12 8 10 15 8 8 11 38 20 13 11 24 22 23 32 41 40 39 60 83 104 46 41 99 61 5 16 16 11 7 12 14 8 14 43 67 38 21 57 86 94 98 99 103 108 110 112 118 121 128 135 142 150 157 166 172 183 198 209 218 223 230 237 180 36 13 14 85 105 109 108 107 106 101 97 96 93 92 86 79 84 121 154 181 225 223 210 175 91 37 39 40 
136 150 148 149 139 108 73 37 7 7 10 9 7 8 15 49 17 18 7 15 28 21 30 46 46 34 55 96 95 35 22 112 52 6 17 20 10 7 14 12 10 21 52 61 44 24 59 90 93 99 102 103 106 109 112 117 119 126 130 137 147 153 160 173 181 196 209 219 225 230 234 229 95 12 18 91 109 111 111 108 106 101 97 93 91 88 83 78 120 189 202 211 230 223 199 135 58 39 42 51 
139 150 148 149 140 110 85 29 8 10 8 7 7 7 29 54 11 14 12 9 10 11 23 39 49 32 53 89 92 53 32 98 44 9 20 18 10 10 14 11 11 29 61 73 50 27 63 92 100 103 104 103 104 106 109 113 117 123 128 135 144 150 158 168 180 194 208 219 224 229 230 237 166 18 23 96 112 111 108 106 104 99 97 92 89 86 81 84 168 235 222 219 229 217 176 96 49 41 45 58 
140 150 150 151 140 112 77 16 10 9 7 7 7 15 47 40 8 8 14 9 8 11 16 25 57 32 54 95 92 72 88 83 52 12 16 14 12 11 12 11 17 49 80 79 50 32 67 92 101 105 106 105 105 105 109 113 117 121 127 135 140 146 155 164 177 192 203 215 222 227 229 232 213 50 28 97 112 110 106 105 103 100 98 95 91 86 81 94 191 232 215 223 228 204 142 77 55 47 50 64 
139 149 147 144 136 111 71 20 11 8 7 7 12 22 25 29 8 9 14 7 8 14 18 21 30 57 76 86 60 73 102 76 41 30 20 17 14 11 11 12 28 63 84 81 44 35 73 95 100 105 109 107 103 102 107 110 113 119 125 131 135 142 150 159 175 189 200 211 220 226 228 229 231 101 34 101 112 112 105 103 101 99 98 97 92 85 83 108 197 223 205 224 224 181 107 70 56 49 52 58 
139 149 145 141 135 110 78 22 8 8 8 8 13 11 15 24 11 10 9 8 8 13 25 20 11 44 76 71 59 26 28 32 39 43 50 50 29 11 11 17 41 73 84 83 40 43 84 96 100 105 107 106 102 100 105 109 113 118 122 128 133 139 148 155 168 185 198 207 217 224 226 228 233 160 47 103 110 111 105 104 101 98 99 98 92 87 88 107 181 211 203 227 216 154 84 64 54 44 49 49 
137 149 149 146 139 113 79 19 9 7 8 8 11 10 9 15 10 8 9 10 8 12 26 24 29 41 59 60 59 61 22 11 7 12 15 19 25 12 11 25 53 75 83 75 34 55 91 100 104 106 107 107 104 102 104 107 110 115 119 126 131 137 143 151 163 180 194 204 213 220 226 229 229 201 80 101 102 104 105 105 105 102 100 97 92 91 94 100 125 156 191 228 205 134 71 58 47 41 43 33 
134 147 147 145 137 113 94 27 11 6 11 17 15 8 11 11 9 10 9 14 10 18 20 29 26 57 65 61 27 58 72 49 10 10 13 11 10 9 14 37 62 77 81 59 31 68 96 104 107 108 108 106 106 103 102 105 110 113 118 123 129 134 139 147 159 172 186 199 208 219 226 229 227 223 131 85 64 71 81 93 100 103 102 101 97 99 106 107 100 114 191 230 190 111 63 49 41 43 34 30 
131 145 146 146 139 112 89 31 12 6 12 10 7 9 13 12 12 13 11 13 10 21 12 29 43 17 18 49 27 34 76 44 10 10 11 10 10 9 20 49 69 78 79 40 39 86 100 104 107 110 111 109 109 106 104 107 110 113 117 122 126 131 137 145 153 164 181 192 206 219 226 229 228 229 170 53 33 37 44 55 65 73 81 87 96 109 119 105 95 129 210 221 159 84 50 34 38 36 27 41 
128 141 145 146 141 115 76 30 12 7 9 6 7 11 12 9 13 12 7 8 8 14 21 42 67 39 14 17 22 40 36 16 9 9 8 8 8 14 34 61 72 76 61 24 58 96 99 101 107 111 110 109 109 105 105 105 107 110 114 117 124 129 135 142 149 158 174 186 202 215 222 225 226 229 200 53 29 29 27 28 29 32 38 45 61 91 113 122 114 153 221 198 117 55 29 28 35 28 36 49 
124 140 145 145 143 115 64 34 14 8 7 7 11 10 11 8 12 12 9 8 9 13 14 32 57 81 49 38 40 22 9 9 8 8 7 8 9 24 51 70 75 68 30 33 85 100 99 101 105 108 111 111 110 108 106 103 105 107 110 115 121 126 131 135 145 157 168 181 198 211 219 223 227 228 222 92 36 43 38 31 23 16 13 12 16 37 116 172 139 176 214 166 76 27 20 27 26 34 46 38 
123 140 145 145 144 113 53 34 11 7 7 9 10 9 10 10 13 11 10 8 7 10 10 12 31 77 84 53 46 27 7 9 7 7 7 8 16 37 62 72 72 39 21 67 97 102 102 103 105 106 109 113 111 110 107 106 105 106 107 110 117 123 129 134 141 152 162 176 193 205 214 221 223 226 229 146 40 51 51 42 31 22 14 9 5 23 149 185 145 187 186 106 31 16 21 22 27 43 38 29 
123 142 146 147 146 107 55 36 9 9 11 8 7 9 7 10 11 13 13 7 7 9 15 15 10 31 72 75 51 32 6 7 7 7 7 13 30 50 69 69 43 20 54 86 96 101 104 104 105 108 109 113 113 111 109 107 104 105 106 107 114 120 126 132 139 145 155 168 185 200 212 220 223 225 225 190 55 47 56 49 38 32 24 17 13 27 134 191 171 154 102 33 12 19 20 24 40 38 25 24 
120 140 145 148 147 107 54 32 8 6 6 7 7 9 7 7 11 9 12 11 8 17 15 17 16 23 38 46 55 15 6 7 7 7 9 23 43 59 66 36 18 44 77 90 97 102 106 104 105 107 109 112 112 111 110 110 105 105 107 108 113 120 123 127 135 141 150 158 175 193 205 215 222 225 224 216 82 37 50 49 44 40 32 26 29 42 134 200 159 82 33 14 16 19 21 37 42 28 21 24 
