P2
50 50
255
-6 50 -28 6 9 -56 6 6 -31 -4 -18 9 54 -71 -11 -59 -13 -26 -52 38 -55 -27 -34 35 17 44 -8 -7 -35 69 -28 -42 -22 -16 -1 10 3 13 9 22 21 47 51 45 6 11 -34 -2 32 23 
-26 65 -33 -18 -44 -42 -10 14 -62 -19 -40 -5 15 -124 -37 -14 17 16 -5 61 -44 -2 -3 54 -3 6 -47 -41 -9 73 -8 -48 -56 -29 -8 30 34 14 -8 20 -52 -12 39 24 45 13 -34 -16 34 34 
-52 50 -42 -38 -95 -72 -42 9 -18 2 -28 -5 -7 -121 -28 3 3 18 -4 58 -48 -3 -32 44 0 -15 -96 -44 11 76 9 -67 -62 9 9 76 57 -2 16 15 -79 -27 44 3 55 21 -40 -23 20 -28 
-51 22 -52 -47 -55 -123 -49 20 35 37 -31 -9 -1 -77 -12 11 -18 29 -16 58 -58 16 -54 40 21 -20 -84 -11 37 83 -10 -54 -72 30 29 93 53 -18 30 -11 -66 -20 58 -15 60 41 -32 -10 12 -52 
-34 -3 -28 -64 -27 -142 -0 8 69 48 -28 6 4 -67 -28 30 -20 25 -7 29 -71 15 -60 30 16 -52 -91 -16 38 54 -31 -53 -92 39 -3 55 58 -7 10 -20 -54 -29 28 -7 41 70 -29 -22 -2 -42 
-24 -12 15 -67 -13 -136 36 -8 90 60 -45 17 15 -81 -31 49 -1 25 40 28 -38 12 -37 14 25 -48 -88 -6 44 48 2 -29 -77 64 -6 33 88 20 9 13 -31 -40 16 -16 15 65 -34 -27 7 -47 
-21 -3 24 -70 2 -121 43 -16 85 48 -37 44 76 -65 -4 50 12 13 50 49 -16 18 -24 20 39 -27 -74 -8 56 41 23 10 -51 78 5 35 78 32 33 18 -16 -30 12 -29 6 33 -33 -25 23 -41 
-15 7 14 -48 -12 -79 24 -32 68 25 -19 80 75 -4 79 3 -18 -32 61 44 -27 12 -38 10 63 -26 -52 -5 53 44 -7 65 5 77 -10 8 45 53 68 32 -18 -35 31 14 32 15 -89 -16 3 31 
-8 41 8 2 -36 -47 38 13 52 19 -10 52 31 -5 143 -16 -9 -23 63 65 -46 13 -2 27 90 -21 -22 22 30 54 -27 83 7 23 -15 49 9 45 88 36 -49 -47 32 15 73 16 -122 -19 4 111 
-2 95 12 24 -39 -38 32 74 41 10 -43 38 4 -89 138 -6 66 1 61 92 -32 14 28 34 82 -19 -36 52 29 83 -12 87 -19 -41 -33 75 2 29 67 15 -75 -41 7 1 66 -1 -106 -19 15 110 
-19 110 14 40 -50 -62 15 66 48 18 -26 12 -29 -130 110 13 92 41 99 98 -18 -7 6 -2 66 -15 -57 60 21 79 -8 87 -7 -39 -26 63 -11 23 28 -10 -77 -40 -47 4 22 -6 -102 -28 9 77 
-20 100 -1 46 -46 -67 -8 42 54 19 -28 13 -29 -81 99 10 71 52 110 71 -17 -46 -30 -59 62 -25 -63 59 31 118 -13 62 -8 -18 10 92 30 13 9 -11 -83 -35 -84 -4 -51 8 -90 10 2 47 
-6 64 -32 42 -9 -46 42 15 96 -39 -21 32 52 -12 126 -45 7 -4 35 75 -27 -58 -21 -71 84 -30 -14 60 16 103 -6 33 26 -49 25 64 40 -11 -16 30 -10 5 -13 13 -69 -1 -112 41 -10 74 
7 55 -45 32 47 -70 61 -15 90 -60 -36 -14 37 -31 97 -76 1 -8 -20 68 -52 -38 2 -71 70 -31 3 49 -2 71 -43 -2 12 -89 13 24 30 -51 -32 14 9 23 10 10 -67 -19 -88 58 -26 83 
13 60 -51 39 68 -67 58 -9 92 -30 -43 -23 39 -4 92 -62 12 -9 -18 77 -46 -17 12 -64 81 7 17 37 8 86 -40 46 12 -37 -5 44 27 -67 -2 8 20 41 25 19 -56 -29 -64 67 -18 89 
-3 76 -67 6 78 -61 27 -18 51 -27 -54 -33 24 -33 61 -64 28 -12 -23 53 -70 -21 -2 -66 62 -1 -24 3 -0 58 -89 47 -46 -34 -48 83 19 -61 -4 -26 -21 4 7 -8 -35 -36 -36 46 -42 57 
-23 72 -80 -2 37 -46 -23 -4 30 -10 -49 -26 0 -57 23 -54 8 -13 -39 18 -89 -44 -30 -66 29 -29 -67 -32 -1 45 -123 34 -73 -47 -29 87 25 -40 -12 -18 -61 -24 -5 -36 -11 -48 -47 20 -68 -4 
-23 49 -104 35 -37 -21 -46 -1 57 7 -34 -51 -18 -38 26 -26 -6 -16 -60 22 -93 -40 -28 -73 20 -28 -78 -23 -16 40 -134 40 -38 -28 -30 35 -2 -43 -19 15 -29 -20 15 -37 21 -50 -65 32 -64 -29 
-4 16 -96 26 -29 -45 -52 4 58 10 2 -51 1 -15 17 -2 -60 -9 -47 21 -74 -12 -74 -48 -15 -14 -71 29 -5 40 -132 24 2 2 -9 -24 -42 -42 -0 4 -26 20 19 -22 52 -21 -70 68 -36 -1 
5 3 -73 32 -19 -35 -31 -6 30 12 -4 -12 31 20 33 -6 -54 -17 -52 5 -68 -30 -78 -45 -20 -12 -41 42 -6 37 -112 44 34 23 -22 -31 -49 -45 11 36 -27 18 19 -13 54 -3 -60 68 -9 7 
4 15 -60 44 0 -25 29 -53 20 -13 -17 11 16 35 40 -32 -39 -29 -53 -2 -57 -29 -28 -42 4 -21 -6 31 -33 18 -89 47 46 16 -37 -44 -32 -61 2 45 0 23 22 -2 44 -28 -77 32 -10 26 
14 14 -39 15 51 -45 68 -84 -12 -38 -6 -14 20 -0 33 -56 -55 -38 -46 16 -48 11 23 -34 24 -46 15 36 -21 -6 -96 48 41 -4 -38 -55 -14 -66 -6 28 17 6 34 23 31 -26 -63 1 15 79 
16 -0 -2 21 53 11 57 -101 -44 -74 -8 -27 -2 16 38 -43 -22 -18 -27 29 -24 -6 70 -20 7 -36 65 74 -0 -36 -84 64 34 -53 -34 -19 -7 -55 -23 13 -2 9 15 12 30 -42 -22 2 16 105 
19 0 28 65 41 74 59 -88 -47 -79 -22 -24 -42 35 57 -11 -2 15 -18 -10 -13 -19 97 6 -20 -19 77 81 -15 -45 -34 34 15 -49 0 -15 -14 -14 -44 -14 14 3 -48 -9 50 -94 -7 9 -8 90 
31 -4 22 98 13 82 54 -46 -56 -70 3 -39 -90 71 59 11 14 45 -14 -16 0 -31 119 10 -40 -31 81 55 -43 -62 -20 -22 6 -48 -3 -20 -28 -22 -53 -44 15 -24 -64 -54 34 -89 -30 -1 -45 83 
40 -19 18 88 -14 69 34 -32 -94 -63 21 -54 -109 62 13 22 -13 59 -45 -5 -20 -56 107 -3 -72 -69 75 40 -66 -96 -40 -37 -14 -67 -15 -9 -60 -55 -59 -38 -14 -32 -82 -88 47 -55 -4 5 -46 67 
36 -47 23 61 -20 58 4 -15 -152 -37 -2 -48 -101 33 7 20 -26 57 -27 -27 -33 -74 75 -11 -80 -53 46 54 -62 -99 -35 -34 -26 -47 -35 8 -80 -44 -34 -51 -4 -29 -106 -82 43 -23 6 -8 -58 40 
21 -41 29 49 -31 56 -13 8 -124 16 -13 -27 -77 21 63 -12 -4 26 30 -45 -3 -89 60 -21 -51 -18 19 65 -27 -74 -9 -17 5 -38 -15 13 -65 -5 -4 -51 14 -2 -99 -38 31 -23 4 -24 -32 40 
-7 0 4 32 -27 24 12 -41 -64 14 -50 20 -117 31 99 -32 9 24 49 -8 9 -99 58 -36 8 -60 19 26 18 -64 -5 11 39 -53 -5 -31 -26 -3 -5 -56 -5 10 -103 11 62 -29 6 -22 0 54 
-15 49 -17 52 -19 5 27 -90 -37 -1 -51 20 -111 14 89 -25 4 41 33 7 -20 -94 47 -45 49 -83 18 18 25 -45 -14 26 17 -24 -24 -18 7 -32 -16 -45 -3 -25 -95 3 85 -29 -22 -7 -5 69 
-31 86 -21 58 -35 -7 29 -123 -11 3 -28 4 -83 6 64 -25 -12 33 2 13 -59 -94 17 -44 84 -91 -8 -3 15 -28 -37 15 4 -7 -5 -2 43 -22 -16 -26 18 -49 -59 -19 98 -34 -54 -16 -19 46 
-49 78 -22 39 -56 -8 46 -107 12 -12 -20 -9 -63 10 36 -7 -40 1 -28 34 -65 -70 -1 -20 92 -92 -32 -18 6 -32 -45 1 22 11 1 -7 41 -17 14 4 11 -60 -47 -38 108 -12 -81 -27 -25 13 
-58 58 -30 16 -73 4 47 -82 19 -30 -21 3 -38 18 28 19 -57 -18 -28 51 -50 -58 -8 19 79 -93 -39 -15 4 -42 -43 -15 18 11 -9 -31 18 -13 18 26 0 -66 -46 -38 130 1 -84 -19 -24 -12 
-48 50 -37 23 -92 3 39 -61 22 -23 -2 7 -26 22 18 28 -46 -12 -23 52 -40 -52 -14 41 67 -89 -30 -20 23 -28 -36 -24 15 8 -10 -50 8 -5 1 40 -8 -49 -22 -30 134 10 -74 -1 -15 4 
-27 53 -35 27 -62 13 44 -48 37 7 23 -23 -32 31 4 37 -42 -12 -25 55 -34 -24 12 62 53 -59 -30 -32 29 -12 -54 -34 11 3 2 -50 19 -11 -27 31 -16 -29 11 -25 106 -1 -71 22 -0 32 
-27 32 -49 25 -28 19 25 -55 40 24 37 -32 -24 48 2 48 -47 -6 -41 43 -52 -8 3 49 27 -48 -59 -51 31 13 -79 -48 -3 -11 26 -28 25 -21 -64 19 -23 -12 43 -6 73 -12 -51 34 -4 12 
-20 28 -45 22 -23 22 21 -46 19 -1 33 -31 -16 46 -10 54 -58 -19 -59 33 -68 -2 -8 48 20 -35 -61 -54 14 22 -96 -46 1 -18 29 -26 10 -15 -62 31 -19 -9 54 18 76 13 -42 34 9 -7 
-22 28 -48 17 -26 24 4 -32 4 -12 32 -46 4 60 -18 47 -66 -11 -62 22 -72 18 -21 44 29 -4 -51 -44 16 32 -95 -40 12 -13 39 -13 5 -5 -49 31 -12 4 45 28 72 31 -41 38 28 -16 
-22 28 -46 10 -14 19 -5 -7 -6 6 39 -56 31 86 -24 40 -72 10 -60 16 -70 35 -35 36 20 31 -55 -37 13 23 -82 -31 24 -5 47 -11 -6 -11 -23 21 -8 26 30 32 54 38 -35 25 34 -24 
-25 22 -45 20 -8 1 -15 11 -22 34 40 -58 39 86 -22 20 -72 19 -56 7 -47 45 -51 39 -2 43 -51 -20 12 21 -62 -24 29 15 50 -4 -25 -33 6 22 -2 48 13 37 40 36 -29 3 35 -27 
-27 -4 -41 34 -15 -9 -22 25 -41 71 35 -53 37 75 -18 22 -64 15 -59 -9 -14 37 -49 36 -21 39 -43 -3 -1 32 -54 -16 30 23 52 17 -45 -47 36 30 -1 62 9 18 40 30 -27 -10 35 -25 
-12 -46 -24 46 -35 -9 -26 28 -42 94 31 -51 28 61 -8 37 -67 10 -41 -34 17 4 -39 35 -38 28 -29 17 -9 37 -43 -18 24 45 41 28 -36 -26 45 17 1 50 15 17 27 36 -26 -13 31 -17 
6 -85 3 28 -36 0 -42 40 -44 96 32 -32 9 35 2 54 -70 1 -4 -54 23 -19 -14 36 -38 12 -41 49 3 16 -38 -10 10 70 40 16 -19 9 41 4 -1 43 12 16 11 51 -31 -25 33 -20 
3 -76 20 2 -41 19 -59 52 -51 89 22 -6 -3 30 21 59 -61 -27 34 -58 5 -21 -3 33 -35 11 -50 59 3 -6 -40 20 20 65 52 1 -16 19 36 1 -4 57 -2 17 16 53 -25 -29 36 -30 
0 -55 27 -0 -51 29 -48 52 -35 83 10 11 -10 37 50 60 -59 -46 61 -53 7 -24 4 20 -28 53 -49 39 -2 -15 -17 52 25 60 54 -2 -23 26 36 -6 6 52 -28 43 30 38 -12 -5 41 -47 
-14 -21 12 -8 -61 21 -47 50 -20 77 2 13 -17 9 62 35 -59 -27 81 -57 13 -31 -6 10 -16 71 -50 8 5 -6 22 44 13 63 30 13 -37 51 42 -10 11 23 -41 69 40 39 9 -10 51 -54 
-28 -10 -15 -20 -75 16 -50 35 -36 60 -5 -1 -20 -31 55 1 -35 -32 74 -68 -6 -26 -15 15 -22 17 -63 -24 -6 -27 20 -22 -19 33 -7 7 -56 60 37 -24 9 -27 -59 67 38 59 13 -44 27 -41 
-24 -13 -13 -13 -47 -22 -26 23 -46 59 14 -17 23 -31 57 -13 -16 -39 45 -36 -9 -7 -37 17 -16 8 -48 -31 -8 -21 9 -12 8 5 8 -1 -68 45 61 -12 -7 -24 -37 34 28 57 2 -59 20 -29 
-16 -22 3 -22 -31 -55 13 4 -42 46 27 -49 64 -56 55 -8 -19 -39 33 -1 -27 -14 -54 9 -10 14 -52 -8 -15 7 -12 21 -0 2 3 -3 -46 25 38 34 -11 -41 -19 22 20 55 9 -64 26 -27 
1 -43 32 -43 -32 -64 47 -18 -34 47 12 -38 71 -93 49 -10 -10 -37 64 -35 -9 -14 -34 6 -5 0 -58 17 -22 -1 1 2 -34 46 -26 -6 -10 3 32 48 -9 -74 -17 25 -8 75 -8 -67 24 -21 
