P2
100 100
255
193 190 176 168 68 112 120 69 96 104 161 89 29 47 116 165 174 178 173 165 155 146 143 145 153 161 157 137 115 108 102 132 164 159 161 159 158 157 158 159 161 160 163 161 107 86 95 99 101 101 102 100 98 97 98 99 119 197 192 206 216 185 134 140 148 135 159 165 148 130 128 123 112 130 139 128 102 84 77 81 109 145 138 106 98 103 104 108 103 102 101 90 90 93 103 99 99 95 99 103 
196 183 179 151 56 111 119 50 75 100 195 120 30 43 107 148 146 146 148 149 149 145 138 125 111 97 84 76 73 76 79 131 165 159 160 159 159 158 158 159 161 160 162 161 106 82 89 96 101 103 102 99 98 99 100 99 121 192 184 198 204 176 133 141 145 136 161 158 136 118 126 122 133 127 77 56 60 72 70 53 49 84 134 159 135 107 105 104 105 106 97 88 88 86 101 100 96 98 99 107 
200 173 182 124 47 114 126 55 53 71 134 121 97 113 128 138 133 124 112 99 85 73 63 55 50 45 42 40 42 47 69 135 164 159 159 157 158 159 158 160 163 162 162 161 110 82 87 92 98 102 101 99 98 100 102 100 119 190 183 194 199 171 128 135 139 135 162 154 129 115 127 143 128 70 51 73 93 107 98 74 54 41 58 136 181 148 105 98 107 107 90 88 83 85 96 98 98 98 94 107 
198 165 180 96 43 113 152 140 131 100 81 113 141 136 110 73 58 51 44 39 34 31 29 29 29 30 32 34 40 49 82 139 163 158 159 156 156 158 158 159 163 163 162 162 119 89 90 91 95 100 100 99 100 101 101 100 117 182 180 192 200 171 122 132 139 139 163 152 125 119 143 137 97 79 85 87 77 70 70 75 76 63 41 74 160 184 141 106 108 103 87 89 81 88 92 96 96 94 91 107 
187 168 168 68 43 112 152 129 108 83 58 56 57 47 40 33 30 29 28 27 27 27 27 27 28 30 33 37 43 53 103 148 163 156 157 155 155 157 157 159 162 163 161 160 123 95 93 92 94 98 99 99 101 101 101 100 114 175 175 188 196 171 126 134 138 140 160 149 119 134 142 103 81 69 82 81 89 88 77 80 80 75 54 45 119 178 180 145 112 98 90 86 84 92 89 87 92 92 90 102 
171 176 140 45 49 117 138 60 41 37 35 34 31 31 31 30 29 28 27 27 28 32 32 33 33 32 36 44 55 84 144 173 164 153 155 155 154 155 158 162 165 165 164 162 126 101 100 98 99 99 98 98 102 103 102 100 114 174 166 178 195 174 135 137 138 142 158 145 122 142 111 105 97 86 68 68 88 96 86 81 81 76 61 46 81 162 182 176 144 97 95 82 87 93 87 81 87 85 91 93 
161 175 106 33 54 120 137 52 36 35 34 33 32 31 31 30 28 28 26 26 28 32 36 45 49 48 70 103 109 136 164 179 162 152 153 156 159 160 160 163 166 167 163 160 127 105 105 104 104 100 98 100 104 105 102 101 111 170 175 174 192 181 148 143 141 144 158 144 140 129 114 132 138 117 71 49 59 83 90 85 78 68 62 50 52 129 172 171 176 139 96 84 88 92 86 79 78 82 96 89 
168 160 76 29 57 122 138 54 35 34 33 32 31 30 30 29 28 27 26 26 27 29 31 33 35 52 101 153 130 121 166 164 156 151 150 151 150 153 155 158 161 162 159 156 125 106 106 106 104 98 97 102 105 104 103 102 108 162 161 157 189 183 157 148 144 148 159 145 146 103 121 157 166 149 101 61 44 45 58 80 92 82 65 48 39 97 161 166 169 180 129 89 90 87 86 78 72 77 91 92 
178 144 80 73 103 143 142 56 35 34 33 32 32 32 33 33 31 27 26 27 29 30 31 33 40 62 115 134 117 117 172 139 153 150 148 147 148 152 155 158 161 159 158 156 122 106 107 104 100 96 101 106 108 107 106 104 108 154 165 151 190 186 160 152 144 149 157 152 126 92 139 172 177 171 140 105 76 60 52 66 85 87 68 47 33 80 143 159 154 177 176 124 92 86 86 79 69 74 83 103 
156 134 147 165 171 168 147 61 37 38 38 39 40 40 42 43 35 27 26 29 30 30 32 36 51 74 127 123 111 132 165 115 156 152 151 151 153 153 154 158 162 161 159 156 121 105 109 105 103 103 108 110 109 107 104 102 104 149 165 135 172 184 165 159 146 152 154 154 100 103 163 182 189 187 168 147 139 132 106 81 62 67 50 42 32 67 128 149 143 165 179 170 114 86 82 82 73 76 78 100 
126 130 137 124 108 108 144 75 51 49 47 47 47 46 48 47 33 26 27 30 30 31 33 44 65 91 134 116 102 148 137 99 160 155 154 155 156 155 156 158 160 159 156 153 119 103 111 110 105 106 107 107 107 106 103 104 104 140 167 142 150 165 166 168 150 153 164 154 82 131 174 184 193 190 177 167 165 159 141 98 51 41 41 33 31 64 121 141 138 151 169 176 153 95 80 79 76 77 75 88 
70 63 56 51 49 80 146 91 65 55 49 48 47 47 48 43 30 27 29 31 31 32 38 62 80 110 124 111 101 145 99 93 163 157 156 154 153 155 157 158 160 162 164 161 118 97 106 108 107 108 108 108 107 106 105 104 103 134 171 140 131 148 164 167 148 157 182 139 83 157 180 187 191 187 175 172 168 156 137 90 43 32 33 31 30 66 118 130 131 139 158 171 166 115 82 75 81 77 74 83 
39 42 44 47 52 89 149 90 56 50 49 49 49 50 50 42 33 32 35 36 37 36 51 73 85 109 116 101 111 134 70 94 164 156 153 153 154 159 162 163 162 158 152 146 111 95 102 103 104 104 103 103 102 102 103 102 100 123 168 144 138 129 150 168 151 168 186 122 106 177 189 192 189 182 177 172 160 143 125 85 41 31 30 30 29 66 114 123 130 136 150 167 155 116 99 93 92 89 95 99 
39 42 45 50 56 98 150 86 51 48 49 54 54 52 48 43 42 51 75 97 127 102 65 76 85 99 112 90 126 116 52 97 161 156 155 156 155 155 153 153 151 144 138 143 117 98 98 96 94 92 91 91 94 99 104 108 108 125 169 149 128 100 145 169 156 172 179 122 134 179 193 195 187 179 179 170 151 132 117 86 45 30 29 29 29 69 111 117 131 128 141 163 140 105 119 108 105 102 98 96 
40 41 47 54 61 108 152 87 49 48 49 53 56 54 46 46 64 102 125 154 188 152 107 89 97 103 105 90 139 95 43 102 163 154 153 152 151 148 148 151 153 152 154 163 129 105 105 105 108 117 130 144 156 169 176 181 185 183 174 164 162 139 156 172 164 176 172 133 143 139 169 186 185 182 181 171 154 136 119 93 54 31 29 30 31 77 109 114 127 115 125 159 126 91 114 120 116 112 106 101 
39 42 49 55 66 115 151 89 48 47 46 56 63 53 57 83 117 141 165 180 155 158 175 127 99 104 91 106 143 71 43 106 155 122 110 107 107 111 114 125 140 140 154 175 161 157 165 172 180 188 195 197 200 203 204 205 205 200 175 169 177 162 169 174 169 176 168 135 136 119 116 160 179 179 177 169 156 136 114 97 64 31 29 30 34 84 107 114 114 104 120 155 108 66 85 135 136 135 126 118 
38 44 51 56 73 120 151 91 46 46 61 74 66 77 108 131 151 179 180 148 160 182 143 77 71 105 82 127 124 49 48 111 131 62 65 81 97 115 130 144 158 172 184 190 193 195 197 199 201 201 202 202 202 202 202 203 204 203 180 173 179 183 183 180 176 172 166 127 97 119 122 135 168 164 148 137 131 122 110 95 65 32 28 29 40 94 105 110 103 100 115 135 81 50 84 157 159 148 144 136 
40 46 53 58 82 125 151 93 49 66 81 82 96 117 129 158 185 173 145 162 179 135 67 46 82 99 87 144 102 39 52 113 146 121 144 167 179 187 191 195 195 196 196 196 197 197 198 200 203 204 204 205 206 207 206 206 205 205 182 168 167 184 184 185 175 168 166 156 120 115 119 136 163 138 92 69 66 77 85 80 62 35 28 28 51 103 106 108 87 94 105 104 57 48 80 151 166 160 152 146 
41 46 54 61 91 127 151 104 69 83 97 118 133 138 160 189 169 139 166 168 120 60 40 61 97 86 106 144 75 37 57 114 166 168 175 188 193 193 194 196 197 197 198 199 201 201 203 204 204 205 205 206 207 207 206 206 206 207 184 166 159 181 187 180 165 161 168 169 143 129 131 151 163 109 60 55 74 93 93 77 56 38 29 28 67 104 104 99 75 82 92 69 46 53 72 140 175 163 160 159 
42 46 53 63 99 128 150 113 83 108 132 141 148 179 190 153 135 158 148 95 49 34 55 86 105 78 129 128 51 40 64 118 168 173 176 182 189 196 198 199 198 200 200 201 204 205 206 208 207 206 205 205 205 205 205 204 204 205 186 168 171 175 184 179 154 155 166 171 167 149 149 174 152 82 67 79 90 94 73 71 62 43 33 32 86 101 100 82 62 67 65 49 51 59 67 116 169 171 170 169 
41 45 53 66 106 129 150 124 112 135 140 153 185 187 143 129 151 126 74 39 34 42 73 116 135 91 146 105 39 43 71 123 168 171 172 174 187 199 201 202 202 203 204 205 207 209 209 209 207 206 206 206 205 204 202 201 200 201 189 166 169 167 182 179 145 149 162 165 169 163 168 181 123 74 83 111 108 97 52 47 59 55 44 45 97 99 95 64 50 57 60 55 59 61 70 100 168 171 170 159 
40 44 52 71 115 131 150 144 133 143 160 183 164 146 141 152 117 60 37 35 38 57 80 128 142 119 177 99 65 93 111 139 170 175 175 183 199 205 205 206 207 210 210 210 209 209 210 210 208 207 206 206 205 203 202 200 197 197 190 160 167 168 190 191 138 138 156 159 169 174 180 159 97 82 92 119 116 90 61 56 76 73 54 67 97 99 83 48 44 66 109 68 53 51 58 83 148 170 152 137 
40 43 52 77 121 133 151 153 148 176 184 173 134 139 152 117 55 35 36 39 48 76 85 105 82 125 150 121 152 171 173 172 174 180 183 197 206 206 208 213 214 214 212 212 213 213 213 211 209 207 205 204 204 203 200 197 196 196 192 165 171 175 197 193 133 133 152 156 170 175 174 129 90 85 97 121 135 119 96 88 95 78 56 84 89 100 71 43 41 63 135 82 41 43 49 60 111 156 145 153 
40 43 51 82 123 134 150 158 189 208 146 174 170 152 104 55 45 55 63 73 95 109 111 129 143 134 128 162 175 175 178 178 178 189 198 209 210 211 214 217 218 218 216 214 214 213 213 210 207 206 205 204 202 201 198 195 194 193 192 171 175 189 192 185 130 127 151 156 166 179 159 107 77 79 106 127 141 134 119 106 89 67 56 91 84 97 60 42 37 83 138 107 60 50 48 52 76 135 151 114 
41 43 50 92 129 139 152 142 156 171 119 138 176 128 69 89 140 177 191 200 207 198 184 172 173 162 161 178 183 185 188 183 180 198 210 215 217 218 218 217 216 215 214 213 211 210 211 210 208 206 205 204 202 200 197 195 193 189 186 178 188 190 194 193 136 122 148 160 165 160 116 82 70 74 114 133 139 129 110 88 70 54 63 91 86 81 50 40 42 101 148 139 100 94 93 92 113 137 103 65 
77 93 114 141 151 151 159 122 80 116 114 123 124 124 142 194 213 216 220 213 216 205 189 181 184 183 185 185 185 185 187 184 186 209 218 219 219 219 217 215 211 210 211 210 209 209 208 205 202 200 198 196 194 193 189 185 182 178 179 194 185 184 195 196 148 121 155 165 171 145 79 55 56 84 121 125 125 112 90 71 57 46 76 81 86 63 42 42 57 97 158 160 134 134 141 148 154 140 74 50 
163 170 175 180 185 182 180 168 147 149 159 162 163 165 167 181 203 202 203 201 191 188 186 185 185 184 186 187 190 196 203 208 211 215 216 215 213 212 210 208 204 203 202 201 200 198 195 194 192 189 186 186 184 182 180 176 174 172 186 201 187 185 195 201 167 125 165 169 163 160 116 69 71 110 123 114 108 95 76 61 51 48 86 72 75 50 38 36 56 108 160 155 151 161 157 157 149 126 64 38 
167 169 175 180 181 180 177 172 163 158 162 165 170 176 182 196 221 207 202 207 188 185 186 191 196 202 208 212 215 216 215 213 212 207 207 207 206 203 202 199 198 197 195 194 191 188 187 187 185 182 180 179 176 174 173 171 168 178 203 206 191 178 190 200 179 134 160 165 134 130 138 107 102 116 117 111 100 85 70 58 49 64 81 65 57 40 35 32 70 132 172 153 135 159 157 150 126 105 89 78 
131 133 136 138 138 140 142 143 142 147 154 159 164 169 199 221 233 224 218 214 199 200 207 215 218 217 216 214 213 211 208 206 206 204 202 200 198 197 195 193 190 189 188 186 184 180 179 179 177 174 173 171 169 166 166 165 167 193 209 207 187 171 181 195 183 152 147 162 145 129 107 82 82 96 109 105 96 83 70 59 52 81 62 56 46 36 30 35 85 139 181 156 101 133 160 135 101 116 123 89 
101 100 102 105 113 119 121 124 126 129 135 144 150 173 204 200 201 222 222 204 188 187 167 174 188 203 206 205 206 205 202 201 199 196 194 191 187 187 186 182 178 178 176 175 172 169 170 169 168 166 165 164 160 159 160 162 184 209 211 207 192 172 170 190 187 175 142 163 152 135 134 118 88 84 102 104 95 85 71 60 61 76 51 48 37 33 33 58 121 146 186 148 91 92 135 144 119 138 145 103 
165 161 158 156 157 161 160 155 152 149 157 178 179 192 188 184 179 202 198 173 179 186 149 139 147 170 206 207 206 206 204 202 199 195 194 192 185 176 174 172 169 166 165 164 162 163 162 160 160 158 157 155 152 153 152 172 204 205 205 204 196 174 160 184 190 182 155 144 155 143 116 96 86 92 100 102 92 80 67 56 66 57 43 35 33 35 34 74 130 171 185 132 79 70 109 149 151 161 173 152 
195 196 195 196 197 202 209 210 208 204 163 124 125 145 155 161 175 166 133 148 167 150 130 129 134 145 188 216 220 215 215 213 213 212 211 207 207 171 161 162 161 157 155 155 157 157 156 155 154 153 152 152 152 152 155 182 188 182 186 194 195 175 149 172 193 181 168 147 162 180 175 148 119 98 91 90 78 67 58 48 51 43 34 33 41 38 31 67 128 185 175 125 73 61 82 121 151 171 178 176 
201 203 204 204 203 208 212 211 214 202 135 99 100 102 103 109 151 129 105 129 139 126 106 124 119 129 151 220 226 216 216 216 216 215 216 211 195 162 157 158 155 153 155 155 155 155 153 151 151 151 153 156 157 160 177 190 186 179 175 181 188 186 154 152 183 181 167 161 157 171 171 156 133 110 93 81 65 56 49 54 65 55 41 52 95 76 56 90 139 194 166 122 79 68 79 107 143 165 171 176 
211 211 212 213 213 215 215 215 214 192 118 93 93 91 93 103 147 126 107 123 128 121 99 114 119 135 149 184 199 208 209 210 210 211 209 191 166 140 155 157 155 155 154 157 157 155 154 155 156 157 158 162 163 178 200 199 196 191 183 177 182 186 176 145 156 174 168 159 153 141 137 124 108 90 72 58 60 87 100 81 54 37 38 79 138 118 97 101 157 200 164 125 88 77 86 100 136 162 177 184 
213 211 213 212 213 214 215 215 211 162 97 86 86 87 89 109 144 126 108 102 117 119 101 156 192 203 204 201 200 203 204 205 206 202 182 158 142 119 155 158 157 157 156 156 157 158 159 162 163 162 163 164 166 194 205 201 199 196 188 182 180 181 186 161 133 150 172 158 160 137 101 86 74 60 48 45 65 107 100 51 35 30 38 89 145 141 118 132 182 198 161 127 93 82 86 95 139 171 184 185 
218 211 212 213 213 214 214 209 167 109 88 86 87 88 103 142 138 129 122 95 113 121 134 189 202 204 203 202 203 207 211 211 203 176 152 143 122 106 156 158 157 159 159 161 160 162 165 165 166 163 161 161 175 205 205 201 197 188 182 184 179 177 180 178 139 113 155 168 140 151 132 106 83 58 61 85 111 109 63 37 34 35 71 105 139 153 159 174 197 192 153 119 95 85 84 95 130 160 176 183 
220 212 212 212 212 210 187 151 106 91 89 90 95 116 147 141 116 131 127 95 118 155 191 201 201 203 203 203 209 213 215 202 171 148 140 138 100 100 156 158 159 162 165 166 165 164 164 165 164 164 163 163 192 207 204 196 189 182 179 184 181 175 173 178 168 115 110 161 148 131 147 142 132 110 119 127 98 55 34 33 53 83 89 101 146 174 184 191 199 184 143 113 91 78 77 90 96 99 124 153 
216 211 211 209 209 204 141 98 93 92 94 103 109 132 141 118 99 129 123 117 166 198 203 203 203 204 205 209 214 214 200 169 145 141 141 134 77 98 160 165 167 168 166 166 166 164 164 164 164 164 164 178 206 206 202 192 186 179 176 182 184 178 176 173 175 167 121 135 161 138 121 141 143 147 135 92 49 39 50 74 100 82 98 118 162 193 198 192 197 178 138 114 93 71 72 88 88 90 128 138 
184 185 206 208 209 205 137 96 94 96 110 115 108 122 127 113 97 123 142 181 203 204 202 202 203 207 210 214 215 197 168 152 143 142 141 115 55 100 165 166 167 165 164 164 164 164 164 163 164 164 164 186 206 202 198 189 184 178 175 180 184 181 180 172 166 170 169 147 144 141 142 147 140 141 118 62 65 95 112 109 71 84 121 97 150 195 198 189 194 172 138 122 107 71 68 85 97 121 144 137 
172 183 200 205 207 204 137 95 105 118 119 114 117 127 122 112 101 151 193 204 203 203 207 210 214 217 218 214 192 162 149 145 141 141 135 95 47 101 164 165 164 162 162 164 162 164 164 164 163 163 165 178 184 197 194 186 182 178 174 177 185 183 180 169 153 144 151 165 158 133 124 134 143 146 123 95 107 96 80 65 82 119 95 74 131 182 191 184 189 169 152 141 125 74 65 85 103 130 141 137 
159 178 195 197 198 195 143 126 136 135 129 134 146 132 123 126 152 193 207 205 205 209 214 217 219 220 216 187 153 144 140 139 138 138 134 81 44 101 163 163 164 162 162 161 161 161 162 164 162 161 170 181 179 188 192 187 182 177 174 176 181 175 173 157 141 135 135 140 151 152 117 102 105 108 94 75 66 65 85 111 120 91 69 74 99 156 174 171 174 165 162 154 152 108 66 83 106 131 142 138 
182 193 198 199 196 192 159 153 142 133 138 140 134 124 138 176 201 206 207 210 215 216 217 220 218 214 182 145 136 140 142 140 137 138 134 69 43 101 162 161 163 160 159 159 160 158 159 160 160 162 176 186 187 180 176 185 187 184 179 175 175 177 170 153 145 143 138 127 121 118 126 125 120 120 106 105 118 128 127 108 83 69 74 72 74 108 148 153 154 162 175 172 168 163 110 81 108 136 145 140 
211 211 212 213 203 178 159 139 132 139 132 117 120 155 197 215 215 216 214 215 218 220 219 217 210 180 146 133 128 135 141 141 137 137 127 57 43 101 163 162 161 159 158 157 157 157 159 157 157 165 180 188 189 182 166 150 158 186 190 180 179 181 182 174 168 165 159 155 151 145 146 153 161 160 149 141 124 102 86 77 73 73 70 66 68 66 99 143 149 168 185 180 169 162 153 110 110 137 143 140 
216 216 216 209 174 153 146 140 148 132 127 157 190 213 222 221 220 219 219 219 218 219 218 209 173 139 136 129 124 130 142 142 135 139 123 49 43 98 161 160 159 158 156 155 154 155 154 153 157 171 184 190 188 181 165 148 127 126 157 181 185 184 183 181 177 176 173 172 169 168 162 152 142 127 114 99 91 83 79 78 72 69 70 73 68 61 58 104 149 170 179 181 170 157 149 145 124 136 138 133 
219 217 204 183 154 136 150 156 138 135 179 209 218 221 220 220 220 219 218 219 219 217 207 169 135 125 130 127 122 123 139 141 134 136 111 43 43 96 157 158 154 154 154 153 151 151 151 151 159 176 186 189 184 176 161 145 135 108 84 102 136 162 171 169 164 161 159 155 151 144 134 126 119 109 100 92 94 87 83 79 76 76 75 69 68 71 73 77 119 161 171 178 171 159 146 146 150 143 150 155 
213 197 172 147 137 148 157 140 143 190 215 220 219 220 220 220 220 220 219 219 218 206 165 129 126 122 130 124 121 122 134 136 129 133 91 39 43 95 154 154 150 151 151 149 149 148 148 149 161 179 186 184 178 169 155 140 128 118 93 63 57 77 111 140 150 150 145 137 133 126 118 118 117 111 102 95 94 84 81 83 82 79 73 77 86 94 109 87 88 132 162 175 175 163 150 142 147 159 152 156 
174 160 141 139 150 138 129 154 198 217 219 218 220 219 220 219 216 220 220 219 204 165 132 124 120 118 129 123 116 120 135 136 129 125 64 38 42 93 154 155 152 152 151 146 148 148 149 151 163 179 183 179 170 159 146 130 117 108 100 81 56 48 48 61 81 108 125 127 126 120 116 122 119 111 98 95 96 84 86 90 83 84 90 98 103 112 120 112 83 97 140 166 176 169 157 146 140 150 160 153 
155 139 144 163 143 128 166 205 218 220 220 220 222 222 220 219 217 221 218 202 161 132 126 125 119 114 130 125 113 116 128 135 127 106 45 38 42 93 155 157 156 154 153 150 149 150 151 152 165 178 181 175 165 152 139 119 106 98 93 85 66 56 45 46 43 45 57 76 93 102 115 125 118 108 99 99 101 90 96 93 92 103 112 115 116 119 120 123 104 83 110 155 171 171 161 149 143 142 152 159 
152 150 155 133 131 178 213 220 220 221 220 221 222 221 220 222 222 218 198 157 129 123 123 126 115 111 126 123 113 116 126 129 117 83 38 38 41 93 157 158 156 156 154 151 151 151 151 151 165 175 176 170 164 149 132 109 93 85 82 74 64 67 52 46 46 40 39 42 44 47 68 96 114 115 109 104 102 101 106 103 113 120 121 117 117 118 117 121 122 100 91 136 163 170 164 152 146 142 139 149 
121 112 118 143 195 218 221 221 220 221 221 223 222 221 222 222 217 194 152 125 119 119 118 121 112 106 122 118 113 113 123 124 110 63 36 37 40 93 158 159 157 157 156 154 154 153 153 150 164 173 173 166 156 142 122 95 76 69 67 60 56 66 60 49 50 44 38 39 43 36 39 67 91 93 73 72 90 103 109 122 129 134 125 121 122 123 119 128 129 124 106 116 150 165 165 158 150 144 138 138 
121 155 193 215 222 222 222 220 218 221 220 220 221 222 221 215 187 145 124 120 118 118 118 119 112 104 118 114 106 109 121 119 100 47 36 36 40 93 157 161 160 160 159 157 156 156 152 148 163 172 173 166 153 135 107 76 56 50 48 46 47 58 62 53 58 52 38 37 41 39 38 73 90 80 42 34 59 76 103 133 136 131 119 130 145 142 140 151 150 152 146 128 138 155 165 164 156 149 142 139 
211 220 221 221 221 221 222 221 220 220 220 221 220 220 216 184 138 121 118 117 116 118 118 115 113 102 116 115 104 105 116 118 83 38 36 36 39 92 158 159 159 161 161 159 159 159 150 146 163 172 173 168 152 129 95 60 42 40 37 39 42 51 62 54 59 61 46 36 39 42 49 107 125 99 39 35 61 80 110 121 137 145 137 148 158 146 143 147 150 152 164 164 140 141 159 164 161 155 147 140 
221 221 219 222 222 222 223 222 221 220 219 219 219 212 180 134 118 116 115 114 112 113 117 116 112 104 115 115 105 100 109 114 69 36 36 36 39 89 158 160 159 161 159 158 156 155 143 143 164 173 173 166 151 124 88 53 45 44 37 37 40 49 60 56 57 64 53 42 37 42 82 155 154 97 35 36 68 80 105 151 164 152 141 152 146 136 140 148 153 154 163 148 88 97 148 159 162 161 153 143 
203 201 208 210 211 216 216 218 219 218 218 217 210 176 133 114 112 112 112 112 110 109 114 114 112 101 113 111 105 102 106 109 64 34 35 35 39 92 160 160 158 155 153 152 151 148 134 146 167 177 174 162 143 115 81 51 53 49 37 36 42 49 55 57 58 62 56 46 40 43 110 165 154 78 31 52 101 115 150 170 164 152 154 153 139 136 137 139 151 148 112 61 41 59 126 155 161 162 155 147 
156 155 165 161 173 169 180 180 190 183 200 198 174 127 121 119 111 108 110 107 112 110 114 111 108 100 113 114 99 99 106 113 71 33 34 35 38 90 152 152 151 149 148 148 144 134 126 149 170 178 173 154 131 103 70 61 63 49 38 36 41 48 49 54 58 59 54 46 43 51 129 163 140 62 31 71 113 121 154 176 169 157 161 151 129 124 121 107 112 73 42 38 39 43 87 144 156 160 158 152 
133 147 135 151 136 149 139 158 140 155 144 182 166 119 104 113 113 106 108 108 110 111 114 109 105 99 114 113 97 95 105 119 79 32 33 34 37 86 148 149 146 144 145 143 142 121 118 152 173 176 167 148 131 123 112 118 95 61 42 38 42 44 46 48 53 54 52 46 42 60 144 160 125 49 32 71 110 122 150 177 169 153 156 138 120 107 81 54 47 38 38 44 63 85 104 134 152 158 160 155 
149 132 150 136 148 137 150 137 141 130 161 180 188 140 105 93 112 107 107 111 110 109 112 105 100 95 107 111 94 93 100 128 81 33 33 34 37 87 149 150 150 151 151 148 144 108 119 160 175 173 165 167 180 187 185 179 161 136 94 53 43 47 45 45 50 56 54 48 44 75 154 153 104 39 33 73 110 130 146 172 166 155 148 119 89 59 39 36 41 39 58 108 139 148 147 137 145 156 158 154 
130 147 135 151 134 153 140 140 121 152 165 184 188 165 116 91 102 109 102 106 106 109 107 100 93 90 101 102 92 92 100 138 80 33 33 34 37 90 154 156 155 156 157 155 141 105 139 170 174 172 178 190 194 194 191 179 162 149 137 104 60 47 49 45 44 51 54 50 45 91 157 145 81 35 35 77 109 130 123 165 166 164 130 74 42 35 35 35 38 63 125 145 146 145 141 138 140 153 153 150 
152 132 148 133 146 140 144 114 142 161 181 183 185 175 136 97 88 108 103 104 102 107 101 97 93 88 100 101 91 91 107 148 83 32 33 34 37 91 159 161 162 161 161 159 129 109 152 174 174 177 187 192 191 190 187 174 155 138 133 120 95 59 49 49 44 44 50 49 46 107 159 132 66 33 37 77 107 128 103 152 156 121 62 36 34 34 34 35 49 121 149 134 142 142 140 138 137 149 151 147 
132 146 129 145 141 155 115 140 156 177 175 185 169 108 111 105 87 96 110 110 106 99 91 86 85 92 100 100 89 87 117 157 81 32 32 33 37 95 160 163 164 164 163 153 113 113 152 176 177 183 190 190 188 186 182 179 169 157 140 128 109 90 57 49 47 43 45 46 52 122 148 114 52 32 42 81 106 126 90 116 85 49 33 34 33 33 34 38 93 149 143 141 137 140 145 143 136 142 146 140 
151 136 146 138 160 124 133 141 170 163 184 173 105 42 93 109 94 85 103 114 108 102 89 81 74 81 96 99 87 86 128 164 81 31 32 33 37 99 166 168 167 166 167 137 104 116 145 171 175 185 187 185 185 181 178 177 171 163 151 137 123 106 84 53 48 46 44 47 59 129 138 96 44 32 50 83 103 123 87 81 44 33 33 33 33 32 33 57 135 144 147 149 156 155 151 144 132 130 140 133 
134 149 139 153 134 121 132 160 160 172 170 121 43 41 89 112 93 85 86 107 108 99 86 84 82 80 94 94 85 81 138 173 89 31 31 33 37 98 169 171 174 174 168 117 104 121 139 161 172 181 182 183 180 177 178 176 174 166 159 145 131 116 102 76 49 47 47 47 67 134 132 84 41 33 58 83 98 120 86 62 32 31 32 32 33 33 37 94 150 150 156 167 163 158 155 147 133 118 126 128 
150 143 148 143 118 117 152 151 163 157 141 55 34 34 60 111 93 85 83 97 106 93 79 81 85 87 94 92 81 81 119 138 76 31 31 32 36 99 171 173 175 178 152 99 107 125 138 157 170 176 177 178 175 171 175 173 170 168 162 150 139 128 113 104 74 48 46 48 81 139 123 73 38 34 65 80 93 115 73 38 30 32 33 32 33 34 59 136 150 158 168 167 159 154 154 147 131 107 102 116 
143 145 147 128 109 143 148 153 144 148 85 36 36 35 40 93 99 91 88 91 98 89 76 79 85 84 86 83 76 72 59 63 46 31 31 32 35 96 165 170 172 174 125 96 112 124 133 153 161 169 172 171 171 168 168 170 165 159 142 125 113 112 117 109 97 53 44 48 95 136 114 66 35 38 72 79 88 112 64 32 31 32 32 32 34 39 98 152 155 168 167 162 155 151 147 140 127 105 85 85 
144 145 144 114 126 145 154 143 143 98 44 43 42 36 31 71 104 92 86 86 89 83 74 72 76 75 77 77 73 58 31 29 31 31 31 31 35 96 164 166 170 159 103 99 115 120 121 145 149 161 167 165 164 164 163 164 162 154 140 121 99 78 86 100 91 49 40 47 105 135 109 59 34 44 77 77 85 107 57 31 33 31 31 32 34 58 134 144 163 165 164 158 154 150 142 132 118 101 76 63 
147 145 131 110 135 148 149 138 100 49 48 51 44 38 31 53 97 91 86 80 82 79 71 66 69 70 72 72 76 56 29 29 30 31 30 31 34 95 165 167 169 143 93 102 114 114 105 134 140 154 160 161 160 159 160 159 157 150 140 126 114 98 75 72 84 47 32 44 113 137 104 48 33 49 78 74 82 100 52 29 32 31 30 32 36 98 143 141 151 159 159 156 155 150 137 125 115 98 72 58 
138 143 103 117 135 146 141 111 55 50 50 52 45 38 30 31 68 93 88 80 75 73 72 69 72 71 70 68 68 48 28 29 30 30 28 29 33 94 165 165 168 129 91 104 109 107 98 122 134 147 154 157 159 158 157 155 154 147 134 121 109 106 104 78 67 46 30 39 95 116 88 44 33 52 75 72 81 96 49 28 29 30 30 31 54 135 136 135 143 145 152 156 156 147 134 121 110 93 70 55 
146 110 103 121 135 127 129 58 53 52 51 54 46 47 62 55 66 89 86 78 69 69 71 67 68 69 67 63 66 39 29 30 30 30 29 30 33 95 166 167 166 115 94 105 102 99 97 110 128 138 143 149 155 157 156 155 152 143 131 124 112 97 96 100 85 51 29 40 80 90 69 41 33 56 76 73 81 91 44 27 29 30 30 31 88 151 139 135 132 148 155 153 153 142 129 117 106 89 67 52 
112 107 100 120 108 141 126 56 55 53 54 55 46 62 138 145 131 87 79 74 67 66 68 65 63 65 62 65 67 37 30 29 30 30 29 30 33 96 169 170 164 106 99 109 93 88 83 99 117 124 130 139 149 153 151 152 150 144 129 120 116 112 102 94 96 74 33 40 77 88 63 39 34 63 77 75 81 87 42 27 29 30 31 35 108 144 136 125 143 156 145 153 150 139 124 111 101 82 64 49 
115 93 112 105 140 155 133 59 55 53 53 53 47 58 127 141 141 98 71 71 67 65 66 66 65 62 65 70 104 113 98 87 53 29 29 29 32 94 168 172 160 98 100 112 90 73 73 89 100 106 119 129 141 146 144 145 150 146 133 121 111 104 104 108 103 97 63 35 67 87 61 38 36 68 77 78 81 83 39 27 28 30 31 51 131 144 124 140 149 141 149 156 149 143 119 103 93 75 60 45 
92 103 95 132 157 159 139 62 54 52 52 53 47 53 114 129 129 113 77 68 69 67 65 64 61 59 65 78 134 156 154 155 87 29 28 29 32 90 159 161 149 91 100 112 90 63 61 73 97 95 110 124 136 139 139 140 147 148 137 124 116 110 98 94 103 109 96 53 63 85 56 36 40 73 77 77 77 74 36 27 28 31 33 85 145 129 140 147 137 149 155 154 152 141 107 93 82 70 56 42 
102 100 129 152 159 159 139 63 53 52 52 52 47 50 112 130 129 127 103 66 66 66 63 61 60 61 65 80 125 136 137 141 83 29 27 28 31 81 142 147 142 87 93 110 96 69 53 55 74 71 99 120 134 133 135 135 141 149 143 125 117 116 115 105 98 96 102 87 71 78 53 35 44 75 76 74 77 69 33 27 28 30 40 117 139 141 144 137 153 157 156 156 157 131 92 85 77 71 54 40 
87 126 152 156 154 154 137 63 51 53 54 51 47 48 107 123 126 131 124 83 66 66 62 60 58 61 66 85 122 127 129 132 79 29 27 28 30 78 139 147 145 88 86 105 104 91 67 49 58 65 89 113 133 130 133 135 140 144 148 132 116 112 113 114 116 106 101 101 91 78 49 34 48 77 74 74 77 67 32 27 29 30 60 136 147 143 136 155 158 152 159 160 154 116 82 81 76 69 48 38 
113 151 158 155 149 141 123 60 50 51 52 51 48 47 103 122 123 124 127 109 74 66 62 59 58 59 65 90 124 126 129 131 79 28 26 27 30 79 142 146 146 87 77 99 104 102 88 60 50 67 89 111 130 127 131 132 139 139 143 140 125 114 107 107 110 115 114 111 102 79 45 34 52 76 73 74 79 62 30 28 29 31 86 150 143 136 156 159 149 153 156 160 145 98 76 78 74 66 43 38 
141 153 145 133 123 120 113 59 48 48 50 50 47 46 103 122 124 122 123 124 99 69 63 58 57 60 67 110 128 130 129 130 79 28 26 27 29 80 145 146 146 86 68 91 100 103 95 75 54 58 78 107 123 126 132 131 139 140 138 140 137 127 111 107 104 106 110 112 110 90 48 33 54 78 72 73 78 59 29 27 29 38 117 148 136 159 162 151 149 156 156 158 133 82 75 74 71 59 41 38 
126 127 122 120 118 122 118 63 49 47 50 50 47 44 103 125 124 121 123 125 119 90 67 61 55 58 71 120 129 131 133 133 82 28 27 26 28 77 143 148 145 82 61 82 96 104 100 86 67 51 63 87 110 118 130 128 135 141 140 134 134 138 131 117 108 106 104 108 111 107 71 35 56 76 72 73 76 54 28 27 29 56 138 150 160 160 155 150 156 159 159 153 117 72 74 70 67 50 38 36 
115 118 119 117 117 119 118 65 48 47 51 50 45 43 99 124 124 123 125 126 125 113 77 62 53 58 88 128 131 130 134 134 82 28 26 26 28 75 139 143 137 75 56 74 91 103 104 94 80 59 49 77 94 103 123 128 133 136 142 140 132 128 134 134 122 109 104 106 107 109 95 48 59 77 72 73 75 49 27 28 33 101 160 164 165 155 154 155 161 160 159 143 98 68 71 65 58 42 38 41 
115 117 116 114 114 113 113 65 48 47 49 49 45 41 95 121 119 121 122 124 123 121 103 71 63 61 103 131 133 133 133 135 83 28 26 26 28 73 136 140 133 71 55 68 85 100 105 101 91 76 54 59 87 92 109 124 132 135 138 144 140 131 123 123 128 127 118 108 105 107 106 79 68 77 73 74 74 45 28 29 59 149 167 157 158 157 154 157 162 161 156 133 82 66 72 63 45 38 38 50 
108 110 109 107 106 106 105 63 47 47 50 48 44 40 93 119 116 119 118 121 121 122 121 98 70 71 117 131 133 133 131 134 84 27 26 26 27 72 138 141 130 71 56 63 80 96 102 103 99 89 73 50 65 91 98 112 123 134 137 141 146 141 129 121 118 120 121 122 114 105 106 102 85 76 75 74 71 38 28 34 107 167 158 151 158 154 150 155 161 161 148 117 70 65 69 55 38 38 41 68 
103 103 100 101 100 103 102 64 46 45 50 49 45 40 88 113 117 118 117 120 123 120 123 118 89 66 91 128 131 131 132 135 86 27 26 26 27 72 137 144 137 80 56 61 76 92 101 105 103 96 85 67 50 75 93 101 113 127 135 137 143 148 140 130 123 116 113 115 121 119 109 104 96 79 77 75 50 30 29 56 149 166 155 156 160 154 150 138 154 154 138 103 64 64 64 44 37 39 45 103 
102 99 95 97 98 102 105 66 46 45 48 48 45 39 84 114 114 114 117 119 123 121 123 121 118 106 84 120 129 130 132 136 88 28 26 26 27 73 141 146 147 104 56 60 72 89 100 105 106 103 93 82 61 50 79 98 100 117 130 134 137 145 145 133 126 121 118 115 114 118 117 108 97 88 69 44 29 29 32 100 167 160 155 161 161 159 162 159 156 147 129 92 58 63 54 38 39 41 53 135 
97 97 97 98 99 100 103 67 46 44 47 48 46 38 82 115 112 115 116 115 118 120 122 120 120 125 116 121 128 130 133 134 86 27 26 26 27 73 138 139 143 133 70 57 69 84 97 105 110 109 102 93 80 54 54 94 106 106 120 128 133 138 145 134 127 124 118 117 115 118 121 120 111 98 63 28 30 30 54 148 166 157 158 160 157 161 166 160 154 141 119 81 56 61 44 37 40 40 71 155 
90 93 94 95 97 96 97 66 45 45 48 48 46 38 76 109 110 110 113 115 116 119 122 121 120 122 126 127 126 128 133 135 86 27 25 26 27 70 135 140 143 148 110 58 67 79 92 104 112 114 112 103 90 72 46 62 96 104 105 120 127 131 142 135 124 118 113 111 109 107 109 115 121 112 91 53 31 33 101 168 162 156 156 157 157 163 165 161 149 132 108 69 56 54 38 37 38 39 87 161 
89 92 91 91 92 89 92 67 44 45 49 48 45 37 71 105 106 106 109 110 113 114 116 117 118 117 121 126 126 126 129 134 85 26 25 25 26 71 138 141 142 147 142 82 61 77 89 103 112 116 118 113 102 87 59 40 66 89 90 105 121 124 135 136 123 113 108 107 101 93 91 96 108 118 103 91 58 58 147 170 161 155 155 159 163 166 162 157 144 124 98 60 52 42 36 37 38 43 97 161 
88 88 89 89 89 87 88 66 43 44 48 47 44 36 67 98 101 101 99 103 105 106 110 113 115 116 118 121 124 126 125 129 84 26 25 25 26 70 138 142 139 142 145 126 69 68 84 97 109 116 119 122 117 106 83 45 39 64 77 82 103 112 126 137 121 112 107 105 99 95 97 122 135 143 120 91 86 122 167 166 160 156 153 163 159 152 160 150 138 117 88 54 44 37 37 37 39 48 97 156 
88 87 87 86 88 86 88 65 42 44 47 46 44 36 63 94 97 96 95 97 100 103 103 105 109 111 114 116 120 122 125 123 82 25 24 24 25 69 134 140 137 136 139 139 105 64 78 94 106 114 120 127 127 120 107 72 39 37 59 70 85 100 118 134 122 110 106 105 107 104 122 159 165 159 122 84 97 155 167 163 158 154 160 168 158 157 154 143 128 107 80 49 40 36 36 37 40 51 101 153 
84 84 87 86 85 85 86 67 42 44 47 46 44 36 59 91 89 94 98 96 99 102 104 102 105 106 106 107 111 115 121 122 85 26 24 24 24 63 126 132 132 134 135 132 135 92 69 87 102 112 121 127 127 124 123 107 70 36 35 54 83 99 100 122 123 110 104 108 113 115 137 161 165 152 105 68 118 165 162 159 156 158 163 164 161 159 150 137 121 100 73 45 37 36 35 36 41 52 103 154 
72 82 87 83 82 81 84 67 42 43 48 46 43 35 56 89 88 94 100 106 109 111 111 110 110 108 108 106 105 106 106 111 76 26 23 22 23 64 124 125 124 126 126 130 142 134 77 75 93 106 117 124 125 126 126 120 103 66 33 34 61 94 95 108 126 110 102 106 116 121 145 160 163 134 81 74 150 164 162 160 161 163 165 163 163 156 142 129 112 88 65 42 36 35 34 36 40 55 116 153 
61 66 72 76 80 82 80 67 42 43 48 46 44 35 55 88 92 98 103 107 110 114 114 113 116 114 114 113 109 106 102 99 65 23 23 22 22 61 117 118 117 118 121 133 145 150 122 73 79 96 108 118 124 127 125 123 117 101 62 32 35 58 67 76 122 109 100 102 116 123 146 159 158 113 63 106 162 157 157 158 162 164 164 161 160 150 137 123 103 80 61 41 35 33 35 37 40 65 130 144 
58 58 58 61 64 64 67 63 44 45 48 45 43 35 53 88 88 93 98 102 105 108 110 108 111 111 110 111 113 108 101 100 68 27 24 23 23 62 108 112 112 112 117 132 142 146 148 112 68 81 97 111 119 126 126 125 126 119 101 60 31 34 45 59 114 115 99 100 118 131 152 158 150 89 61 141 161 157 157 163 165 165 166 164 157 146 133 117 96 76 56 37 32 33 35 37 43 88 140 143 
56 55 55 56 54 52 52 52 45 44 48 45 43 35 46 77 82 86 93 100 103 104 106 107 106 106 105 103 100 102 101 94 57 38 34 33 40 83 103 103 105 109 123 136 140 141 145 144 97 68 83 101 115 125 125 126 128 128 121 102 58 31 36 55 106 118 101 97 117 141 157 158 137 64 93 162 158 157 164 166 166 167 165 161 152 137 123 108 90 72 49 34 32 33 35 37 58 128 147 147 
71 66 60 59 57 54 53 53 46 44 48 45 41 35 37 55 62 66 73 83 89 91 94 96 95 97 100 98 96 97 97 80 49 45 47 44 54 93 99 99 100 108 126 136 136 139 142 144 139 98 70 88 110 120 123 128 130 130 127 121 101 57 31 39 81 118 106 98 117 146 160 159 118 55 125 161 153 160 165 165 166 167 163 158 147 132 117 100 83 61 43 33 32 33 35 42 97 145 145 145 
133 127 118 108 97 86 78 67 49 44 46 45 43 37 36 49 52 58 62 65 65 65 67 67 71 77 82 87 91 93 96 75 54 53 49 45 67 92 92 94 97 112 127 132 134 136 138 136 132 126 96 76 94 111 120 127 129 130 129 126 117 96 50 30 53 105 109 102 120 149 159 159 101 65 144 158 159 161 166 165 169 164 159 154 143 127 109 95 78 52 38 31 31 33 36 74 136 146 145 142 
128 134 137 140 141 141 139 119 56 42 44 46 53 57 35 48 47 51 60 63 62 61 60 59 64 66 70 76 78 78 70 60 55 51 44 49 80 92 91 93 96 117 125 124 127 127 127 125 123 124 126 92 74 95 114 123 126 127 128 125 121 115 93 50 37 83 106 101 127 153 156 154 88 89 156 160 157 154 160 160 164 160 154 148 136 121 100 91 68 48 35 30 31 33 63 126 141 139 139 140 
106 108 107 110 115 122 129 116 54 43 43 44 44 40 37 58 58 61 68 73 76 75 71 70 74 75 77 78 77 70 59 56 50 44 40 52 76 82 84 89 103 116 118 117 120 119 119 119 119 120 114 95 77 79 101 117 124 125 124 125 123 122 119 102 74 79 96 101 127 152 153 148 82 118 159 147 136 146 158 161 157 150 149 143 132 114 94 82 56 43 30 30 31 46 92 127 135 135 131 130 
105 105 102 104 104 103 103 85 49 45 44 44 43 36 32 41 52 61 72 81 89 94 94 95 96 92 90 87 85 72 58 51 42 35 37 56 72 77 78 91 110 111 110 112 112 115 117 120 120 117 97 85 83 73 77 104 120 126 121 121 125 125 124 124 130 128 125 125 129 144 151 142 95 134 132 80 50 58 87 131 150 149 140 130 126 107 90 70 52 38 29 30 43 68 84 102 124 130 129 126 
102 103 102 103 103 104 103 87 50 44 43 45 42 35 29 31 43 59 74 81 86 89 88 92 94 93 93 95 93 68 49 42 33 29 36 57 70 70 77 102 116 113 109 113 112 114 113 116 115 116 99 83 80 57 43 79 111 117 118 115 119 123 125 126 138 150 154 154 144 131 137 138 108 110 75 60 61 55 47 54 80 120 136 127 121 99 83 59 49 32 30 47 60 66 72 87 107 123 124 123 
102 102 102 103 103 104 103 89 50 44 42 44 43 36 30 30 35 48 68 82 87 85 84 86 85 83 82 84 81 56 41 35 28 29 41 62 69 73 90 110 117 117 114 111 111 112 114 113 111 113 106 86 67 34 28 41 87 110 115 116 116 122 127 127 139 154 159 157 148 127 131 137 92 113 138 146 147 132 100 58 41 48 83 123 121 94 67 54 45 26 36 59 63 62 67 80 92 117 124 118 
103 105 105 104 104 102 101 89 53 45 40 43 42 38 30 30 34 42 55 69 81 84 83 81 78 76 78 79 67 44 35 30 26 31 48 65 66 73 99 112 114 117 115 113 111 110 112 113 113 110 109 87 46 27 27 26 44 90 111 115 113 119 126 129 141 156 158 157 150 126 119 159 136 124 147 160 161 159 143 104 55 34 34 58 93 84 65 55 35 22 29 55 61 61 62 72 84 100 116 116 
99 101 101 101 101 101 103 93 56 47 44 44 43 39 31 40 38 44 53 60 64 71 77 74 74 75 77 73 53 37 32 27 27 35 54 64 66 76 101 111 110 112 110 109 112 112 109 110 114 113 112 84 34 27 26 25 26 56 102 113 112 114 123 123 136 156 160 156 154 136 108 147 154 115 118 157 163 154 129 102 67 38 30 26 39 64 67 47 28 21 25 47 56 56 59 73 80 87 104 111 
