P2
100 100
255
4 -25 25 -31 -4 -50 -25 -22 -115 -3 -34 -25 1 27 -18 -21 -39 -58 -4 -20 8 -5 99 -3 25 -3 -18 6 -68 -13 -14 16 -58 -47 15 -23 65 23 -30 12 -21 48 19 -34 37 -29 -54 30 6 -2 -66 -46 -82 -4 -26 -20 7 -3 36 -20 -18 -56 -38 -84 -45 -49 -60 36 2 -9 31 44 15 -16 -15 36 -15 -34 -48 22 23 -22 -24 41 31 -7 -46 -28 6 39 -51 44 20 5 -34 -22 15 -26 28 19 
-1 -6 -3 -8 -0 -59 -47 -14 -140 -1 -34 0 -16 28 -53 -27 -33 -33 -26 -20 -37 16 101 20 33 -3 22 4 -50 2 -44 -13 -44 -48 13 1 48 49 -55 -5 -44 60 11 -46 37 -27 -71 14 12 -31 -36 -2 -88 -6 -28 -46 28 24 28 -39 -63 -65 -37 -43 -25 -60 -51 49 0 7 -22 28 -11 -15 -19 10 6 -10 -93 29 23 -11 -4 64 14 -7 -59 -65 31 25 -14 40 45 -16 -21 -29 29 -11 23 30 
2 25 -27 -47 -36 -59 -24 -6 -77 5 -31 4 -56 9 -79 -3 26 21 6 2 -47 -21 73 5 15 -6 36 -26 -56 -19 -61 -40 -21 -14 33 22 32 14 -60 -13 -60 87 -2 -45 -15 15 -106 2 4 -72 5 46 -83 -10 -15 -36 40 45 15 -84 -40 -56 -2 -7 -34 -56 -56 -15 -16 -20 -78 5 -39 -2 3 12 8 -10 -106 14 3 0 -29 61 15 -49 -59 -84 31 50 -4 54 48 -33 -34 10 53 -20 -7 8 
-12 36 -38 -92 -34 -48 13 34 -11 19 5 6 -17 29 -78 2 31 44 48 -3 -65 -48 44 -4 8 -5 16 -14 -57 -30 -69 -25 1 -26 36 -6 7 -0 -65 -25 -55 68 26 -25 34 66 -78 23 0 -70 -8 86 -61 20 25 -34 19 57 -3 -107 -29 -49 11 35 -7 -46 -55 -52 -25 -80 -135 -41 -73 -1 2 27 28 -13 -83 -2 10 -27 -29 29 21 -43 -19 -42 45 87 1 64 16 -65 -72 21 81 -43 24 -1 
-30 27 -20 -68 -16 -49 39 11 -24 -4 13 15 4 27 -73 -22 -3 -5 29 20 -44 -17 59 34 4 -32 -19 -19 -61 -76 -71 -33 2 -19 44 -5 9 4 -49 -26 -31 60 52 -3 58 94 -53 44 -16 -79 -28 60 -72 0 25 -29 6 64 1 -105 -15 -47 7 47 -30 -22 -75 -58 -5 -82 -147 -37 -57 1 9 42 50 -9 -87 -13 21 -65 -57 12 5 -34 3 -21 55 117 28 87 22 -82 -78 -11 86 -19 40 -0 
-39 14 -17 -61 -0 -43 62 -5 -38 -37 -5 -1 2 -3 -69 -37 -21 -13 26 49 -38 5 57 54 5 -60 -40 -21 -81 -90 -76 -35 16 -8 64 5 5 20 -14 -23 -20 45 54 -12 43 71 -77 43 -26 -77 -32 30 -96 -18 10 -14 8 67 -10 -85 -14 -42 13 43 -19 -5 -87 -37 9 -59 -151 -17 -30 0 17 60 73 8 -92 -12 8 -82 -79 -4 -24 -20 4 -20 59 121 45 116 44 -67 -51 -17 81 -17 13 -9 
-45 29 -37 -64 -3 -29 87 4 -37 -47 -22 -22 7 4 -52 -36 -59 -15 28 62 -25 13 50 57 -5 -72 -38 -22 -117 -57 -75 -37 34 -30 57 8 -13 32 0 -14 2 30 58 -3 58 46 -92 56 -30 -55 -36 23 -103 -7 6 -7 -3 44 -10 -41 -13 -39 30 42 -1 -3 -72 -20 -8 -59 -147 13 2 7 16 87 66 31 -92 -6 -14 -81 -70 -13 -37 8 12 5 70 119 41 119 51 -47 -28 -26 80 -16 3 1 
-51 48 -48 -80 -8 3 73 13 -20 -54 -34 -46 24 -5 -47 -19 -85 -22 20 46 -18 24 41 58 -26 -59 -48 -33 -128 -42 -84 -31 25 -42 65 23 -32 34 2 -16 13 38 61 2 76 49 -98 59 -33 -26 -46 23 -84 9 12 -6 -14 31 -9 -14 -11 -41 34 34 16 -12 -55 -8 -21 -77 -129 34 38 9 -5 116 49 27 -75 15 -28 -86 -48 -35 -40 19 20 8 78 114 47 115 57 -30 -27 -29 91 -27 9 -6 
-50 43 -40 -77 8 17 57 14 -20 -37 -29 -50 20 -13 -57 -33 -103 -22 14 32 -32 16 30 56 -56 -45 -53 -29 -114 -50 -91 -26 30 -24 80 19 -16 23 2 -14 5 48 43 12 67 63 -97 65 -42 -5 -53 32 -63 6 2 -14 -21 19 -8 -13 2 -53 54 17 16 -21 -44 -6 -18 -91 -93 11 53 -13 -8 135 43 -7 -43 31 -48 -83 -54 -52 -58 2 18 -9 74 95 42 94 50 -43 -36 -46 90 -29 4 -18 
-33 39 -30 -59 14 15 70 5 -18 -7 -15 -43 -12 4 -56 -59 -113 -26 6 46 -33 -5 33 61 -78 -21 -31 -13 -83 -56 -73 -28 59 -10 94 22 12 -8 1 -27 12 44 24 32 37 88 -90 51 -56 2 -53 26 -42 -20 -26 -24 -45 -2 -15 -21 21 -74 85 -0 3 -16 -39 -29 -35 -85 -66 -30 50 -32 16 126 17 -34 -26 40 -91 -77 -81 -72 -96 -30 -6 -30 54 61 17 58 17 -68 -49 -68 73 -12 -32 -28 
-27 35 -39 -72 -8 8 61 -9 -18 -5 -7 -43 -30 25 -22 -48 -64 -12 28 74 -23 -13 36 75 -77 5 -19 -10 -67 -55 -66 -58 60 -36 78 3 33 -22 3 -28 31 43 33 33 31 107 -81 59 -56 -8 -45 -1 -50 -34 -16 -12 -50 12 -5 -17 35 -80 106 1 2 5 -27 -24 -31 -66 -52 -62 49 -40 41 118 10 -32 -17 52 -91 -44 -77 -52 -91 -20 4 -2 68 70 34 52 13 -54 -43 -68 77 6 -23 -11 
-25 35 -38 -74 -16 -2 51 -9 -10 -0 0 -52 -40 26 4 -28 -24 2 49 102 -26 -12 40 96 -72 10 -11 -14 -59 -43 -61 -57 65 -49 73 6 69 -4 9 -17 61 53 46 36 40 133 -65 76 -34 -14 -24 -0 -48 -17 18 11 -32 34 23 -0 60 -64 120 25 27 32 9 5 -22 -38 -35 -61 65 -29 61 126 25 -36 -8 59 -62 -20 -57 -24 -68 9 18 24 79 82 51 54 20 -33 -39 -65 88 14 -0 5 
-29 43 -30 -69 -6 -5 47 -14 3 -9 12 -62 -43 17 15 -18 -19 5 50 103 -20 -7 41 102 -72 18 -7 -5 -67 -34 -51 -45 83 -44 74 16 90 9 8 -22 64 49 41 40 41 123 -58 78 -20 -34 -22 7 -49 -3 15 11 -35 36 40 7 57 -54 112 39 37 33 27 19 -27 -23 -19 -53 60 -29 66 129 33 -46 -12 38 -46 -20 -37 -19 -49 -15 5 23 85 71 52 51 24 -29 -42 -68 89 15 7 7 
-38 20 -8 -25 5 2 35 -32 -27 -31 19 -60 -26 24 43 1 -31 9 33 83 -7 -14 24 100 -60 13 -13 4 -69 -16 -25 -40 84 -28 93 17 94 8 -10 -35 85 62 31 42 33 94 -58 77 -7 -38 -13 10 -50 20 1 10 -39 59 59 10 31 -69 80 28 47 36 33 23 -35 5 9 -35 51 -33 53 107 11 -48 0 35 -19 1 -9 -8 -33 -37 -16 2 75 79 69 58 22 -12 -38 -63 65 8 13 13 
-38 8 11 32 46 -29 -5 -32 -51 -45 -5 -37 -28 49 23 45 -26 -5 50 54 5 -9 -7 120 -31 -8 -34 -8 -54 9 -7 -28 73 -20 96 12 111 29 -7 -28 91 74 6 32 27 122 -62 62 -5 -27 -27 27 -44 20 5 -0 -30 91 50 -26 49 -43 81 -23 70 40 18 33 -18 -2 31 38 68 -41 27 67 5 -26 -33 30 16 43 -1 -31 -34 -30 -7 -40 58 104 70 83 15 11 -16 -76 32 26 10 5 
-25 16 11 56 76 -42 -42 -33 -39 -21 -19 -49 -27 58 -23 89 34 -40 31 32 31 14 -35 146 -41 -32 -63 -18 -15 57 -17 -37 57 -0 99 -2 116 82 -9 -28 80 45 2 14 14 150 -11 29 -14 -23 -24 22 -43 2 -14 44 -25 76 4 -13 85 3 55 -54 96 29 -10 28 22 -3 44 73 91 -38 -10 28 17 -10 -74 13 22 64 0 -47 -16 -30 46 -61 43 85 31 82 18 19 44 -50 6 44 -12 -35 
-11 13 -0 46 113 -53 -61 -22 -29 33 19 -61 -50 47 -51 93 79 -48 44 13 47 24 -54 133 -16 -24 -78 -25 -8 80 -22 -55 43 -6 80 28 102 78 -49 -14 90 88 32 8 14 122 -47 -12 -23 -17 5 33 -42 10 1 65 -12 76 -21 13 84 11 31 -49 68 -7 -16 35 44 -4 22 100 103 -21 -33 4 40 3 -89 11 22 43 -6 -46 1 -61 57 -76 15 79 31 82 21 7 85 -32 11 40 -42 -57 
9 45 -18 -29 78 -38 -38 18 -57 31 23 -63 -34 63 -71 79 47 -17 81 46 36 -14 -43 111 3 1 -53 -54 -56 75 -44 -24 48 -9 83 91 66 60 -78 -12 79 88 39 -21 51 91 -84 -44 -11 -2 5 69 -66 13 -20 66 54 137 -9 -7 41 35 33 -39 40 -41 -2 56 48 3 -37 116 106 9 -7 6 69 14 -124 -4 55 33 9 5 11 -85 49 -113 -19 93 35 75 -8 22 63 -59 17 41 -13 -24 
26 70 -55 -81 42 -35 11 65 -40 36 26 -49 -44 70 -104 78 51 1 90 56 25 -27 -19 86 -14 19 -18 -62 -63 69 -63 -25 33 -19 76 100 67 60 -65 -9 66 74 23 -40 37 103 -58 -31 18 -6 26 83 -70 -6 -36 72 68 139 -25 -20 48 52 34 -14 26 -38 0 67 33 -1 -52 102 82 3 10 -0 73 15 -125 -14 78 41 2 30 16 -98 54 -136 -54 91 14 67 -5 43 52 -50 26 45 -11 -6 
38 104 -60 -111 30 -37 13 74 -8 60 31 -39 -75 81 -117 83 65 17 93 31 3 -38 8 92 -4 48 15 -68 -65 58 -84 -11 28 -26 39 64 78 62 -45 -4 46 53 9 -49 34 103 -52 -34 30 -33 37 105 -58 19 -24 86 50 118 -49 -37 73 67 35 10 34 -46 -2 85 35 -23 -60 73 58 -12 28 32 87 32 -106 -26 87 17 -33 28 24 -103 57 -118 -63 73 2 59 1 61 32 -40 26 34 -5 -12 
27 97 -48 -122 28 -46 2 80 -11 77 35 -34 -83 85 -133 59 56 30 110 27 -12 -44 18 95 -0 62 19 -80 -51 48 -94 19 43 -6 28 37 78 36 -53 -25 27 36 -7 -29 56 116 -48 -42 11 -53 27 105 -64 38 -10 95 37 92 -63 -48 90 87 45 41 64 -48 10 99 47 -31 -57 28 34 -31 23 59 90 24 -89 -23 103 19 -42 36 43 -77 84 -72 -61 56 -6 29 -17 46 5 -45 15 28 -1 -7 
27 77 -64 -127 33 -31 15 115 -19 83 27 -19 -69 76 -144 6 12 14 122 38 17 -37 10 89 -11 73 27 -58 -38 35 -106 40 13 -7 0 21 87 43 -45 -15 33 22 15 11 68 104 -48 -14 -5 -24 14 99 -75 41 -17 92 42 73 -58 -55 84 77 39 62 85 -37 38 92 66 -19 -64 -7 40 -38 9 61 85 22 -88 9 92 25 -64 24 30 -64 102 -37 -63 58 0 25 -31 33 -9 -39 9 31 10 13 
36 74 -78 -118 50 -30 57 141 -15 67 0 11 -66 93 -133 -17 -16 -9 100 38 37 -50 -6 122 5 61 36 -23 -20 34 -95 54 -7 -2 -34 -22 72 40 -37 5 33 18 45 69 51 66 -58 8 -3 11 24 97 -43 53 -38 80 49 66 -47 -55 70 49 40 81 103 -17 42 48 56 -26 -76 -18 81 -26 47 66 99 38 -100 17 63 7 -99 -1 10 -48 106 -18 -46 96 21 46 -48 12 -7 -21 19 38 6 18 
31 60 -70 -82 63 -32 68 143 -34 36 -10 24 -43 139 -88 -10 -7 -18 96 32 25 -82 -2 126 38 40 6 -46 -8 42 -52 67 3 6 -29 -23 61 16 -33 11 37 1 21 77 51 80 -46 38 -4 32 -10 87 -41 83 -36 92 52 51 -23 -37 64 47 45 72 114 7 53 28 42 -34 -83 -38 83 -32 68 70 94 61 -110 41 62 35 -92 29 24 -3 86 -6 -53 89 12 45 -70 -1 -13 -42 -4 39 -1 -0 
22 26 -36 11 61 -3 -1 112 -135 -7 -33 -7 -0 153 -15 13 31 -50 75 25 32 -83 19 111 46 -18 -43 -85 3 37 -3 76 41 44 -18 -4 77 28 -18 10 70 25 17 72 19 43 -37 31 16 80 -19 45 -76 80 -46 93 50 61 18 -8 46 65 41 -21 106 -21 52 26 63 37 -17 24 86 -31 46 58 50 34 -97 53 78 68 -74 66 30 8 44 -39 -78 61 -12 66 -60 20 25 -59 -28 42 10 -2 
32 27 -9 12 19 21 -49 112 -174 -1 -15 -63 4 95 -21 -6 33 -82 83 35 43 -65 27 57 17 -25 -51 -84 7 16 11 47 46 44 -14 7 107 45 -17 6 72 28 26 50 5 -12 -56 -9 5 77 -38 3 -113 49 -70 79 54 63 29 -3 -3 64 20 -104 79 -63 44 14 64 71 -4 55 74 -27 40 34 16 -10 -93 11 56 38 -96 48 9 -3 12 -79 -91 26 -42 64 -25 38 64 -65 -31 30 2 -3 
21 40 -30 -14 7 11 -43 159 -170 14 29 -62 16 95 -20 -23 10 -80 72 -9 10 -84 28 26 7 -26 -26 -66 1 12 -7 29 48 16 -31 -30 63 34 -23 -30 47 17 11 31 4 -36 -60 -17 8 85 -54 17 -94 77 -54 55 30 26 -4 -7 -44 24 8 -117 73 -84 25 -6 11 49 -21 11 36 -51 29 22 -5 -17 -88 -2 40 30 -93 63 -4 11 7 -55 -95 10 -78 46 -35 33 44 -66 3 16 20 4 
15 40 -30 -39 12 1 -26 152 -156 12 28 -68 6 96 -10 -9 -18 -58 65 -8 21 -82 26 11 -2 -35 -4 -55 -14 41 -5 19 59 -3 -38 -32 34 45 -22 -19 34 32 -3 37 8 -48 -79 2 8 107 -63 5 -82 80 -48 47 34 -1 2 23 -36 14 9 -123 71 -93 25 -6 13 31 11 21 49 -55 16 20 -5 -21 -78 -4 24 23 -69 64 0 15 23 -41 -100 15 -99 31 -25 42 51 -66 15 -1 15 15 
29 19 -15 -46 8 -17 -15 116 -152 5 0 -70 -0 75 14 16 -2 -40 79 7 47 -71 37 13 3 -25 -14 -44 -16 46 12 22 42 -14 -45 -36 44 66 -17 -0 31 30 -12 32 10 -54 -86 29 8 115 -75 3 -100 87 -57 70 49 -11 43 36 -28 39 -5 -127 76 -73 43 4 48 64 37 42 74 -56 13 17 5 -3 -76 2 53 24 -50 71 24 9 37 -50 -99 19 -100 46 -11 55 82 -61 -2 -6 3 19 
25 22 -18 -52 17 -30 20 94 -126 -1 -4 -79 -12 63 28 41 15 -20 86 18 57 -51 20 32 1 -18 -8 -30 -35 50 1 4 37 -25 -23 -33 36 59 3 7 43 52 -7 21 9 -49 -97 58 22 105 -68 26 -93 88 -52 64 47 12 51 35 -13 35 0 -101 72 -57 33 9 46 55 42 71 79 -33 0 45 15 15 -64 1 51 34 -54 54 34 -36 51 -61 -72 32 -60 47 12 54 72 -61 4 -10 -19 30 
22 42 -35 -60 25 -37 53 89 -96 -8 27 -59 -26 70 12 23 -7 -42 58 -18 27 -47 -1 14 -5 -13 -9 -10 -35 30 -15 19 35 -34 -17 -41 -14 43 -18 -1 25 38 3 15 18 -70 -107 25 5 86 -50 40 -64 111 -67 38 25 -19 22 2 -54 35 -1 -100 78 -69 14 -30 -6 20 9 44 45 -45 -32 28 -3 13 -70 -16 37 42 -52 27 52 -82 65 -86 -63 34 -76 44 -6 35 74 -82 21 -24 -16 39 
3 82 -31 -68 19 -58 80 104 -77 12 70 -12 -18 103 -12 -16 -74 -66 14 -28 8 -41 2 23 -47 -19 17 -14 -52 44 -27 35 54 -52 -5 -38 -52 35 -3 -32 5 31 13 61 53 -41 -93 18 8 53 -59 62 -69 122 -89 10 27 -7 11 9 -56 -9 -0 -81 53 -102 -8 -53 -60 -2 -7 19 50 -26 -41 33 -8 5 -78 -43 5 27 -68 23 57 -84 90 -56 -38 35 -74 25 -30 26 21 -108 25 -23 32 64 
-12 82 -29 -51 16 -51 80 102 -52 -5 50 17 -3 97 -29 -26 -104 -74 1 -23 -4 -28 3 48 -41 -46 10 -34 -54 37 -40 44 51 -49 9 -28 -73 36 4 -32 -15 39 16 70 70 -8 -60 25 1 28 -64 68 -81 96 -73 -23 21 5 0 -1 -52 -10 -1 -55 48 -93 -18 -65 -80 -36 -50 11 44 11 -31 40 -3 15 -86 -50 -9 7 -66 3 35 -56 100 -54 -11 40 -58 16 -47 5 -7 -96 22 -37 48 57 
-19 81 -38 -21 11 -44 81 78 -39 9 31 58 -17 92 -56 -27 -88 -76 -0 -17 -23 -21 -10 34 -23 -82 8 -33 -37 18 -43 26 54 -26 0 -14 -69 39 -5 -15 -31 44 21 57 53 17 -43 34 -37 16 -47 64 -85 77 -58 -25 22 1 4 -28 -48 11 -17 -47 24 -89 -22 -87 -68 -28 -77 16 15 21 -11 -1 -10 44 -96 -51 -7 14 -63 -22 11 -42 105 -66 -11 45 -64 12 -36 -23 -4 -99 1 -25 40 59 
-18 57 -34 -25 -1 -50 93 66 -28 27 13 57 -25 83 -68 -29 -82 -88 7 16 -24 -7 -19 -4 9 -116 -3 -46 -29 -4 -25 28 63 -14 -21 -9 -53 49 -15 15 -21 36 8 37 56 23 -1 59 -63 -2 -54 26 -119 103 -36 -7 12 -33 -2 -22 -29 39 -43 -75 16 -84 -3 -69 -44 -15 -90 25 -5 16 -19 -7 -10 49 -95 -60 10 16 -87 -36 -5 -29 145 -63 -12 20 -94 6 -20 -16 7 -133 -23 -7 29 56 
-21 34 -23 -24 17 -56 71 48 -14 11 3 39 -32 61 -83 -30 -82 -57 -10 30 -22 7 -15 -36 -8 -134 -11 -55 -4 -22 -11 36 60 -19 -6 -20 -28 72 -8 16 -6 32 4 45 35 13 11 62 -59 -14 -50 -1 -132 108 -23 -23 -8 -37 -39 -13 3 13 -49 -73 13 -73 -20 -38 -2 -31 -68 21 -16 12 -42 14 -19 37 -95 -72 5 -5 -107 -35 -25 -31 143 -50 -24 2 -70 1 1 4 31 -120 -11 4 23 21 
-25 7 -4 -17 49 -24 18 41 -15 -6 -33 -8 -8 30 -82 -10 -118 -14 -18 14 -29 4 -11 -38 -13 -117 -10 -41 4 1 -10 47 62 -53 17 -41 -7 100 -25 21 -30 12 -18 32 19 -10 -13 50 -60 8 -72 -23 -122 89 9 -19 -43 -17 -52 -5 25 -20 -55 -72 36 -69 -29 -3 13 -51 -42 38 -21 13 -58 35 -11 49 -81 -46 -23 -39 -119 -58 -52 -18 107 -27 -24 -10 -54 41 -15 48 37 -62 -23 -27 20 -30 
-30 -14 9 4 78 -7 -16 20 -11 -28 -59 -30 -7 44 -71 -8 -127 -18 -1 13 -37 22 -31 -9 16 -103 -24 -16 -12 41 -16 49 53 -60 19 -14 -30 87 -44 31 -43 -22 -23 -9 21 -33 -15 48 -71 16 -72 -20 -116 80 16 -11 -70 -7 -31 -14 8 -22 -79 -57 33 -36 -12 1 3 -18 -44 53 -11 18 -52 16 -4 77 -92 -14 -14 -31 -101 -67 -61 -4 77 -19 -4 -9 -43 59 -30 48 34 -44 -45 -65 6 -43 
-31 -15 -13 32 99 -16 11 6 -30 -19 -78 -14 -28 76 -56 -9 -110 -43 -4 18 -22 35 -30 -3 35 -92 -18 2 -6 59 3 19 73 -55 31 15 -22 57 -38 10 -11 -21 -10 -20 5 -16 7 64 -68 4 -71 -22 -93 75 9 2 -62 -7 -17 -8 2 -30 -79 -44 -1 12 -4 12 13 11 -20 55 -1 26 -44 -18 -8 52 -87 -1 -5 -1 -74 -58 -75 -8 72 -41 -9 2 -46 44 -24 43 22 -50 -38 -37 -2 -41 
-10 -30 -10 50 92 -6 20 -11 -22 -16 -66 -11 5 60 -43 17 -94 -42 -21 3 -27 23 -6 -8 48 -75 -32 -13 20 49 10 29 59 -45 27 8 -5 47 -39 0 -2 -11 -12 -47 -3 -7 28 71 -57 11 -80 -25 -91 79 18 19 -66 -17 -14 3 20 -32 -64 -86 19 -17 1 20 17 -5 9 55 14 2 -53 1 -8 29 -58 5 13 7 -67 -42 -63 -23 81 -70 -21 -1 -64 50 -19 51 17 -45 -36 -21 0 -47 
-9 -17 -10 50 87 -8 -6 -13 -15 -15 -21 -8 -3 62 -24 29 -42 -46 -5 -15 -33 19 -5 -5 47 -75 -30 -13 30 52 8 36 50 -15 -5 15 -20 45 -29 5 0 -24 9 -72 10 -9 13 77 -76 34 -83 -9 -84 78 16 40 -59 -25 -3 11 15 -22 -41 -106 12 -35 15 -2 33 31 -5 70 9 -14 -54 -49 -20 47 -59 -6 53 35 -63 -9 -21 -22 60 -46 -63 -25 -81 27 -17 41 20 -50 -34 -26 29 -39 
-2 -24 -5 69 75 -26 -29 -30 -42 23 3 1 -29 48 -30 20 -21 -42 -3 -17 -31 7 -7 -8 -7 -88 -18 -13 59 43 1 -8 58 -2 -19 12 -15 30 -18 0 9 -10 1 -40 -20 15 -27 58 -67 30 -87 -13 -53 45 -3 46 -48 -34 4 14 -1 -28 -21 -130 8 -34 -5 2 31 35 40 50 9 -57 -35 -63 -41 5 -40 -21 37 49 -43 9 -22 12 45 -46 -68 -23 -89 19 5 22 36 -70 -12 1 18 -29 
3 -29 6 50 73 -18 -68 -33 -45 40 23 -23 -6 21 -25 21 -2 -34 7 -47 -41 -11 -7 -16 -64 -63 -20 8 53 78 -17 -20 53 -27 2 -17 5 28 -23 -35 4 14 -30 -37 -31 -2 -39 45 -46 15 -91 0 -58 41 -27 41 -34 -28 12 37 -27 -62 -22 -153 22 -67 -19 13 -1 50 53 48 36 -84 -34 -17 -53 -15 -36 -37 20 15 -38 8 -21 3 31 -63 -42 -37 -85 31 33 40 35 -64 7 -14 2 -58 
1 -4 -31 22 70 -20 -81 -2 -49 21 22 -42 1 30 -23 35 57 -8 40 -71 -64 -5 -24 -37 -61 -21 -13 -14 39 115 -11 -38 73 -23 -14 -24 -11 16 -8 -66 -0 16 -23 -45 -54 -42 -33 22 -20 17 -76 15 -47 62 -50 30 -23 -34 17 29 -57 -71 -28 -134 27 -75 3 -8 -13 74 16 53 29 -88 -61 -34 -47 -11 -44 -33 36 25 -30 48 -13 -14 31 -56 -51 -53 -85 27 35 40 36 -32 3 -27 -13 -63 
5 6 -50 27 59 -9 -85 -11 -40 14 24 -34 -6 25 -29 38 82 -5 22 -59 -75 -8 -39 -29 -38 2 -6 -20 69 91 -24 -32 50 -44 -46 2 -45 4 0 -79 22 12 -18 -36 -69 -67 -34 -37 -1 33 -64 11 -1 68 -47 27 -8 -41 -8 7 -60 -38 -39 -117 40 -79 29 -22 -2 77 -4 45 25 -88 -58 -74 -57 -26 -17 -26 52 36 5 37 -4 -23 40 -62 -79 -47 -63 16 11 44 63 0 16 1 -6 -42 
15 2 -45 16 31 12 -79 -18 -21 28 47 -22 -2 3 -20 29 69 2 -14 -42 -85 -25 -38 -8 -10 -15 33 2 90 87 -48 -37 28 -47 -51 25 -53 -24 -33 -69 57 9 -39 -33 -58 -94 -30 -68 6 50 -38 17 21 63 -10 42 5 -27 -5 15 -36 3 -41 -110 29 -76 28 -39 2 78 22 4 23 -58 -40 -100 -41 -17 6 -37 76 60 36 27 9 -19 45 -64 -83 -45 -18 7 1 60 69 31 18 12 20 -45 
21 12 -48 4 22 12 -47 0 16 37 71 2 22 11 -21 12 83 24 -25 -22 -84 -23 -23 -32 26 -33 46 7 105 84 -43 -44 22 -30 -73 20 -47 -59 -34 -30 57 3 -38 -21 -46 -97 -9 -67 17 74 -6 49 33 34 9 49 20 -23 -27 41 -5 6 -39 -95 21 -64 18 -14 8 65 56 1 20 -25 -18 -102 -13 -20 8 -67 97 82 52 24 30 3 18 -67 -66 -64 -15 -23 -6 43 47 55 -13 6 48 -59 
30 12 -38 -22 19 3 -44 11 34 40 80 28 24 16 -26 21 89 40 -40 -35 -81 -39 -14 -71 36 -34 50 20 122 73 -25 -36 30 -10 -106 27 -47 -45 -27 -1 62 2 6 -1 -38 -77 9 -69 7 82 11 55 48 -1 32 46 27 -36 -66 53 27 11 -33 -86 19 -81 17 7 2 17 48 11 -14 -10 -13 -103 -11 -34 11 -86 79 81 44 21 46 14 -7 -45 -70 -96 -20 -43 -22 28 57 72 -19 35 40 -46 
32 4 -24 -37 21 11 -53 11 57 64 90 39 22 -2 -35 8 78 35 -29 -51 -71 -42 1 -69 47 -44 38 26 127 57 -14 -26 50 8 -121 48 -49 -22 -25 20 52 -11 30 1 -35 -75 3 -103 -5 79 16 45 84 -10 60 61 28 -49 -71 52 27 46 -23 -94 13 -79 5 -6 -7 -22 16 -4 -34 -8 -31 -102 -31 -40 6 -80 38 71 52 13 55 44 -3 -28 -73 -86 -32 -29 -17 18 96 88 -11 49 26 -24 
31 7 -19 -29 24 39 -41 27 86 89 107 40 28 -23 -45 -27 54 26 -28 -59 -73 -39 -3 -84 49 -47 39 34 124 47 -7 -11 63 41 -120 82 -50 -13 -22 18 41 -25 48 4 -29 -77 1 -109 -19 70 31 60 117 10 63 67 42 -63 -62 59 19 82 -22 -57 18 -51 20 -3 10 2 -18 11 -25 14 -40 -100 -17 -23 -6 -70 31 52 43 12 48 37 5 -31 -90 -89 -53 -48 -25 -0 99 85 -16 46 9 -21 
25 4 -27 -30 26 63 -47 33 105 88 115 39 44 -28 -43 -52 24 34 -46 -54 -86 -31 -12 -103 60 -38 58 54 137 70 -6 -4 80 40 -128 113 -86 -12 -44 11 17 -45 49 -4 -21 -71 6 -98 -43 51 3 54 91 2 36 44 32 -88 -81 45 -19 59 -50 -41 2 -59 22 -34 1 13 -71 -0 -42 26 -73 -115 -13 -21 -13 -70 9 21 30 -0 27 2 3 -45 -92 -107 -50 -66 -36 -31 83 79 -24 34 4 -23 
19 -9 -41 -28 27 66 -55 26 98 87 100 35 47 -27 -44 -62 -3 31 -83 -63 -106 -33 -29 -113 47 -42 39 46 115 73 -31 -25 74 11 -152 111 -111 -29 -57 6 1 -57 27 -22 -29 -69 24 -98 -43 35 -12 52 97 6 29 42 20 -104 -103 27 -40 15 -69 -41 -4 -71 14 -48 -31 -11 -88 -44 -53 14 -91 -115 2 -34 3 -55 -16 10 29 -7 17 5 -0 -41 -64 -105 -13 -65 -24 -36 62 91 -25 39 -7 -17 
18 -4 -46 -35 56 64 -55 19 99 68 93 33 37 -16 -35 -52 -27 41 -105 -75 -96 -48 -30 -86 51 -47 39 55 71 87 -43 -13 66 10 -146 114 -123 -43 -54 16 -4 -62 16 -20 -24 -53 32 -87 -35 13 -19 68 110 14 16 40 9 -112 -121 32 -16 -11 -70 -16 -19 -52 0 -40 -43 -25 -90 -43 -52 15 -117 -93 1 -29 6 -43 -23 8 40 -14 24 -8 9 -31 -72 -90 3 -75 -24 -45 40 91 -33 47 -10 -1 
16 1 -55 -35 80 36 -29 2 89 59 75 50 22 3 -35 -59 -34 34 -104 -74 -64 -55 -12 -62 56 -53 44 55 45 88 -39 -5 55 7 -129 108 -110 -60 -54 23 2 -59 19 9 -29 -38 39 -87 -7 -22 4 50 138 -3 9 34 8 -109 -129 29 17 -0 -86 22 -45 -22 -29 -11 -42 -32 -77 -35 -70 13 -116 -76 -17 -6 -8 -30 -24 24 43 -6 40 -26 20 -13 -89 -63 -6 -70 -37 -52 30 86 -50 73 -15 13 
9 -9 -43 -34 84 2 -16 -7 67 50 59 50 -5 27 -42 -49 -18 16 -78 -48 -19 -45 1 -22 48 -43 43 28 26 92 -37 4 20 -4 -113 92 -71 -58 -36 28 16 -48 36 16 -16 -41 50 -105 28 -27 18 17 131 -20 4 42 15 -78 -119 25 56 -0 -81 30 -38 7 -29 19 -7 -20 -38 -15 -64 6 -79 -74 4 -5 -8 -29 -3 27 31 -6 52 -34 19 11 -91 -54 17 -67 -30 -35 17 106 -64 70 -25 16 
13 14 -46 -7 78 0 -31 14 43 18 45 40 -47 28 -37 -37 -3 3 -27 -42 6 -38 -31 8 30 -37 35 -14 18 91 -21 10 9 22 -118 89 -42 -61 -18 11 21 -27 22 26 -19 -21 46 -110 33 -28 3 4 100 -34 6 25 23 -75 -114 12 64 8 -66 13 -31 -1 -15 32 5 -26 -6 -11 -42 -13 -40 -99 32 -1 1 -46 36 43 26 -17 44 -20 17 26 -99 -36 40 -56 -23 -9 3 102 -55 44 -31 -1 
-8 3 -71 3 65 -21 -58 27 26 11 47 46 -73 15 -21 -17 9 -18 18 -65 8 -22 -65 42 30 -45 41 -22 35 71 -13 -12 20 38 -124 63 -21 -86 -6 -18 37 -14 -21 4 -19 17 22 -95 -3 7 -9 45 93 -40 29 16 23 -89 -112 -14 46 26 2 -25 17 -20 10 34 5 -44 7 -3 -20 -32 -27 -131 42 8 -16 -100 82 51 -12 -33 18 11 -0 13 -110 -19 69 -64 -10 26 -19 73 -18 46 -42 -6 
19 20 -68 6 78 -9 -54 46 24 14 59 19 -65 6 -28 -11 16 -13 24 -81 11 -22 -69 43 27 -27 35 9 50 78 -12 -30 34 57 -123 44 -11 -89 0 -22 50 -17 -14 -8 -16 19 -7 -63 -54 28 -37 60 79 -35 30 33 30 -109 -98 -30 38 8 25 -35 34 -29 11 18 12 -57 9 -16 13 -33 -37 -102 79 3 -21 -109 106 65 -31 -26 28 -5 14 3 -120 2 67 -53 7 26 -16 53 4 45 -34 -24 
14 19 -102 -6 68 -23 -57 42 46 9 80 7 -56 20 -41 -20 23 -17 17 -83 13 -32 -56 39 33 -17 34 11 60 72 -21 -55 38 50 -138 41 -20 -92 -3 -36 47 -22 -18 -4 -43 26 -30 -35 -59 43 -39 83 59 -16 46 45 40 -102 -81 -22 34 -1 26 -43 57 -43 26 5 11 -45 -4 -10 21 -38 -53 -73 63 13 -38 -112 88 63 -47 -22 38 -37 27 -5 -116 9 36 -17 5 16 3 21 11 27 -21 -41 
19 27 -102 18 86 -25 -35 59 51 23 77 17 -46 32 -58 -41 20 -36 6 -47 16 -8 -44 41 26 -37 28 0 77 60 -29 -69 57 16 -117 18 -11 -84 -9 -35 57 -4 -7 31 -36 51 -40 -17 -71 42 -38 98 13 -9 40 34 35 -100 -79 -20 19 2 23 -61 72 -76 26 -3 6 -36 -5 15 5 -36 -48 -48 46 39 -40 -102 102 101 -41 -5 45 -37 29 -21 -96 -5 18 1 6 -32 20 -20 31 42 -17 -32 
-5 6 -101 23 87 -37 -39 41 33 27 74 38 -19 30 -58 -60 5 -75 -12 -39 14 22 -33 42 20 -49 26 -12 83 33 -43 -92 57 -15 -110 -7 -3 -77 -10 -37 58 25 20 47 -17 66 -43 0 -87 48 -34 100 -10 -19 32 26 35 -81 -61 -12 3 7 18 -66 84 -90 22 5 13 -27 -13 30 -3 -43 -40 -40 33 21 -53 -124 86 89 -65 -2 29 -27 30 -29 -75 -20 11 14 10 -58 16 -46 38 59 -14 -26 
5 14 -66 27 83 -33 -35 35 23 32 86 44 -6 21 -54 -60 -1 -88 -5 -25 2 31 -39 34 16 -42 29 4 91 19 -34 -88 64 -12 -104 -13 4 -62 -4 -32 50 51 38 55 -1 84 -39 18 -106 38 -47 84 -33 -23 29 29 29 -74 -53 -9 -9 -6 10 -84 71 -105 9 -4 20 -16 -19 50 -4 -32 -28 -11 43 21 -58 -130 73 72 -75 -6 23 -9 46 -20 -46 -20 26 33 20 -61 9 -68 46 78 -10 -34 
-2 -10 -65 15 72 -31 -54 21 8 37 84 30 19 15 -50 -46 -5 -89 -5 -15 -14 34 -46 30 2 -48 6 -2 88 2 -25 -68 70 -2 -84 -2 7 -57 -26 -31 41 53 45 47 2 101 -23 45 -115 28 -46 71 -42 -20 30 27 5 -59 -33 3 -7 3 12 -91 46 -115 -15 -16 21 -24 -32 63 -5 -26 -38 8 37 20 -71 -128 69 48 -88 -5 15 -10 59 -7 -5 -11 32 47 15 -55 4 -98 56 91 -8 -38 
2 -6 -49 41 77 -0 -64 4 15 48 74 6 32 0 -35 -26 -8 -63 -7 0 -31 25 -53 32 -10 -50 -12 -19 87 -12 -19 -55 83 -2 -58 25 26 -51 -46 -30 53 18 40 25 2 119 -4 55 -127 3 -46 65 -31 -17 29 19 -27 -34 -6 7 1 28 6 -93 12 -120 -24 -26 4 -35 -51 58 -5 -19 -55 6 9 16 -71 -113 77 44 -76 5 4 -9 57 4 13 -1 42 36 -1 -41 8 -105 55 92 -14 -49 
-13 -6 -57 50 68 18 -61 -9 26 47 66 -3 42 -11 -18 -8 -6 -38 -16 10 -38 18 -58 24 -10 -74 -34 -32 72 -31 -25 -62 89 6 -33 37 42 -49 -53 -22 67 -5 31 8 11 114 -2 53 -134 -16 -44 79 -23 -17 35 1 -48 -18 1 -6 6 36 -3 -86 6 -115 -12 -28 4 -43 -46 40 -10 -15 -68 -6 -3 3 -82 -120 77 38 -75 3 -5 -11 38 11 15 1 42 28 -14 -39 3 -100 41 83 -12 -66 
-20 -8 -54 65 72 17 -55 -22 20 34 41 -18 41 -22 -27 -11 -2 -30 -19 16 -41 26 -66 15 -6 -76 -45 -46 63 -53 -31 -58 87 16 -23 38 50 -42 -46 -11 65 -6 35 1 5 99 -9 45 -134 -24 -52 96 -31 -13 46 -14 -53 -18 -11 -22 4 28 -4 -76 2 -97 4 -18 -0 -54 -47 41 -16 -6 -53 -13 10 0 -90 -114 70 30 -85 -12 -4 -21 15 4 19 1 21 38 -10 -32 8 -82 47 74 5 -71 
-9 -13 -36 71 75 26 -60 -26 21 21 17 -17 36 -19 -37 -16 -5 -41 -28 8 -48 19 -67 20 5 -73 -43 -51 62 -56 -25 -52 94 18 -25 40 51 -29 -46 -4 58 1 32 -19 -10 96 -4 43 -140 -31 -54 93 -45 -12 56 -25 -46 -13 -21 -37 13 38 -3 -70 2 -85 23 -7 1 -54 -54 45 -24 -1 -24 -6 31 4 -73 -85 54 30 -77 -23 -20 -21 12 -10 11 7 22 46 3 -28 9 -67 52 72 -0 -78 
-12 -29 -45 52 44 30 -81 -27 29 19 6 -15 25 -29 -53 -17 -10 -36 -27 3 -48 15 -60 12 13 -60 -35 -42 69 -54 -21 -59 82 14 -22 44 47 -10 -63 -6 43 8 19 -28 -23 84 -13 47 -125 -26 -48 86 -45 -12 64 -32 -34 5 -0 -45 12 56 1 -77 -0 -74 28 -4 20 -45 -37 47 -26 11 -23 -4 40 3 -76 -72 33 23 -73 -28 -31 -27 11 -26 12 1 24 54 -2 -29 10 -59 47 45 -24 -93 
-4 -35 -39 35 20 20 -81 -19 48 53 16 -13 5 -59 -68 -18 7 -11 -0 22 -38 29 -49 -18 -6 -34 -21 -22 86 -40 -7 -51 77 -3 -5 55 63 11 -55 -7 27 21 32 -22 -19 60 -52 22 -125 -21 -47 83 -49 -23 54 -28 -16 20 25 -46 7 60 -0 -95 -22 -84 30 -3 17 -24 -15 70 -16 22 -26 -8 13 -3 -84 -68 22 23 -61 -5 -22 -11 13 -28 11 -12 5 54 12 -18 31 -27 56 20 -35 -87 
-18 -43 -30 37 25 16 -61 -5 26 36 21 4 -3 -58 -56 -49 -10 -11 12 30 -30 31 -47 -8 -8 -78 -9 -14 77 -47 -14 -33 77 -1 2 28 26 20 -28 -2 15 39 29 6 -16 12 -68 34 -108 -7 -32 67 -55 4 62 -34 -13 11 33 -38 17 80 16 -89 -17 -72 21 -28 7 5 -15 56 -17 27 -15 8 17 -14 -91 -76 -11 9 -76 -19 -42 5 23 -28 13 -28 -0 51 14 -20 25 -4 68 3 -34 -81 
-28 -27 -28 57 16 10 -33 21 11 26 22 20 4 -53 -50 -63 -17 -17 9 28 -37 38 -49 -7 5 -115 5 -11 75 -46 -17 -7 68 5 11 8 3 37 8 10 13 67 35 27 -11 -25 -80 35 -94 3 -41 43 -64 15 57 -46 -16 -13 20 -40 23 76 26 -75 -5 -51 8 -50 4 22 -6 40 1 44 -7 35 21 9 -97 -68 -23 -7 -71 -32 -54 15 16 -37 17 -38 -6 47 27 -31 16 3 73 -18 -21 -84 
-28 -26 -22 65 2 9 -30 7 12 29 4 29 8 -60 -60 -50 -11 -13 -1 9 -44 55 -40 -24 13 -110 12 -12 69 -37 -10 0 57 5 19 -3 9 30 4 11 9 76 32 -0 -2 -28 -67 52 -92 -6 -34 37 -72 29 48 -65 -27 -6 23 -35 17 63 29 -81 -19 -67 2 -60 -6 11 -12 38 4 41 -18 24 -5 6 -95 -43 -37 -20 -72 -31 -63 13 -4 -52 4 -39 -11 29 31 -38 18 -7 61 -9 -22 -85 
-26 -28 -14 64 6 25 -25 8 9 30 -1 42 19 -57 -55 -32 -6 -5 -9 4 -46 74 -35 -20 21 -95 7 -13 65 -32 -11 3 49 11 30 -12 12 27 -6 21 5 79 22 -8 1 -37 -57 64 -88 -18 -41 15 -83 28 32 -62 -48 2 21 -27 -2 59 22 -85 -33 -67 -7 -62 -14 9 -14 39 -2 40 -29 21 -7 9 -103 -36 -42 -19 -78 -22 -68 8 -13 -68 12 -41 2 22 21 -38 20 4 64 2 -22 -83 
-29 -27 -23 65 8 30 -24 9 -7 27 -10 40 26 -49 -57 -30 -8 -6 -24 4 -46 81 -44 -33 25 -93 -14 -15 59 -31 -20 -2 36 4 31 -19 2 16 -8 21 -6 68 12 -9 2 -50 -44 67 -81 -17 -43 -3 -88 25 15 -48 -55 10 15 -37 -11 44 5 -83 -44 -65 -17 -58 -10 3 -11 36 -0 40 -38 28 -10 14 -119 -36 -34 -16 -66 -21 -70 9 -19 -71 22 -28 7 13 24 -42 20 11 67 2 -18 -90 
-31 -33 -32 58 9 27 -26 -0 -24 17 -32 36 35 -46 -56 -25 -8 -6 -30 9 -45 86 -55 -42 26 -85 -44 -11 52 -35 -7 -5 17 -14 29 -26 -12 8 -2 17 -7 69 12 -6 4 -58 -33 68 -84 -13 -37 -6 -98 39 17 -45 -43 19 16 -32 -17 31 -11 -73 -54 -67 -14 -41 -0 -9 -4 45 -2 46 -36 26 -8 11 -125 -28 -29 -6 -59 -15 -63 14 -18 -51 31 -8 11 21 27 -34 25 21 66 2 -18 -89 
-33 -39 -30 59 18 29 -27 1 -36 19 -37 44 36 -46 -47 -19 -9 -8 -32 7 -33 84 -56 -36 20 -76 -50 -6 51 -38 10 15 10 -19 47 -23 -14 18 -0 13 -13 90 26 10 2 -61 -27 74 -87 -5 -23 -2 -97 54 23 -40 -39 19 28 -11 -18 26 -23 -45 -57 -64 -1 -18 6 -6 -0 53 -8 57 -39 35 -9 16 -116 -18 -29 -7 -56 2 -67 12 -12 -37 33 -12 17 20 32 -21 22 33 61 -7 -27 -80 
-30 -42 -24 52 35 32 -26 -0 -47 20 -44 49 40 -49 -31 -5 -16 -5 -41 1 -19 88 -51 -35 17 -66 -39 -10 39 -37 23 22 -2 -16 60 -24 -17 31 -6 6 -22 99 37 19 9 -72 -22 81 -85 -3 -17 -16 -82 54 23 -37 -43 10 36 6 -16 22 -40 -27 -57 -61 -7 -6 17 -9 14 49 -15 63 -59 42 1 16 -106 -11 -27 -18 -46 5 -76 8 -11 -16 28 -17 23 14 33 -7 11 38 56 -15 -36 -69 
-32 -46 -15 42 48 26 -17 -12 -52 18 -53 33 48 -50 -14 -2 -22 -2 -50 -4 -9 93 -47 -32 14 -62 -32 -8 20 -28 31 27 -10 -23 58 -20 -17 34 1 8 -46 89 43 23 8 -66 -18 79 -69 -7 -30 -21 -68 45 20 -27 -50 -9 38 15 -4 19 -53 -16 -53 -53 -14 3 32 -15 21 45 -13 63 -79 49 14 15 -95 -14 -27 -26 -31 5 -80 7 -6 -1 27 -7 15 16 36 6 -12 52 54 -38 -33 -62 
-26 -50 -12 35 46 28 -10 -29 -41 9 -62 18 51 -47 -8 -0 -27 4 -53 -6 7 88 -38 -26 16 -55 -31 -5 0 -9 23 49 -22 -15 41 -17 -17 41 5 12 -62 81 52 12 9 -55 -7 79 -59 -16 -30 -25 -59 37 17 -26 -46 -22 34 30 15 2 -56 -13 -47 -47 -13 15 52 -13 15 55 -6 50 -79 62 7 21 -83 -20 -27 -29 -19 10 -77 9 4 10 26 -5 1 23 42 17 -27 65 44 -52 -25 -56 
-27 -53 -4 36 54 21 -23 -37 -32 -0 -63 25 45 -42 -16 1 -25 5 -51 -0 9 75 -41 -8 7 -47 -36 3 -20 13 15 67 -39 -8 37 -3 -28 53 15 17 -68 70 58 -6 21 -57 5 83 -50 -28 -23 -34 -48 25 19 -30 -36 -28 41 43 23 -17 -59 1 -39 -43 -2 15 57 -9 1 59 -5 38 -59 67 8 31 -83 -28 -26 -35 -14 21 -51 3 2 29 14 -8 -3 28 37 15 -22 74 43 -55 -16 -61 
-25 -59 4 27 65 15 -32 -39 -17 -6 -58 28 24 -36 -31 5 -24 7 -52 15 8 63 -48 2 5 -60 -25 14 -43 25 12 69 -39 -8 30 22 -35 50 18 37 -75 51 71 -27 35 -68 10 91 -41 -26 -33 -54 -48 15 32 -20 -28 -31 44 66 28 -29 -68 13 -49 -19 -3 14 64 8 -18 68 -14 42 -55 49 12 41 -78 -19 -21 -50 -3 23 -47 -3 9 36 17 -6 -5 20 34 1 -23 61 38 -47 1 -62 
-29 -50 5 22 66 16 -33 -43 5 -5 -66 27 2 -23 -35 10 -28 7 -47 19 13 60 -39 2 3 -56 -16 18 -62 29 2 65 -28 -19 26 34 -38 33 24 58 -70 33 79 -30 43 -66 11 84 -36 -22 -30 -70 -41 9 31 -13 -23 -43 30 82 41 -37 -71 28 -55 -2 -16 6 65 23 -18 83 -15 36 -52 21 17 41 -80 -3 -19 -52 8 9 -56 -15 12 47 11 -10 3 24 32 -2 -28 50 26 -44 1 -54 
-38 -46 12 16 75 18 -30 -58 25 -4 -85 28 2 -11 -34 -3 -21 -1 -31 22 13 46 -14 -3 7 -49 -24 31 -64 30 -10 61 -23 -26 24 37 -36 30 14 69 -54 33 70 -24 46 -47 7 72 -32 -13 -27 -92 -18 -4 30 -4 -17 -51 20 78 55 -43 -68 40 -52 11 -29 5 61 32 -21 80 -5 35 -31 11 14 38 -75 5 -32 -43 19 -15 -47 -9 10 52 6 -25 13 43 23 -6 -23 56 9 -32 -4 -55 
-40 -45 17 11 82 11 -30 -73 42 -4 -102 41 2 -7 -37 -22 -9 -2 -18 29 6 34 6 -9 10 -42 -43 35 -56 26 -16 51 -29 -19 17 36 -27 27 2 67 -33 34 57 0 29 -32 11 57 -28 -14 -20 -117 7 -16 33 3 -4 -55 17 52 66 -32 -65 38 -53 28 -32 4 51 32 -25 60 9 40 -14 11 9 35 -68 15 -45 -43 14 -24 -39 -8 12 51 1 -26 16 53 16 -21 -15 71 -14 -9 -14 -52 
-30 -39 11 8 80 4 -26 -84 49 -7 -96 49 -12 -5 -49 -26 -19 26 -16 36 -4 35 6 5 3 -48 -45 36 -65 36 -17 26 -26 -10 11 43 -15 18 6 46 -8 25 46 24 15 -16 22 33 -15 -26 -13 -120 27 -36 39 3 4 -59 8 35 92 -37 -58 42 -68 46 -28 16 23 34 -15 38 36 29 -15 18 3 27 -48 30 -54 -51 5 -25 -55 9 12 46 13 -24 25 56 -4 -20 -11 72 -28 9 -30 -43 
-30 -29 -0 9 80 4 -25 -88 49 -15 -79 55 -23 -5 -65 -11 -39 49 -15 36 -12 49 -12 21 -5 -45 -40 22 -69 46 -12 7 -18 -7 10 48 -12 8 11 34 1 25 41 33 7 -7 27 15 10 -46 -5 -107 31 -44 36 -10 6 -50 -6 35 112 -44 -58 54 -81 51 -27 29 2 34 -4 22 47 21 -17 14 7 22 -35 40 -54 -51 -5 -31 -69 21 14 51 18 -23 45 51 -20 -5 -14 78 -41 21 -28 -44 
-31 -20 -8 19 81 -7 -15 -81 41 -22 -60 66 -42 -11 -69 -1 -44 53 -14 35 -14 61 -25 26 -4 -35 -39 9 -54 36 -2 13 -22 -6 5 50 -7 -3 26 29 -2 29 34 32 -2 8 30 11 34 -68 -6 -89 34 -47 27 -15 -5 -33 -25 41 111 -36 -68 61 -79 49 -22 20 6 27 7 25 46 18 -29 -4 16 29 -35 42 -39 -50 -11 -31 -78 25 22 42 15 -15 57 48 -34 5 -14 80 -50 27 -21 -45 
-28 -30 0 34 81 -21 -5 -82 37 -21 -52 70 -54 -16 -52 10 -44 54 -22 36 0 59 -26 31 -2 -24 -38 -4 -37 34 -5 39 -31 -12 6 49 3 -17 28 30 6 33 15 32 -6 23 34 17 35 -91 -3 -82 38 -50 17 -2 -17 -19 -44 46 102 -20 -76 62 -81 52 -7 19 18 25 27 34 42 9 -31 -26 16 36 -36 41 -30 -41 -15 -25 -76 27 28 31 0 5 72 26 -38 21 -17 82 -52 28 -28 -38 
-26 -30 12 40 68 -25 9 -85 41 -8 -47 59 -62 -27 -33 23 -43 54 -36 30 19 52 -21 32 5 -32 -37 -12 -26 41 -12 50 -36 -13 15 46 17 -30 19 46 23 29 -17 51 -3 25 38 32 26 -89 9 -76 35 -50 22 18 -26 -18 -47 49 95 1 -69 56 -77 53 -7 32 31 29 53 21 43 13 -32 -31 25 42 -35 24 -16 -23 -28 -32 -53 27 27 23 -18 25 91 -9 -39 33 -11 93 -53 15 -23 -35 
-22 -25 9 32 55 -36 21 -89 41 -1 -49 57 -66 -33 -19 29 -33 52 -34 24 46 45 -19 39 3 -37 -37 -9 -19 47 -17 29 -50 -3 21 27 23 -35 15 53 16 26 -34 62 10 25 40 40 24 -87 32 -78 17 -47 22 35 -31 -22 -36 37 91 9 -58 64 -74 60 -14 50 39 17 69 5 44 28 -23 -22 33 45 -39 5 7 -2 -40 -40 -26 13 23 34 -22 45 113 -24 -27 31 -12 100 -49 -0 -17 -35 
-19 -20 1 27 54 -45 23 -89 34 -5 -62 55 -68 -21 -7 23 -18 35 -9 13 67 35 -14 56 -0 -30 -35 -9 -21 36 -7 7 -55 13 25 14 31 -38 3 57 13 16 -39 52 24 32 40 43 25 -94 48 -66 2 -50 0 54 -24 -21 -29 10 90 6 -46 74 -70 57 -23 70 50 -7 82 -9 45 43 -21 -10 34 45 -24 -5 20 2 -45 -42 8 -11 12 44 -10 42 118 -12 -16 20 -23 91 -47 -17 -15 -28 
-19 -7 -12 25 51 -45 27 -81 31 -5 -67 45 -73 2 -12 -0 -2 -1 11 12 61 36 -26 64 7 -23 -33 -20 -36 20 -2 2 -66 25 27 4 43 -46 -9 57 4 -1 -27 49 22 39 50 30 15 -97 36 -31 5 -66 -13 59 -21 -11 -42 -10 90 -5 -44 91 -57 53 -36 76 44 -40 71 -17 31 53 -27 8 38 35 -8 -17 21 -3 -48 -56 30 -25 6 49 16 46 104 1 -8 5 -39 78 -40 -26 -21 -12 
-12 -2 -16 23 43 -46 39 -65 23 -4 -33 37 -71 7 -38 -29 -0 -35 3 -15 47 28 -33 44 -3 -19 -45 -30 -52 10 -26 9 -73 35 33 -13 45 -71 -15 44 -15 -14 -13 33 2 40 47 -1 2 -104 29 -9 14 -86 -31 28 -22 -19 -69 -34 82 -27 -58 82 -66 22 -63 46 2 -81 22 -24 5 47 -30 8 22 15 -4 -41 0 -7 -54 -87 25 -45 -5 35 25 44 79 -6 -3 -22 -54 67 -28 -14 -32 -16 
7 -6 -3 30 61 -33 32 -33 22 13 10 26 -50 10 -45 -33 -1 -45 -6 -41 38 5 -37 15 -16 -6 -51 -18 -66 10 -20 38 -48 58 52 3 72 -73 -13 29 -8 -4 9 21 1 58 51 -12 -18 -113 47 10 39 -75 -30 1 -14 -28 -71 -40 76 -28 -58 79 -49 7 -63 31 -32 -99 -11 -18 -24 18 -16 4 -4 -7 -10 -46 -15 -19 -40 -103 18 -60 -13 29 26 24 57 -20 2 -36 -53 54 -16 16 -17 -17 
8 -17 8 35 61 -26 -1 -28 8 21 2 16 -41 16 -43 -19 9 -48 7 -36 54 5 -30 23 -27 9 -49 -7 -83 14 -9 29 -57 55 53 4 71 -45 -14 20 7 6 24 18 3 67 49 -0 -12 -110 48 -4 27 -57 -10 -9 -18 -13 -43 -10 73 -19 -55 67 -38 16 -54 42 -25 -67 4 3 -26 2 -1 -2 -5 -2 -3 -22 -6 -34 -14 -85 19 -46 -12 48 30 18 59 -4 -4 -32 -38 43 -1 27 -28 -11 
-14 -18 12 35 71 -17 -34 -19 -9 26 -19 -22 -25 34 -31 -16 -5 -59 19 -42 44 14 -38 44 -16 9 -28 -17 -99 51 -27 37 -47 18 60 7 37 -1 -28 12 -8 -4 17 -28 49 35 55 15 13 -98 8 -17 -17 -20 -3 -19 -43 -9 -25 25 34 -12 -61 50 -22 2 -40 58 -15 -31 -10 23 -12 -3 -22 -13 24 14 -10 -11 13 -68 6 -53 0 -39 -2 44 34 16 50 5 -5 -16 -48 34 19 -29 -16 -5 
-15 -15 4 40 63 -14 -17 -11 -27 63 -40 -37 -19 53 -28 -22 -3 -51 -7 -14 17 24 -34 33 -9 3 -10 -47 -80 57 -42 29 -13 -10 62 9 36 -3 -40 15 -3 17 9 -32 52 24 62 13 33 -110 3 -21 -31 25 -20 -16 -46 -16 -12 35 11 -6 -62 37 -2 -17 -40 57 -25 -25 -15 21 -4 -28 -25 1 44 -3 -31 2 19 -79 -9 -16 -20 -36 21 5 42 17 38 -11 11 -18 -55 23 36 -24 -15 -5 
-4 -18 1 34 64 -14 -7 -45 -2 82 -49 -40 -31 80 -33 -44 20 -43 -15 5 20 -1 -21 41 -30 15 -14 -56 -54 27 -47 13 -9 -4 79 -11 75 -37 -50 12 12 28 -14 8 17 61 36 18 30 -125 18 -33 -12 23 -35 11 -49 -18 6 10 26 -29 -51 34 8 4 -45 28 -40 -11 14 -25 -10 -54 30 34 -3 -25 -10 22 -21 -52 -25 -12 -4 -46 10 -10 62 17 26 9 9 -59 -35 16 36 14 -32 -26 
8 -9 -7 23 53 1 -3 -73 21 73 -28 -49 -39 86 -29 -41 11 -37 -15 11 29 -26 -6 52 -43 21 -24 -40 -73 37 -53 -13 7 -9 81 -0 75 -45 -50 -13 15 23 -7 16 3 88 16 8 23 -128 24 -34 13 5 -47 40 -63 -22 5 13 41 -71 -25 27 -6 35 -56 14 -45 -2 5 -36 0 -79 54 29 -5 -25 7 27 -46 -53 -27 -7 3 -53 7 -7 58 33 -8 35 -7 -63 -41 22 22 15 -28 -31 
15 4 -17 5 49 6 4 -71 23 64 -1 -58 -29 68 -25 -34 7 -36 -17 16 20 -22 -1 47 -50 34 -37 -34 -75 39 -54 -20 17 -12 75 4 79 -46 -44 -23 19 15 10 10 1 82 24 -7 32 -124 24 -32 24 5 -62 58 -62 -20 -0 18 46 -79 -10 18 -11 37 -61 11 -44 -2 -4 -35 18 -103 46 36 7 -24 1 24 -39 -58 -31 9 3 -58 10 2 32 46 -34 34 -6 -60 -40 16 22 17 -13 -26 
