P2
50 50
255
137 123 74 44 54 58 58 68 80 88 92 94 95 95 97 96 95 94 94 93 91 91 93 95 95 94 93 91 89 88 80 69 72 114 135 132 131 129 125 125 122 128 202 219 101 69 78 79 84 86 
129 121 74 42 52 54 55 64 77 83 87 88 89 90 91 90 90 90 87 83 85 84 85 88 90 89 89 86 84 85 78 68 70 103 125 127 128 127 124 125 122 116 151 229 175 71 72 77 75 44 
125 120 73 40 50 51 51 61 73 79 83 85 86 88 88 87 86 86 84 82 86 85 81 80 83 86 86 84 84 83 77 68 70 96 115 121 122 122 123 123 117 111 113 188 233 124 61 67 36 9 
127 120 72 38 49 52 54 64 74 80 83 84 87 88 87 88 88 95 100 112 132 140 133 120 98 81 81 83 83 81 76 67 67 95 107 112 117 118 118 116 110 105 105 131 218 207 86 31 9 9 
131 123 73 35 46 51 55 65 74 79 82 84 87 90 93 89 91 100 108 121 137 150 158 169 172 139 89 74 77 77 72 65 67 96 107 107 112 113 109 109 107 103 103 105 159 232 103 7 10 11 
133 122 71 31 41 48 51 60 69 75 78 81 85 84 79 78 85 89 97 109 128 148 163 172 182 188 166 108 67 67 66 60 64 98 114 106 98 106 108 109 107 105 105 107 118 120 28 8 10 9 
134 121 69 30 41 47 49 57 66 72 76 80 85 71 71 77 82 87 93 100 118 144 167 176 183 189 200 206 168 70 56 56 60 100 120 109 75 77 108 111 107 105 106 109 86 20 7 10 8 9 
134 119 67 31 42 48 50 57 66 72 77 79 69 66 73 73 78 89 96 101 113 143 163 171 195 213 218 219 229 158 50 46 58 99 120 111 66 36 89 111 106 104 105 99 33 7 10 9 9 10 
133 119 67 30 41 48 49 55 67 73 76 71 64 68 71 74 86 95 102 103 109 133 161 197 209 206 208 214 220 222 143 52 53 98 119 112 68 18 53 104 105 102 106 56 8 10 10 10 11 14 
131 118 66 29 39 46 48 55 66 71 82 61 63 68 72 83 95 97 96 89 110 155 185 188 192 202 210 215 215 217 227 154 51 94 117 111 69 17 21 73 117 112 79 15 9 11 10 11 12 41 
128 118 67 28 38 45 46 54 61 79 97 55 62 68 79 88 93 92 86 110 155 168 170 181 194 198 204 209 210 215 221 226 102 86 118 113 70 16 31 131 203 204 83 7 12 11 12 12 34 92 
131 119 67 26 37 47 48 55 60 103 100 53 63 73 81 80 84 85 117 146 152 159 170 179 180 187 198 202 205 207 211 220 183 102 120 113 66 62 152 210 220 225 131 9 12 10 12 21 84 110 
135 124 70 29 40 50 52 58 63 123 89 52 62 72 78 79 83 110 128 138 153 159 163 160 166 178 189 195 184 188 203 202 204 174 123 126 140 183 210 211 206 221 120 11 12 11 13 57 111 121 
138 130 75 32 41 49 50 55 63 137 88 55 59 69 76 81 105 110 115 134 145 146 147 154 159 161 172 171 174 183 181 177 173 176 163 183 199 205 203 203 200 216 86 9 11 13 37 99 119 124 
141 133 76 31 41 48 48 53 66 152 107 69 59 69 79 98 101 105 115 121 136 140 144 150 148 146 156 164 172 167 156 152 158 177 192 198 197 197 202 174 156 170 42 9 11 19 77 115 124 124 
139 130 76 31 42 47 48 52 66 152 122 86 58 71 92 91 96 106 108 115 125 135 134 134 135 136 142 148 148 142 145 159 180 189 191 191 198 203 194 133 121 113 13 11 12 47 107 119 123 122 
140 132 79 31 41 46 48 51 69 169 137 105 72 83 86 91 97 92 102 109 100 91 99 106 111 116 114 103 114 139 166 185 184 185 195 203 206 199 135 74 124 68 7 12 20 84 116 123 121 121 
142 135 82 31 41 48 49 51 64 176 153 100 79 73 84 90 86 90 96 88 70 51 57 76 49 43 30 38 109 169 186 184 184 191 198 191 140 86 63 103 98 18 10 12 43 106 123 125 122 120 
140 134 83 31 40 48 49 51 54 155 168 102 83 76 87 81 84 90 80 62 40 26 35 38 37 25 39 106 160 173 175 174 180 180 142 97 79 93 129 91 16 12 12 18 77 117 129 126 123 121 
140 134 85 31 38 47 48 51 54 110 183 129 83 85 78 80 81 67 44 24 19 17 27 30 37 46 116 172 169 160 157 167 168 100 49 68 116 138 81 15 11 12 12 33 95 126 131 129 126 122 
142 137 87 30 37 46 48 52 60 66 164 151 82 75 78 78 67 35 25 15 24 17 16 22 42 91 157 166 156 152 161 178 181 114 42 57 97 55 9 11 13 10 15 55 101 133 132 130 129 125 
142 138 89 30 38 47 48 52 63 61 148 148 71 70 76 63 31 16 20 20 27 27 10 40 83 133 162 143 147 153 183 199 201 155 41 30 80 22 9 14 12 9 27 83 110 123 128 127 128 126 
141 139 91 32 38 48 49 55 68 66 113 117 66 77 51 25 18 13 12 19 30 32 40 114 141 141 157 136 142 170 196 206 214 190 66 15 72 26 11 15 11 11 51 104 122 116 115 116 117 119 
142 141 91 32 39 50 51 57 68 72 81 91 80 64 26 16 17 18 13 17 21 40 99 142 161 140 135 140 156 172 193 201 212 208 96 14 58 36 11 15 10 19 78 117 129 126 127 120 109 105 
144 143 93 32 39 49 50 56 67 84 73 62 74 37 22 23 14 14 13 22 25 85 147 148 153 105 89 95 135 159 178 187 181 144 69 14 48 48 13 13 10 35 94 122 124 122 124 123 117 115 
145 144 95 33 39 49 50 57 81 106 87 49 37 30 28 23 14 20 14 17 66 144 169 122 65 52 54 49 83 127 170 170 86 39 29 15 41 56 14 12 11 58 108 123 120 118 119 120 118 116 
148 145 96 34 41 50 48 67 127 108 59 24 24 32 32 12 20 15 16 31 118 169 139 50 23 30 111 74 74 108 177 113 29 62 19 8 38 62 16 10 17 81 117 121 117 116 117 116 113 109 
150 149 100 40 49 58 47 71 119 67 28 25 25 43 45 10 12 10 13 80 156 143 93 91 75 86 142 122 85 104 189 126 79 72 25 10 34 71 17 11 34 98 121 119 117 116 116 113 106 100 
151 153 106 43 52 66 82 65 31 20 46 29 30 50 51 15 8 9 44 136 142 78 103 126 131 126 132 128 102 102 186 171 107 73 44 14 32 81 17 12 55 110 122 117 117 114 111 107 100 121 
149 151 106 42 52 75 73 40 20 38 40 14 21 39 41 34 8 18 94 146 59 73 105 132 154 160 154 132 110 100 176 185 120 92 54 16 28 84 21 17 77 119 122 116 115 110 107 100 121 175 
145 145 104 42 54 69 49 36 26 41 30 9 9 16 33 66 20 46 141 75 27 77 102 122 142 155 147 123 102 93 159 189 119 93 47 14 24 84 29 28 96 124 119 116 111 107 102 105 164 187 
144 145 105 42 63 68 41 35 30 49 40 9 11 35 59 51 28 87 104 17 33 73 97 113 127 136 135 109 92 91 139 191 113 85 30 14 19 80 40 46 111 122 116 114 111 107 99 134 187 192 
145 147 108 45 52 51 37 34 34 43 52 17 14 30 39 15 85 114 32 13 42 72 93 108 120 126 128 106 84 79 114 155 105 65 14 16 15 71 56 73 119 119 115 113 110 106 104 162 195 208 
141 147 110 40 45 52 29 32 29 41 63 33 35 19 46 69 91 56 9 16 49 74 91 104 114 122 128 122 109 128 159 142 96 38 9 19 15 54 71 95 121 117 114 111 109 104 110 176 207 217 
141 148 114 40 53 54 33 24 18 30 45 58 33 49 112 85 52 15 14 17 46 73 93 103 108 110 114 115 120 159 170 125 75 16 11 22 17 39 85 107 119 115 112 110 107 102 116 190 219 219 
146 150 114 51 57 50 24 15 27 40 35 48 60 137 113 63 17 14 16 19 34 62 89 96 107 96 78 83 90 107 103 87 43 8 12 23 19 32 98 116 119 116 113 109 108 101 124 210 226 223 
148 152 119 54 58 44 23 18 45 53 42 48 86 123 92 30 8 11 14 17 24 45 72 84 99 107 92 86 102 116 112 72 14 9 14 25 21 30 107 119 118 117 115 109 106 96 132 228 230 232 
146 151 113 42 51 29 22 18 54 67 51 57 71 120 48 7 10 9 12 15 18 28 49 72 93 103 105 109 116 115 100 32 8 12 14 28 24 31 110 119 117 115 115 109 101 89 134 239 233 231 
143 148 113 39 35 22 15 15 41 48 63 66 67 53 10 9 12 11 10 13 15 19 24 43 74 94 112 134 142 130 78 12 9 15 17 34 27 33 108 107 108 110 112 106 98 84 154 239 226 226 
142 146 113 62 42 18 16 11 40 52 44 70 79 56 21 9 14 11 9 11 15 16 25 43 69 85 103 123 130 131 116 54 17 11 18 34 27 37 96 72 73 79 87 92 88 81 176 223 214 201 
140 144 124 66 32 13 18 20 28 57 52 59 56 66 60 18 14 12 9 10 13 15 30 71 88 96 105 111 116 150 186 183 142 70 19 29 24 39 96 90 79 66 56 52 57 63 167 211 199 145 
139 143 121 74 22 11 33 33 24 34 44 37 62 75 55 40 12 13 8 11 13 22 27 67 85 97 106 109 126 152 175 188 205 202 117 28 19 42 105 106 99 90 79 63 65 79 182 214 157 47 
143 146 129 80 12 12 17 21 17 20 26 28 53 78 68 64 21 12 8 12 14 41 32 66 91 103 108 114 129 145 160 175 196 215 221 110 15 46 105 107 103 98 91 80 82 122 212 206 100 30 
144 149 124 61 10 10 8 26 19 14 23 35 42 74 68 65 37 14 10 12 16 52 37 70 97 102 108 114 124 137 152 168 190 213 229 207 49 51 109 108 103 96 91 83 129 188 223 175 62 41 
145 150 125 52 9 7 11 36 14 11 12 28 42 73 76 74 35 14 11 11 29 69 44 75 102 105 105 111 120 131 145 161 186 211 226 233 113 59 112 107 102 95 87 92 196 224 216 124 49 52 
145 146 123 49 8 8 14 22 11 9 11 20 38 73 61 55 36 31 17 13 51 79 47 84 103 107 103 107 116 126 138 153 179 204 221 231 171 78 112 106 101 98 88 102 192 218 190 86 51 51 
143 147 125 55 8 10 11 12 10 10 13 23 37 58 50 38 14 18 14 23 66 71 52 96 106 107 104 105 112 122 133 145 168 195 215 228 211 106 83 93 100 99 96 102 131 206 159 62 43 36 
137 146 126 57 10 9 9 11 11 10 13 28 42 28 35 40 11 9 11 41 73 52 68 101 108 110 107 105 110 117 128 139 157 183 210 225 228 123 33 42 51 62 86 113 131 202 107 36 34 37 
133 146 125 49 11 8 10 10 12 9 9 19 56 56 33 10 7 8 24 62 59 45 92 102 106 111 110 106 106 111 121 133 148 172 201 219 229 165 46 39 24 13 31 141 168 157 43 22 33 38 
133 147 123 45 10 8 8 8 11 10 10 14 26 59 38 7 7 13 44 59 36 72 100 104 106 111 112 109 105 107 117 127 141 159 189 213 225 201 66 48 37 23 33 156 147 56 16 26 35 25 
