P2
50 50
255
11 -30 36 9 -12 -34 -20 36 -3 1 -49 35 -10 -11 66 -6 23 -7 8 1 30 8 -3 13 -60 -39 -46 -51 -10 -68 24 -58 18 10 -56 -2 51 -23 -31 29 -1 -16 3 -5 16 -37 -13 44 -52 27 
-3 -9 20 14 -17 -36 -8 36 13 -19 -27 15 18 -25 58 -10 37 -17 16 -9 50 -10 9 -8 -47 -30 -46 -55 -5 -71 43 -73 21 2 -44 -29 70 -7 -44 24 2 -13 -8 14 -9 -6 -24 53 -58 24 
-19 32 -19 28 -23 -24 -4 39 8 -21 -10 -5 27 -19 52 -19 41 -19 25 -9 53 -19 9 -18 -33 -35 -51 -48 -7 -62 38 -69 13 -8 -24 -50 73 12 -44 8 7 -13 -12 26 -43 42 -53 68 -70 28 
-35 69 -60 58 -34 -10 -29 23 3 -8 -5 -29 10 36 54 -28 38 -33 33 5 57 -12 -15 14 -16 -73 -53 -30 -24 -40 1 -37 -12 2 4 -47 56 41 -27 -23 -33 -20 13 36 -44 40 -76 72 -66 21 
-40 65 -74 63 -44 27 -74 24 11 4 -26 -26 4 76 50 -38 20 -32 29 13 73 12 -35 1 -15 -66 -48 -53 -31 -4 -37 -28 -8 10 -0 -42 32 67 -3 -52 -60 -19 29 49 -22 3 -69 50 -58 36 
-18 18 -33 49 -61 35 -62 16 2 49 -61 -38 31 49 103 -64 -3 -4 -0 19 83 10 -35 -23 -2 -54 -42 -83 -19 16 -27 -79 27 2 -19 -24 26 53 17 -74 -67 14 0 27 -5 -4 -22 23 -51 13 
-9 10 -30 45 -63 19 -34 -10 8 62 -74 -17 27 -2 125 -56 -9 16 -37 52 83 -11 -17 -44 11 -67 -34 -74 -58 40 9 -153 54 35 -52 19 1 44 31 -96 -73 50 -1 -23 7 -0 33 -15 -36 4 
-6 14 -51 57 -74 29 -29 -50 23 81 -91 8 14 -39 134 -20 -39 24 -44 68 76 -13 -0 -57 0 -54 -39 -77 -54 34 13 -146 58 49 -68 46 -57 56 66 -104 -95 55 13 -36 8 -5 66 -41 -44 24 
-23 20 -62 68 -94 46 -29 -52 12 99 -121 36 42 -71 101 -9 -6 30 -62 73 60 -9 2 -42 -22 -56 -23 -96 -43 33 -15 -110 50 38 -41 48 -103 63 103 -95 -115 44 33 -32 -3 -2 77 -62 -20 15 
-44 21 -57 72 -94 25 18 -42 -21 102 -99 -1 72 -79 71 -18 39 34 -72 101 7 10 7 -28 -39 -56 -9 -120 -56 72 -58 -86 48 18 2 39 -125 80 114 -87 -125 49 44 -36 -13 -1 108 -68 -18 -6 
-39 24 -58 52 -40 -12 37 -49 -24 108 -119 -18 72 -62 101 -41 41 38 -88 147 -50 48 62 -70 -21 -87 -11 -127 -67 68 -74 -51 43 26 20 19 -113 57 110 -31 -136 67 26 0 -5 -16 107 -71 -32 1 
2 -12 -56 23 -16 -17 36 -22 -42 94 -145 6 34 -28 110 -67 47 34 -52 152 -45 28 98 -104 -2 -113 -38 -89 -52 19 -68 -34 46 40 23 -16 -62 -12 151 -18 -138 102 17 -19 23 -12 84 -70 -28 12 
35 -53 -22 -17 -21 -6 33 26 -77 67 -137 -1 27 25 99 -95 54 20 -24 132 -4 12 86 -93 6 -95 -70 -50 -49 -8 -43 -48 58 -3 44 -23 -68 -31 128 43 -142 85 31 -49 41 28 73 -81 -46 15 
41 -60 6 -30 -23 -5 28 49 -84 64 -129 -1 25 55 77 -91 56 3 -9 104 -0 13 95 -91 -11 -73 -78 -41 -58 -40 -4 -56 63 -22 25 -2 -118 8 95 74 -124 76 29 -32 24 31 46 -65 -30 5 
55 -54 9 -34 -35 5 30 52 -69 51 -102 -20 12 72 40 -56 66 -6 5 72 -0 11 75 -83 -5 -42 -101 -25 -70 -50 13 -69 54 -18 9 14 -133 31 77 58 -105 76 37 -35 18 24 27 -69 -3 -9 
56 -52 8 -42 -43 19 28 62 -56 32 -66 -51 18 86 -9 -45 73 -10 39 54 -10 10 37 -65 6 -17 -120 -17 -75 -49 13 -55 38 -24 13 20 -129 34 67 51 -85 70 31 -45 30 22 18 -71 -4 0 
42 -32 10 -55 -43 33 30 83 -50 7 -42 -60 52 65 -49 -41 90 1 63 9 -52 23 19 -27 -23 17 -127 -19 -72 -53 -12 -26 10 -33 17 23 -148 38 51 74 -45 59 16 -36 11 9 13 -52 -11 13 
25 -13 5 -25 -56 37 47 65 -26 -18 -14 -23 63 -4 -92 33 119 -26 74 -18 -129 32 35 -25 -11 27 -126 3 -75 -82 -33 32 -42 -15 -9 39 -132 -12 60 73 -18 21 20 -2 -52 1 -3 -29 3 6 
39 -21 -27 -14 -27 24 89 39 -5 -45 8 8 25 -21 -120 72 103 8 52 -5 -102 -11 13 -23 14 20 -135 15 -94 -65 -15 24 -44 -26 -4 -9 -69 -24 72 25 23 21 32 -76 -44 56 5 -69 -7 29 
29 -4 -48 -49 16 31 128 4 10 -58 48 -7 19 -20 -117 39 79 71 19 -1 -50 -56 -38 23 -1 17 -93 -66 -77 -39 -4 6 -45 -29 3 -14 -86 18 36 26 56 29 -9 -106 -23 71 38 -85 -36 46 
12 5 -32 -44 -5 36 120 -44 56 -33 66 -23 43 -42 -128 52 62 79 1 9 -66 -25 -58 -7 1 22 -77 -120 -61 -16 -40 18 -44 3 -18 2 -90 3 35 21 67 23 -39 -101 -28 77 56 -53 -58 43 
21 -7 -22 -45 -21 47 91 -58 95 -29 51 -28 73 -53 -141 57 62 65 -5 36 -75 -10 -69 -31 7 37 -80 -137 -46 5 -68 12 -21 10 -16 -24 -70 -23 59 14 53 17 -30 -97 -24 67 68 -35 -82 50 
19 -31 -19 -29 -31 54 55 -60 107 -32 22 -11 125 -53 -145 27 67 50 -25 63 -51 0 -93 -30 10 39 -81 -126 -43 20 -67 -13 -18 21 -32 -58 -59 -22 108 10 11 6 -1 -79 -29 49 71 -16 -90 52 
5 -34 -21 -12 -31 42 33 -45 89 -50 24 2 146 -39 -147 28 59 31 -45 75 -23 11 -99 -21 3 36 -82 -106 -49 18 -71 -30 -20 42 -58 -63 -48 -20 131 -2 -26 7 32 -84 -45 40 74 11 -92 45 
6 -43 -11 -16 -3 22 27 -30 73 -64 46 -8 126 -13 -115 37 55 -2 -61 88 -17 -15 -85 17 -13 14 -50 -100 -36 -10 -81 -6 -24 42 -50 -77 -35 -11 115 -21 -54 0 56 -57 -57 -4 59 17 -69 28 
14 -24 3 -13 14 -37 57 -20 43 -35 61 -35 69 11 -56 68 50 -37 -53 67 -37 -66 -67 85 -31 -16 5 -109 -15 -25 -71 24 -47 20 -18 -104 -14 1 63 -20 -60 -20 65 -23 -66 -48 32 29 -41 -18 
-5 -5 17 -5 -22 -80 69 -30 66 10 27 -48 38 28 -10 90 30 -42 -70 59 -25 -96 -73 99 -43 -32 20 -68 13 -17 -76 16 -54 -6 -17 -102 -15 -8 23 17 -40 -25 44 -61 -45 2 31 37 -51 -55 
-5 0 1 -9 -8 -51 27 -40 92 39 -11 -52 77 26 -27 58 20 -26 -76 84 -7 -66 -77 52 -58 -54 29 -76 8 14 -68 -6 -51 31 2 -117 -25 -19 30 15 -30 -22 7 -70 -11 26 41 17 -63 -34 
-18 -16 -1 11 48 -14 5 -25 92 1 -31 -27 110 21 -44 25 4 13 -57 85 -14 -9 -70 15 -80 -65 2 -101 -16 42 -47 6 -13 78 38 -122 -42 -37 32 -26 -39 -7 4 -57 -10 14 46 1 -73 -28 
8 -48 -17 -16 37 -1 50 -11 89 -47 -50 -13 109 24 -38 13 -10 28 -48 96 -11 30 -73 -6 -102 -54 -4 -97 -7 58 -80 13 42 90 11 -109 -44 -45 38 -35 -56 10 1 -53 -20 13 51 -3 -55 -14 
20 -60 -5 -41 22 -12 106 1 56 -74 -23 -1 77 17 -27 27 -1 21 -59 87 15 39 -55 -20 -98 -31 -2 -95 -6 61 -113 15 54 95 -9 -103 -36 -52 43 -17 -72 -10 -11 -29 -5 9 35 -15 -48 -5 
21 -70 13 -49 29 -26 126 1 38 -77 -4 12 59 15 -27 44 -5 5 -63 100 20 20 -45 -23 -77 -7 -1 -109 -18 74 -88 29 8 55 -21 -98 -22 -62 42 8 -66 -15 -25 -4 -5 -1 19 -23 -47 6 
18 -83 27 -52 42 -33 111 -5 49 -66 6 31 42 38 -28 46 -31 -5 -72 98 17 5 -32 -13 -67 -16 21 -127 -64 53 -46 56 -16 14 -61 -94 5 -47 49 26 -70 -2 -54 7 -2 16 13 -26 -36 -4 
25 -66 30 -44 52 -20 108 -41 54 -40 13 45 17 19 -41 71 9 -0 -109 102 18 -6 -5 -12 -87 -27 17 -146 -57 14 -56 66 -2 22 -47 -94 -2 -38 54 28 -49 38 -53 -9 -32 19 23 -38 -21 -1 
36 -51 44 -34 59 -32 103 -61 63 -18 21 67 -12 -2 -58 85 13 -6 -100 122 28 -30 -8 -32 -109 -26 -7 -156 -19 9 -49 70 -6 33 -12 -88 -19 -53 38 21 -29 55 -35 -4 -58 -3 7 -39 5 14 
63 -52 61 -43 93 -45 74 -42 82 -41 21 86 -40 27 -58 84 -22 -10 -73 102 33 -35 -11 -43 -103 -35 -28 -136 19 45 -36 40 -46 -3 -29 -73 6 -56 20 33 -12 43 -39 17 -78 -38 -28 -6 36 4 
61 -66 55 -48 90 -51 78 -43 93 -41 1 115 -45 33 -63 97 -45 -17 -78 91 23 -47 1 -29 -101 -13 -27 -144 16 37 -42 18 -44 -11 -33 -78 -1 -51 24 46 0 49 -51 -0 -88 -21 -15 6 43 -8 
77 -64 46 -66 81 -59 75 -40 112 -44 -16 135 -55 34 -60 103 -57 5 -78 71 28 -62 7 -16 -91 -11 -26 -142 3 26 -28 1 -41 -9 -63 -79 -14 -46 31 64 -1 58 -62 -13 -82 5 -15 6 38 -22 
79 -54 25 -73 86 -60 91 -48 116 -48 -13 138 -61 43 -61 121 -65 5 -94 57 30 -62 20 -5 -89 -0 -34 -139 -32 -17 -16 -4 -14 20 -74 -60 -30 -43 26 66 -2 49 -78 -40 -66 42 -4 2 19 -27 
67 -38 28 -57 69 -52 100 -36 106 -47 6 115 -34 37 -112 109 -49 -14 -88 47 14 -60 13 3 -96 8 -34 -131 -24 -9 -23 -2 -28 11 -46 -66 -42 -29 33 48 10 38 -66 -57 -52 28 18 -7 29 -20 
47 -40 23 -53 47 -1 119 -4 65 -21 14 63 42 11 -172 75 6 -5 -62 86 -37 -53 20 -70 -58 0 -54 -125 -24 6 -47 25 -32 8 -7 -76 -48 -57 98 56 -7 46 -45 -54 -25 0 56 -41 -13 10 
14 -11 21 -33 33 24 86 18 27 19 -5 46 93 -5 -195 78 21 -7 -53 83 -26 -26 21 -136 -34 10 -131 -60 -25 2 -41 8 -18 29 -56 -50 -11 -79 105 82 -27 24 -9 -73 -9 30 53 13 -79 5 
10 21 4 12 8 15 67 57 2 49 -13 26 92 15 -195 78 34 -33 -53 95 -28 14 8 -148 -81 22 -173 -44 -22 -12 -8 -11 -9 69 -103 -21 -13 -40 87 74 -19 16 -13 -61 -19 42 17 52 -87 1 
8 36 -36 56 -23 16 53 76 1 33 8 8 79 47 -179 42 61 -41 -30 105 -29 27 6 -131 -108 22 -168 -61 -30 -33 6 -17 -8 76 -119 -9 -39 -15 75 78 2 10 -26 -37 -26 68 -34 86 -101 5 
1 51 -55 74 -24 11 52 65 15 11 27 -1 76 61 -148 -2 96 -72 -9 102 -10 44 -13 -123 -113 12 -158 -72 -21 -47 11 -30 3 64 -106 -11 -49 1 60 77 13 3 -19 -20 -37 93 -70 105 -127 10 
0 38 -51 66 -22 4 44 60 13 4 15 4 76 66 -112 -37 108 -95 7 84 1 51 -20 -105 -98 -9 -152 -80 -16 -47 27 -37 11 51 -92 -14 -67 19 56 84 -3 -14 -18 -22 -24 92 -70 105 -142 18 
3 27 -41 57 -14 18 22 73 5 24 -7 8 79 71 -85 -65 102 -99 3 69 5 46 -36 -80 -83 -19 -147 -85 -12 -49 25 -43 15 63 -73 -5 -108 30 45 98 -16 -21 -13 -38 -18 63 -42 105 -153 33 
2 5 -28 58 -21 38 9 76 20 15 6 -18 106 53 -60 -87 103 -97 -2 37 17 57 -72 -36 -84 -16 -128 -84 -21 -56 22 -51 14 80 -53 1 -137 53 39 69 -4 -28 -6 -56 -34 71 -24 99 -157 43 
12 -44 -14 68 -31 41 5 85 36 -14 24 -34 131 30 -33 -119 107 -92 34 18 38 37 -87 -30 -77 -19 -140 -71 -3 -52 51 -91 15 59 -24 -20 -119 68 36 47 -11 -8 -18 -57 -65 86 -2 75 -132 36 
28 -68 10 44 -32 29 18 105 19 -2 15 -37 132 10 1 -132 105 -78 40 32 50 3 -70 -40 -80 -23 -133 -69 15 -58 77 -124 58 46 -26 -19 -103 52 29 45 -44 -10 -9 -54 -47 56 27 39 -111 23 
